<svg width="78" height="77" viewBox="0 0 78 77" fill="none" xmlns="http://www.w3.org/2000/svg">
<path d="M73.4001 17.6853C74.065 17.6853 74.5969 18.2172 74.5969 18.882C74.5969 19.5469 74.065 20.0788 73.4001 20.0788C72.7353 20.0788 72.2034 19.5469 72.2034 18.882C72.2034 18.2172 72.7353 17.6853 73.4001 17.6853Z" fill="#030303"/>
<path d="M73.4001 51.7258C74.065 51.7258 74.5969 52.2577 74.5969 52.9226C74.5969 53.5874 74.065 54.1193 73.4001 54.1193C72.7353 54.1193 72.2034 53.5874 72.2034 52.9226C72.2034 52.2577 72.7353 51.7258 73.4001 51.7258Z" fill="#030303"/>
<path d="M62.4972 67.5498C63.162 67.5498 63.6939 68.0817 63.6939 68.7466C63.6939 69.4114 63.162 69.9433 62.4972 69.9433C61.8323 69.9433 61.3004 69.4114 61.3004 68.7466C61.3004 68.0817 61.8323 67.5498 62.4972 67.5498Z" fill="#030303"/>
<path d="M40.4234 31.6475C39.6256 31.3816 39.0937 31.2486 38.9607 31.2486V29.6529C39.2267 29.6529 39.3596 29.7859 39.6256 29.7859C39.8915 29.9189 40.4234 30.0518 40.6893 30.3178C40.8223 30.4508 40.8223 30.4508 40.9553 30.4508L41.8861 28.8551C41.4872 28.7221 41.0883 28.4562 40.6893 28.3232C40.2904 28.1902 39.7585 28.0573 39.2267 27.9243V26.7275H38.4288V27.9243C37.365 28.0573 36.3013 28.5891 35.9024 29.5199C35.6364 30.1848 35.6364 30.9826 35.7694 31.5145C35.9024 31.7805 36.0353 31.9134 36.1683 32.1794C36.5672 32.5783 37.365 32.8442 37.8969 33.1102L38.4288 33.2432V34.8388C38.1629 34.8388 37.8969 34.7059 37.631 34.7059C37.2321 34.5729 36.7002 34.3069 36.3013 34.174C36.1683 34.041 36.0353 34.041 36.0353 33.908L35.1045 35.6367C36.0353 36.3015 37.0991 36.5675 38.1629 36.7004V38.1631H38.9607V36.7004C39.6256 36.7004 40.4234 36.4345 40.9553 36.0356C41.2212 35.7696 41.4872 35.5037 41.6201 35.2377C41.7531 34.9718 41.8861 34.5729 41.8861 34.041C41.8861 33.6421 41.8861 33.2432 41.7531 32.9772C41.7531 32.4453 41.3542 32.0464 40.4234 31.6475ZM38.4288 31.1156C38.1629 30.9826 37.8969 30.9826 37.764 30.8497C37.631 30.7167 37.498 30.5837 37.498 30.3178C37.498 29.9189 37.764 29.6529 38.2958 29.6529L38.4288 31.1156ZM38.9607 34.8388V33.3761C39.2267 33.5091 39.4926 33.6421 39.6256 33.6421C39.7585 33.775 39.8915 33.908 39.8915 34.174C39.8915 34.5729 39.6256 34.7059 38.9607 34.8388Z" fill="#030303"/>
<path d="M25.5302 71.6719C26.1951 71.6719 26.727 72.2038 26.727 72.8686C26.727 73.5335 26.1951 74.0654 25.5302 74.0654C24.8654 74.0654 24.3335 73.5335 24.3335 72.8686C24.3335 72.2038 24.8654 71.6719 25.5302 71.6719Z" fill="#030303"/>
<path d="M12.8979 1.86157C13.5627 1.86157 14.0946 2.39346 14.0946 3.05832C14.0946 3.72318 13.5627 4.25507 12.8979 4.25507C12.233 4.25507 11.7011 3.72318 11.7011 3.05832C11.7011 2.39346 12.233 1.86157 12.8979 1.86157Z" fill="#030303"/>
<path d="M7.18089 50.1304C7.84575 50.1304 8.37764 50.6623 8.37764 51.3271C8.37764 51.992 7.84575 52.5239 7.18089 52.5239C6.51603 52.5239 5.98415 51.992 5.98415 51.3271C5.98415 50.6623 6.51603 50.1304 7.18089 50.1304Z" fill="#030303"/>
<path d="M1.19675 17.6853C1.86161 17.6853 2.39349 18.2172 2.39349 18.882C2.39349 19.5469 1.86161 20.0788 1.19675 20.0788C0.531888 20.0788 0 19.5469 0 18.882C0 18.2172 0.531888 17.6853 1.19675 17.6853Z" fill="#030303"/>
<path d="M38.5619 0C20.7437 0 6.38269 14.361 6.38269 31.9133C6.38269 52.5239 25.6636 59.4384 38.03 76.3259C38.4289 76.7248 39.0938 76.7248 39.3597 76.3259C51.7261 59.4384 70.8741 52.5239 70.8741 31.9133C70.8741 14.361 56.5131 0 38.5619 0ZM38.5619 74.5972C25.9296 58.2417 7.97835 51.4601 7.97835 32.0462C7.97835 15.2918 21.6745 1.72863 38.5619 1.72863C55.4493 1.72863 69.2784 15.2918 69.2784 32.0462C69.2784 51.3272 51.1942 58.1087 38.5619 74.5972Z" fill="#030303"/>
<path d="M44.5458 59.1725C44.1469 59.1725 43.748 59.5714 43.748 59.9703C43.748 63.0287 41.0886 64.2254 38.6951 66.8849C36.4346 64.2254 33.6421 63.0287 33.6421 59.9703C33.6421 59.5714 33.2432 59.1725 32.8443 59.1725C32.4454 59.1725 32.0465 59.5714 32.0465 59.9703C32.0465 64.0924 35.7697 65.5551 38.1632 68.7465C38.4291 69.1454 39.227 69.1454 39.4929 68.7465C41.7534 65.6881 45.6096 64.2254 45.6096 59.9703C45.3437 59.5714 44.9448 59.1725 44.5458 59.1725Z" fill="#030303"/>
<path d="M59.7046 34.5726L55.9814 32.312L59.7046 30.0515C59.9706 29.9186 60.1035 29.5196 60.1035 29.2537C59.8376 27.658 59.4387 25.9294 58.7738 24.4667C58.6408 24.2008 58.3749 23.9348 57.976 23.9348L53.5879 23.8018L55.5825 19.9457C55.7155 19.6797 55.7155 19.2808 55.4495 19.0149C54.3857 17.6851 53.322 16.6214 51.9922 15.5576C51.7263 15.2916 51.3274 15.2916 51.0614 15.4246L47.4712 17.4192L47.3382 13.0311C47.3382 12.7652 47.0723 12.3663 46.8063 12.2333C45.3437 11.5684 43.615 11.1695 42.0194 10.9036C41.7534 10.9036 41.3545 11.0365 41.2215 11.3025L38.961 15.0257L36.7005 11.3025C36.5675 11.0365 36.1686 10.9036 35.9026 10.9036C34.307 11.1695 32.7113 11.5684 31.1157 12.2333C30.8497 12.3663 30.5838 12.6322 30.5838 13.0311L30.1849 17.4192L26.3287 15.4246C26.0627 15.2916 25.6638 15.2916 25.3979 15.5576C24.0681 16.6214 22.8714 17.8181 21.9406 19.0149C21.2757 19.2808 21.2757 19.6797 21.4087 19.9457L23.4033 23.8018H19.1482C18.8822 23.8018 18.4833 24.0678 18.3504 24.3337C17.6855 25.7964 17.2866 27.3921 17.0206 29.1207C17.0206 29.3867 17.1536 29.7856 17.4196 29.9185L21.1428 32.1791L17.2866 34.4396C17.0206 34.5726 16.8877 34.9715 16.8877 35.2374C17.1536 36.8331 17.5525 38.4288 18.2174 40.0244C18.3504 40.2904 18.6163 40.5563 19.0152 40.5563L23.4033 40.6893L21.4087 44.5455C21.2757 44.8114 21.2757 45.2103 21.5417 45.4763C22.6055 46.806 23.8022 48.0027 24.999 48.9335C25.2649 49.1995 25.6638 49.1995 25.9298 49.0665L29.7859 47.0719L29.9189 51.46C29.9189 51.7259 30.1849 52.1249 30.4508 52.2578C32.0465 52.9227 33.6421 53.3216 35.2378 53.5875C35.5037 53.5875 35.9026 53.4546 36.0356 53.1886L38.2961 49.4654L40.5567 53.1886C40.6896 53.4546 40.9556 53.5875 41.2215 53.5875H41.3545C42.9502 53.3216 44.6788 52.9227 46.1415 52.2578C46.4074 52.1249 46.6734 51.8589 46.6734 51.46L46.8063 47.0719L50.6625 49.0665C50.9285 49.1995 51.3274 49.1995 51.5933 48.9335C52.923 47.8698 53.9868 46.673 55.0506 45.4763C55.3165 45.2103 55.3165 44.8114 55.1836 44.5455L53.189 40.6893L57.5771 40.5563C57.843 40.5563 58.2419 40.2904 58.3749 40.0244C59.0398 38.5617 59.4387 36.9661 59.7046 35.2374C60.1035 35.1045 59.9706 34.8385 59.7046 34.5726ZM57.4441 39.0936L52.3912 39.3596C52.1252 39.3596 51.8593 39.4925 51.7263 39.7585C51.5933 40.0244 51.5933 40.2904 51.7263 40.5563L54.1198 45.0773C53.322 46.0082 52.5241 46.806 51.5933 47.6038L46.9393 45.2103C46.4074 44.9444 45.7426 45.3433 45.7426 45.8752L45.4766 50.9281C44.4128 51.327 43.2161 51.593 42.1523 51.8589L39.3599 47.4708C39.2269 47.2049 38.961 47.0719 38.6951 47.0719C38.4291 47.0719 38.1632 47.2049 38.0302 47.4708L35.2378 51.7259C34.041 51.46 32.9773 51.1941 31.9135 50.7951L31.6475 45.7422C31.6475 45.0773 30.9827 44.8114 30.4508 45.0773L25.9298 47.4708C24.999 46.673 24.2011 45.8752 23.4033 44.9444L25.7968 40.4233C25.9298 40.1574 25.9298 39.8914 25.7968 39.6255C25.6638 39.3596 25.3979 39.2266 25.1319 39.2266L20.079 39.0936C19.6801 38.0298 19.4141 36.8331 19.1482 35.7693L23.4033 32.9769C23.9352 32.711 23.9352 31.9131 23.4033 31.5142L19.1482 28.7218C19.4141 27.5251 19.6801 26.4613 20.079 25.3975L25.1319 25.1316C25.7968 25.1316 26.0627 24.4667 25.7968 23.9348L23.4033 19.4138C24.2011 18.483 24.999 17.6851 25.9298 16.8873L30.4508 19.2808C30.7167 19.4138 30.9827 19.4138 31.2486 19.2808C31.5146 19.1478 31.6475 18.8819 31.6475 18.6159L31.9135 13.563C32.9773 13.1641 34.174 12.8981 35.2378 12.6322L38.0302 16.8873C38.1632 17.1532 38.4291 17.2862 38.6951 17.2862C38.961 17.2862 39.2269 17.1532 39.3599 16.8873L42.1523 12.6322C43.3491 12.7652 44.4128 13.1641 45.4766 13.563L45.7426 18.6159C45.7426 19.2808 46.4074 19.5467 46.9393 19.2808L51.4604 16.8873C52.3912 17.6851 53.189 18.483 53.9868 19.4138L51.5933 23.9348C51.3274 24.4667 51.7263 25.1316 52.2582 25.1316L57.3111 25.3975C57.71 26.4613 57.976 27.658 58.2419 28.7218L53.9868 31.5142C53.4549 31.7802 53.4549 32.578 53.9868 32.9769L58.2419 35.7693C58.109 36.8331 57.843 38.0298 57.4441 39.0936Z" fill="#030303"/>
<path d="M38.5617 21.1425C32.312 21.1425 27.2591 26.1954 27.2591 32.3121C27.2591 38.4288 32.312 43.4817 38.5617 43.4817C44.8114 43.4817 49.8643 38.4288 49.8643 32.3121C49.8643 26.1954 44.8114 21.1425 38.5617 21.1425ZM38.5617 41.7531C33.3758 41.7531 28.9877 37.498 28.9877 32.3121C28.9877 27.1262 33.2428 22.8711 38.5617 22.8711C43.7476 22.8711 48.1357 27.1262 48.1357 32.3121C48.1357 37.498 43.8806 41.7531 38.5617 41.7531Z" fill="#030303"/>
<path d="M72.2039 2.65955C69.4115 2.65955 67.151 4.92007 67.151 7.71248C67.151 10.5049 69.4115 12.7654 72.2039 12.7654C74.9963 12.7654 77.2569 10.5049 77.2569 7.71248C77.3898 4.92007 74.9963 2.65955 72.2039 2.65955ZM72.2039 11.0368C70.3423 11.0368 68.8796 9.57409 68.8796 7.71248C68.8796 5.85087 70.3423 4.38818 72.2039 4.38818C74.0655 4.38818 75.5282 5.85087 75.5282 7.71248C75.6612 9.57409 74.0655 11.0368 72.2039 11.0368Z" fill="#030303"/>
<path d="M11.702 60.1034C7.97881 60.1034 4.92046 63.0288 4.92046 66.752C4.92046 70.4752 7.84584 73.4006 11.702 73.4006C15.4252 73.4006 18.4836 70.4752 18.4836 66.752C18.4836 63.0288 15.4252 60.1034 11.702 60.1034ZM11.702 71.672C8.90961 71.672 6.64909 69.4114 6.64909 66.619C6.64909 63.8266 8.90961 61.5661 11.702 61.5661C14.4944 61.5661 16.755 63.8266 16.755 66.619C16.755 69.4114 14.4944 71.672 11.702 71.672Z" fill="#030303"/>
</svg>
