<svg width="70" height="71" viewBox="0 0 70 71" fill="none" xmlns="http://www.w3.org/2000/svg">
<path d="M64.2035 65.8052C64.8196 65.8052 65.3126 66.2981 65.3126 66.9143C65.3126 67.5304 64.8196 68.0233 64.2035 68.0233C63.5873 68.0233 63.0944 67.5304 63.0944 66.9143C63.0944 66.2981 63.5873 65.8052 64.2035 65.8052Z" fill="#030303"/>
<path d="M55.7001 0.739502C56.3162 0.739502 56.8092 1.23243 56.8092 1.84858C56.8092 2.46473 56.3162 2.95766 55.7001 2.95766C55.0839 2.95766 54.591 2.46473 54.591 1.84858C54.591 1.23243 55.0839 0.739502 55.7001 0.739502Z" fill="#030303"/>
<path d="M47.8134 62.3549C48.4296 62.3549 48.9225 62.8478 48.9225 63.4639C48.9225 64.0801 48.4296 64.573 47.8134 64.573C47.1973 64.573 46.7043 64.0801 46.7043 63.4639C46.7043 62.8478 47.1973 62.3549 47.8134 62.3549Z" fill="#030303"/>
<path d="M34.9977 52.373C34.1351 52.373 33.3957 53.1124 33.3957 53.975C33.3957 54.8377 34.1351 55.577 34.9977 55.577C35.3674 55.577 35.8603 55.4538 36.1068 55.0841C36.7229 54.468 36.7229 53.4821 36.1068 52.866C35.8603 52.4963 35.3674 52.373 34.9977 52.373Z" fill="#030303"/>
<path d="M21.4421 63.0941C22.0583 63.0941 22.5512 63.587 22.5512 64.2032C22.5512 64.8193 22.0583 65.3123 21.4421 65.3123C20.826 65.3123 20.3331 64.8193 20.3331 64.2032C20.3331 63.587 20.826 63.0941 21.4421 63.0941Z" fill="#030303"/>
<path d="M17.4985 0C18.1147 0 18.6076 0.492923 18.6076 1.10908C18.6076 1.72523 18.1147 2.21815 17.4985 2.21815C16.8824 2.21815 16.3895 1.72523 16.3895 1.10908C16.3895 0.492923 16.8824 0 17.4985 0Z" fill="#030303"/>
<path d="M5.91516 4.55945C6.53131 4.55945 7.02424 5.05237 7.02424 5.66853C7.02424 6.28468 6.53131 6.7776 5.91516 6.7776C5.29901 6.7776 4.80608 6.28468 4.80608 5.66853C4.68285 5.05237 5.29901 4.55945 5.91516 4.55945Z" fill="#030303"/>
<path d="M65.3123 9.98177H56.8094V7.64039C56.8094 7.27069 56.4397 6.901 56.07 6.901C53.2357 6.901 15.7735 6.901 13.9251 6.901C13.5554 6.901 13.1857 7.27069 13.1857 7.64039V9.98177H4.68277C2.09492 9.98177 0 12.0767 0 14.6645V54.4681C0 57.0559 2.09492 59.1509 4.68277 59.1509H27.9734V67.6538H26.3714C26.0017 67.6538 25.632 68.0235 25.632 68.3932C25.632 68.7629 26.0017 69.1326 26.3714 69.1326H43.6237C43.9934 69.1326 44.3631 68.7629 44.3631 68.3932C44.3631 68.0235 43.9934 67.6538 43.6237 67.6538H42.0217V59.1509H65.3123C67.9002 59.1509 69.9951 57.0559 69.9951 54.4681V14.6645C70.1183 12.0767 67.9002 9.98177 65.3123 9.98177ZM13.3089 16.1433C13.5554 17.2524 14.418 18.115 15.5271 18.3615V39.3107C15.5271 39.6804 15.8968 40.0501 16.2665 40.0501C16.7594 40.0501 52.9892 40.0501 53.6054 40.0501C53.9751 40.0501 54.3448 39.6804 54.3448 39.3107V18.3615C55.4539 18.115 56.3165 17.2524 56.5629 16.1433H63.7103V48.553H6.28477V16.1433H13.3089ZM18.7311 17.3756C19.9634 18.7312 22.1815 18.7312 23.4139 17.3756C24.6462 18.7312 26.8643 18.7312 28.0966 17.3756C29.3289 18.7312 31.5471 18.7312 32.7794 17.3756C34.0117 18.7312 36.2299 18.7312 37.4622 17.3756C38.6945 18.7312 40.9126 18.7312 42.1449 17.3756C43.3772 18.7312 45.5954 18.7312 46.8277 17.3756C48.06 18.7312 50.2782 18.7312 51.5105 17.3756C51.8802 17.8685 52.4963 18.115 53.1125 18.3615V34.6279H33.5188V24.6462C33.5188 24.2765 33.1491 23.9069 32.7794 23.9069H23.4139C23.0442 23.9069 22.6745 24.2765 22.6745 24.6462V34.6279H17.2523V18.3615C17.7452 18.115 18.2382 17.8685 18.7311 17.3756ZM50.6479 15.4039C50.6479 16.2665 49.9085 17.0059 49.0459 17.0059C48.1832 17.0059 47.4439 16.2665 47.4439 15.4039V8.503H50.6479V15.4039ZM45.9651 15.4039C45.9651 16.2665 45.2257 17.0059 44.3631 17.0059C43.5005 17.0059 42.7611 16.2665 42.7611 15.4039V8.503H45.8419V15.4039H45.9651ZM41.2823 15.4039C41.2823 16.2665 40.5429 17.0059 39.6803 17.0059C38.8177 17.0059 38.2015 16.1433 38.2015 15.4039V8.503H41.2823V15.4039ZM36.5995 15.4039C36.5995 16.2665 35.8602 17.0059 34.9975 17.0059C34.1349 17.0059 33.3955 16.2665 33.3955 15.4039V8.503H36.4763V15.4039H36.5995ZM31.9168 15.4039C31.9168 16.2665 31.1774 17.0059 30.3148 17.0059C29.4522 17.0059 28.7128 16.2665 28.7128 15.4039V8.503H31.9168V15.4039ZM27.3572 15.4039C27.3572 16.2665 26.6179 17.0059 25.7552 17.0059C24.8926 17.0059 24.1532 16.2665 24.1532 15.4039V8.503H27.234V15.4039H27.3572ZM22.5512 15.4039C22.5512 16.2665 21.8119 17.0059 20.9492 17.0059C20.0866 17.0059 19.3472 16.2665 19.3472 15.4039V8.503H22.428V15.4039H22.5512ZM17.1291 38.4481V36.1067H22.6745V38.4481H17.1291ZM24.1532 25.3856H31.9168V38.4481H24.03V25.3856H24.1532ZM33.5188 36.1067H52.9892V38.4481H33.5188V36.1067ZM55.3306 15.4039C55.3306 16.2665 54.5912 17.0059 53.7286 17.0059C52.866 17.0059 52.1266 16.2665 52.1266 15.4039V8.503H55.2074V15.4039H55.3306ZM14.7877 8.37977H17.8685V15.2807C17.8685 16.1433 17.1291 16.8827 16.2665 16.8827C15.4039 16.8827 14.6645 16.1433 14.6645 15.2807V8.37977H14.7877ZM29.5754 59.2741H31.9168V67.777H29.5754V59.2741ZM36.5995 59.2741V67.777H33.5188V59.2741H36.5995ZM40.5429 67.777H38.2015V59.2741H40.5429V67.777ZM68.5163 54.4681C68.5163 56.1933 67.0376 57.6721 65.3123 57.6721H4.68277C2.95754 57.6721 1.47877 56.1933 1.47877 54.4681V14.6645C1.47877 12.9393 2.95754 11.4605 4.68277 11.4605H13.1857V14.5413H5.42216C5.05246 14.5413 4.68277 14.911 4.68277 15.2807V49.1692C4.68277 49.5389 5.05246 49.9086 5.42216 49.9086H64.6962C65.0659 49.9086 65.4356 49.5389 65.4356 49.1692V15.4039C65.4356 15.0342 65.0659 14.6645 64.6962 14.6645H56.9326V11.5838H65.3123C67.0376 11.5838 68.5163 13.0625 68.5163 14.7878V54.4681Z" fill="#030303"/>
<path d="M37.3388 31.547H42.8842H48.4296C48.7992 31.547 49.1689 31.1774 49.1689 30.8077V25.3855C49.1689 25.0158 48.7992 24.6461 48.4296 24.6461C45.472 24.6461 39.1872 24.6461 37.462 24.6461C37.0923 24.6461 36.7226 25.0158 36.7226 25.3855V30.8077C36.5994 31.1774 36.8459 31.547 37.3388 31.547ZM47.4437 29.945H43.6236V26.1249H47.4437V29.945ZM38.2014 26.1249H42.0216V29.945H38.2014V26.1249Z" fill="#030303"/>
<path d="M64.6962 6.90104C66.4214 6.90104 67.777 5.5455 67.777 3.82027C67.777 2.09504 66.4214 0.739502 64.6962 0.739502C62.971 0.739502 61.6154 2.09504 61.6154 3.82027C61.6154 5.5455 62.971 6.90104 64.6962 6.90104ZM64.6962 2.21827C65.5588 2.21827 66.2982 2.95766 66.2982 3.82027C66.2982 4.68289 65.5588 5.42227 64.6962 5.42227C63.8336 5.42227 63.0942 4.68289 63.0942 3.82027C63.0942 2.95766 63.8336 2.21827 64.6962 2.21827Z" fill="#030303"/>
<path d="M9.36533 61.6154C6.77748 61.6154 4.68256 63.7103 4.68256 66.2981C4.68256 68.886 6.77748 70.9809 9.36533 70.9809C11.9532 70.9809 14.0481 68.886 14.0481 66.2981C14.0481 63.7103 11.8299 61.6154 9.36533 61.6154ZM9.36533 69.2557C7.6401 69.2557 6.28456 67.9001 6.28456 66.1749C6.28456 64.4497 7.6401 63.0941 9.36533 63.0941C11.0906 63.0941 12.4461 64.4497 12.4461 66.1749C12.4461 67.9001 11.0906 69.2557 9.36533 69.2557Z" fill="#030303"/>
</svg>
