<svg width="83" height="81" viewBox="0 0 83 81" fill="none" xmlns="http://www.w3.org/2000/svg">
<path d="M79.9993 33.9211C80.7497 33.9211 81.3501 34.5215 81.3501 35.272C81.3501 36.0224 80.7497 36.6228 79.9993 36.6228C79.2488 36.6228 78.6484 36.0224 78.6484 35.272C78.6484 34.5215 79.2488 33.9211 79.9993 33.9211Z" fill="#030303"/>
<path d="M78.949 60.1873C79.6994 60.1873 80.2998 60.7877 80.2998 61.5382C80.2998 62.2886 79.6994 62.889 78.949 62.889C78.1985 62.889 77.5981 62.2886 77.5981 61.5382C77.5981 60.7877 78.1985 60.1873 78.949 60.1873Z" fill="#030303"/>
<path d="M71.4446 17.8609C72.195 17.8609 72.7954 18.4613 72.7954 19.2117C72.7954 19.9622 72.195 20.5626 71.4446 20.5626C70.6941 20.5626 70.0938 19.9622 70.0938 19.2117C70.0938 18.4613 70.6941 17.8609 71.4446 17.8609Z" fill="#030303"/>
<path d="M63.7898 70.5436C64.5403 70.5436 65.1406 71.144 65.1406 71.8944C65.1406 72.6449 64.5403 73.2452 63.7898 73.2452C63.0393 73.2452 62.439 72.6449 62.439 71.8944C62.439 71.144 63.0393 70.5436 63.7898 70.5436Z" fill="#030303"/>
<path d="M48.7805 1.0506C49.531 1.0506 50.1314 1.65097 50.1314 2.40143C50.1314 3.1519 49.531 3.75227 48.7805 3.75227C48.0301 3.75227 47.4297 3.1519 47.4297 2.40143C47.4297 1.65097 48.0301 1.0506 48.7805 1.0506Z" fill="#030303"/>
<path d="M12.7581 25.3655C13.5085 25.3655 14.1089 25.9659 14.1089 26.7164C14.1089 27.4668 13.5085 28.0672 12.7581 28.0672C12.0076 28.0672 11.4072 27.4668 11.4072 26.7164C11.4072 25.9659 12.0076 25.3655 12.7581 25.3655Z" fill="#030303"/>
<path d="M5.10328 2.85162C5.85374 2.85162 6.45411 3.45199 6.45411 4.20246C6.45411 4.95292 5.85374 5.55329 5.10328 5.55329C4.35281 5.55329 3.75244 4.95292 3.75244 4.20246C3.75244 3.45199 4.35281 2.85162 5.10328 2.85162Z" fill="#030303"/>
<path d="M1.35083 58.2361C2.1013 58.2361 2.70167 58.8365 2.70167 59.5869C2.70167 60.3374 2.1013 60.9378 1.35083 60.9378C0.600371 60.9378 0 60.3374 0 59.5869C0 58.8365 0.600371 58.2361 1.35083 58.2361Z" fill="#030303"/>
<path d="M71.4445 48.0296C69.6434 46.8288 67.392 46.6787 65.4408 47.5793L57.4859 51.0314C51.9325 53.583 45.4785 53.583 39.925 51.0314L38.4241 50.4311C27.1672 45.478 14.1091 50.5811 9.15602 61.5379L4.05287 72.945C3.90277 73.3952 4.05287 73.9956 4.50315 74.1457L19.5124 80.7498C19.6625 80.7498 19.8126 80.8999 19.9627 80.8999C20.1128 80.8999 20.2629 80.8999 20.2629 80.8999C20.5631 80.7498 20.7132 80.5997 20.7132 80.4496L23.715 73.6954L25.0659 70.5435C26.2666 67.8418 29.4185 66.6411 32.2703 67.8418C35.2722 69.1927 38.4241 69.793 41.8762 69.793C45.1783 69.793 48.3302 69.0426 51.6323 67.6917L70.8441 59.2865C73.2456 58.2359 74.5965 55.8344 74.5965 53.4329C74.5965 51.3316 73.3957 49.2303 71.4445 48.0296ZM19.3623 78.7986L6.00407 72.945L8.25546 67.6917L21.4636 73.6954L19.3623 78.7986ZM69.9436 57.4854L51.0319 66.0407C45.4785 68.5923 39.0245 68.5923 33.471 66.0407C29.8688 64.3897 25.366 66.0407 23.715 69.793L22.6644 72.0444L9.45621 66.0407L11.1072 62.4385C15.61 52.3823 27.6174 47.7294 37.8237 52.2322L39.3247 52.8325C45.3284 55.5342 52.3827 55.5342 58.3864 52.8325L66.3414 49.3804C67.6922 48.78 69.3432 48.78 70.544 49.6806C71.8948 50.5811 72.6453 51.932 72.6453 53.4329C72.6453 55.0839 71.5946 56.735 69.9436 57.4854Z" fill="#030303"/>
<path d="M20.8625 36.6226C20.4122 36.6226 19.9619 37.0729 19.9619 37.5232C19.9619 37.9735 20.4122 38.4237 20.8625 38.4237H23.7142V41.2755C23.7142 41.7258 24.1645 42.1761 24.6148 42.1761C29.2677 42.1761 42.6259 42.1761 47.4289 42.1761H53.1324H58.8359C60.9372 42.1761 67.2411 42.1761 69.3424 42.1761C69.7927 42.1761 70.243 41.7258 70.243 41.2755C70.243 40.8252 69.7927 40.375 69.3424 40.375H65.5901V12.1575C65.5901 11.7072 65.1398 11.257 64.6896 11.257H58.986C58.5358 11.257 58.0855 11.7072 58.0855 12.1575V14.1087H53.4326C52.9823 14.1087 52.532 14.559 52.532 15.0093V18.7616H48.7797V14.1087C48.7797 13.6584 48.3294 13.2082 47.8792 13.2082H43.2263V10.3564C43.2263 9.90612 42.776 9.45584 42.3257 9.45584H36.6222C36.1719 9.45584 35.7217 9.90612 35.7217 10.3564V16.0599H31.0688C30.6185 16.0599 30.1682 16.5102 30.1682 16.9605V40.375H26.4159V4.65288C26.4159 4.2026 25.9656 3.75232 25.5153 3.75232C25.0651 3.75232 24.6148 4.2026 24.6148 4.65288V6.60408H21.763C21.3127 6.60408 20.8625 7.05436 20.8625 7.50464C20.8625 7.95492 21.3127 8.4052 21.763 8.4052H24.6148V10.3564H21.763C21.3127 10.3564 20.8625 10.8067 20.8625 11.257C20.8625 11.7072 21.3127 12.1575 21.763 12.1575H24.6148V14.1087H21.763C21.3127 14.1087 20.8625 14.559 20.8625 15.0093C20.8625 15.4596 21.3127 15.9098 21.763 15.9098H24.6148V17.861H21.763C21.3127 17.861 20.8625 18.3113 20.8625 18.7616C20.8625 19.2119 21.3127 19.6622 21.763 19.6622H24.6148V21.6134H21.763C21.3127 21.6134 20.8625 22.0636 20.8625 22.5139C20.8625 22.9642 21.3127 23.4145 21.763 23.4145H24.6148V25.3657H21.763C21.3127 25.3657 20.8625 25.816 20.8625 26.2662C20.8625 26.7165 21.3127 27.1668 21.763 27.1668H24.6148V29.118H21.763C21.3127 29.118 20.8625 29.5683 20.8625 30.0186C20.8625 30.4688 21.3127 30.9191 21.763 30.9191H24.6148V32.8703H21.763C21.3127 32.8703 20.8625 33.3206 20.8625 33.7709C20.8625 34.2212 21.3127 34.6714 21.763 34.6714H24.6148V36.6226H20.8625ZM59.7365 13.2082H63.4888V40.375H59.7365V13.2082ZM53.8829 15.9098H57.6352V40.375H53.8829V15.9098ZM52.0818 40.375H48.3294V20.7128H52.0818V40.375ZM46.3782 40.375H42.6259V15.0093H46.3782C46.3782 18.1612 46.3782 37.6733 46.3782 40.375ZM36.9224 11.257H40.6747C40.6747 14.7091 40.6747 35.1217 40.6747 40.375H36.9224V11.257ZM31.0688 17.861H34.8211V40.375H31.0688V17.861Z" fill="#030303"/>
<path d="M82.4007 5.70353C82.4007 2.55158 79.8491 0 76.6972 0C73.5452 0 70.9937 2.55158 70.9937 5.70353C70.9937 8.85547 73.5452 11.4071 76.6972 11.4071C79.8491 11.4071 82.4007 8.70538 82.4007 5.70353ZM76.6972 9.45584C74.5959 9.45584 72.9449 7.80482 72.9449 5.70353C72.9449 3.60223 74.5959 1.95121 76.6972 1.95121C78.7985 1.95121 80.4495 3.60223 80.4495 5.70353C80.4495 7.80482 78.7985 9.45584 76.6972 9.45584Z" fill="#030303"/>
<path d="M5.55375 47.8795C8.10533 47.8795 10.2066 45.7782 10.2066 43.2267C10.2066 40.6751 8.10533 38.5738 5.55375 38.5738C3.00218 38.5738 0.900879 40.6751 0.900879 43.2267C0.900879 45.7782 2.85208 47.8795 5.55375 47.8795ZM5.55375 40.3749C7.05468 40.3749 8.40552 41.5756 8.40552 43.2267C8.40552 44.8777 7.20477 46.0784 5.55375 46.0784C4.05283 46.0784 2.70199 44.8777 2.70199 43.2267C2.70199 41.5756 3.90273 40.3749 5.55375 40.3749Z" fill="#030303"/>
</svg>
