<svg width="30" height="30" viewBox="0 0 30 30" fill="none" xmlns="http://www.w3.org/2000/svg">
<path d="M15.9375 0C8.15625 0 1.875 6.34375 1.875 14.1562C1.875 16.75 2.5625 19.25 3.875 21.4375L0 30L8.96875 26.5C11.0938 27.7188 13.4687 28.3437 15.9375 28.3437C23.7187 28.3437 30 22 30 14.1875C30 6.375 23.6875 0 15.9375 0ZM15.9375 27.0937C13.7188 27.0937 11.5313 26.5313 9.59375 25.4063L9.0625 25.0938L2.40625 27.7187L5.28125 21.375L4.9375 20.8125C3.75 18.8125 3.125 16.5 3.125 14.1562C3.09375 7.0625 8.8125 1.25 15.9375 1.25C23.0625 1.25 28.75 7.0625 28.75 14.1562C28.75 21.25 23.0313 27.0937 15.9375 27.0937ZM20.8437 16.1875C19.9375 15.75 18.625 14.9063 17.625 15.2813C17 15.5313 16.6875 16.0937 16.2812 16.5937C15.5312 16.2187 14.625 15.6562 14.1562 15.0937C14 14.9062 13.5938 14.4375 13.3438 14.0937C13.4688 13.9687 13.5938 13.8437 13.7188 13.625C14.3125 12.7187 14.3125 12.25 13.9062 11.2812C13.75 10.9062 13.5938 10.5 13.4375 10.125C12.9688 9.03125 12.6875 7.96875 11.2188 7.9375C10.7813 7.9375 10.375 7.90625 9.96875 8.0625C8.875 8.4375 8 9.6875 7.6875 10.7812C7.34375 12.0625 7.5 13.25 8.03125 14.4375C8.59375 15.7188 10.125 17.7187 11.125 18.6875C11.4375 18.9687 11.75 19.2188 12.0625 19.5C12.4062 19.8125 12.7812 20.0313 13.1562 20.2813C14.625 21.25 17.4375 22.3125 19.1562 21.9688C20.25 21.75 21.5312 20.9688 22.0625 19.9688C22.3437 19.4375 22.5313 18.5 22.4688 17.875C22.375 16.8438 21.625 16.5937 20.8437 16.1875ZM20.9687 19.4062C20.6875 19.9687 19.7812 20.5938 18.9375 20.75C17.5312 21.0313 14.9687 20 13.8437 19.25C13.5 19 13.2188 18.8438 12.875 18.5625C12.5313 18.2813 12.2813 18.0625 12 17.7813C11.125 16.9375 9.65625 15 9.1875 13.9375C8.8125 13.0625 8.59375 12.1562 8.90625 11.125C9.125 10.375 9.75 9.46875 10.375 9.28125C10.5938 9.1875 10.9375 9.21875 11.2188 9.21875C11.9063 9.21875 11.9375 9.78125 12.3125 10.625C12.4688 11.0312 12.625 11.4062 12.7813 11.8125C13.0313 12.375 13.0625 12.4375 12.6875 12.9688C12 14 11.2187 13.5313 13.2187 15.9063C13.875 16.7188 15.1875 17.5 16.2188 17.9375C16.7813 18.1875 16.9687 17.7813 17.2187 17.4688C18.3125 16.1563 17.7187 16.0313 20.3125 17.3125C20.875 17.5938 21.2187 17.6563 21.2812 18.0313C21.2812 18.4063 21.125 19.125 20.9687 19.4062Z" fill="black"/>
</svg>
