<svg width="78" height="85" viewBox="0 0 78 85" fill="none" xmlns="http://www.w3.org/2000/svg">
<path d="M76.6604 6.54944C77.4047 6.54944 78.0001 7.14486 78.0001 7.88913C78.0001 8.63341 77.4047 9.22883 76.6604 9.22883C75.9162 9.22883 75.3207 8.63341 75.3207 7.88913C75.3207 7.14486 75.9162 6.54944 76.6604 6.54944Z" fill="#030303"/>
<path d="M71.0035 74.4275C71.7478 74.4275 72.3432 75.0229 72.3432 75.7672C72.3432 76.5115 71.7478 77.1069 71.0035 77.1069C70.2592 77.1069 69.6638 76.5115 69.6638 75.7672C69.6638 75.0229 70.2592 74.4275 71.0035 74.4275Z" fill="#030303"/>
<path d="M54.9275 45.5498C55.6717 45.5498 56.2672 46.1452 56.2672 46.8895C56.2672 47.6338 55.6717 48.2292 54.9275 48.2292C54.1832 48.2292 53.5878 47.6338 53.5878 46.8895C53.5878 46.1452 54.1832 45.5498 54.9275 45.5498Z" fill="#030303"/>
<path d="M45.6985 81.8702C46.4427 81.8702 47.0382 82.4657 47.0382 83.2099C47.0382 83.9542 46.4427 84.5496 45.6985 84.5496C44.9542 84.5496 44.3588 83.9542 44.3588 83.2099C44.2099 82.4657 44.8053 81.8702 45.6985 81.8702Z" fill="#030303"/>
<path d="M17.2675 46.5917C18.0117 46.5917 18.6072 47.1871 18.6072 47.9314C18.6072 48.6756 18.0117 49.2711 17.2675 49.2711C16.5232 49.2711 15.9278 48.6756 15.9278 47.9314C15.9278 47.1871 16.5232 46.5917 17.2675 46.5917Z" fill="#030303"/>
<path d="M15.4809 76.3627C16.2252 76.3627 16.8206 76.9581 16.8206 77.7024C16.8206 78.4466 16.2252 79.0421 15.4809 79.0421C14.7366 79.0421 14.1412 78.4466 14.1412 77.7024C14.1412 76.9581 14.7366 76.3627 15.4809 76.3627Z" fill="#030303"/>
<path d="M7.14475 5.65662C7.88903 5.65662 8.48445 6.25204 8.48445 6.99631C8.48445 7.74059 7.88903 8.33601 7.14475 8.33601C6.40048 8.33601 5.6562 7.74059 5.6562 6.99631C5.6562 6.25204 6.40048 5.65662 7.14475 5.65662Z" fill="#030303"/>
<path d="M39.4467 0C18.1605 0 0.89328 17.1183 0.89328 38.1069V38.2557C0.89328 38.4046 0.89328 38.5534 0.89328 38.5534C0.89328 39 1.33984 39.4466 1.78641 39.4466C2.23297 39.4466 2.67954 39 2.67954 38.5534C2.67954 38.4046 2.67954 38.2557 2.67954 38.1069C2.82839 35.874 4.61465 34.2366 6.99633 34.2366C9.37801 34.2366 11.1643 36.1718 11.1643 38.4046C11.1643 38.8511 11.6108 39.2977 12.0574 39.2977C12.504 39.2977 12.9505 38.8511 12.9505 38.4046C12.9505 36.0229 14.7368 34.2366 17.1185 34.2366C19.5001 34.2366 21.2864 36.1718 21.2864 38.4046C21.2864 38.8511 21.733 39.2977 22.1795 39.2977C22.6261 39.2977 23.0727 38.8511 23.0727 38.4046C23.0727 38.2557 23.0727 38.1069 23.0727 37.958C23.2215 35.7252 25.0078 34.0878 27.2406 34.0878C29.3246 34.0878 31.1108 35.7252 31.4085 37.8092C31.4085 37.958 31.4085 37.958 31.4085 38.1069C31.4085 38.2557 31.4085 38.2557 31.4085 38.7023C31.4085 39.1489 31.8551 39.5954 32.3017 39.5954C32.7482 39.5954 33.1948 39.1489 33.1948 38.7023C33.1948 38.5534 33.1948 38.2557 33.1948 37.2137C33.4925 34.6832 35.4276 32.7481 37.8093 32.3015V50.0153C30.3666 50.4618 24.7101 56.5649 24.7101 63.8588C24.7101 71.5992 30.962 77.8511 38.7024 77.8511C46.5918 77.8511 52.8437 71.5992 52.8437 63.8588C52.8437 56.5649 47.0383 50.4618 39.7444 50.0153V32.5992C42.4238 33.0458 44.3589 35.2786 44.3589 38.1069C44.3589 38.5534 44.8055 39 45.2521 39C45.6986 39 46.1452 38.5534 46.1452 38.1069C46.1452 35.7252 48.0803 33.9389 50.3131 33.9389C52.546 33.9389 54.4811 35.874 54.4811 38.1069C54.4811 38.5534 54.9276 39 55.3742 39C55.8208 39 56.2673 38.5534 56.2673 38.1069C56.2673 35.7252 58.2024 33.9389 60.4353 33.9389C62.6681 33.9389 64.6032 35.874 64.6032 38.1069C64.6032 38.5534 65.0498 39 65.4963 39C65.9429 39 66.3895 38.5534 66.3895 38.1069C66.3895 35.7252 68.3246 33.9389 70.5574 33.9389C72.7902 33.9389 74.7253 35.874 74.7253 38.1069C74.7253 38.5534 75.1719 39 75.6185 39C76.065 39 76.5116 38.5534 76.5116 38.1069C78.0002 17.1183 60.733 0 39.4467 0ZM2.97725 33.9389C4.4658 20.2443 13.9925 8.78244 26.6452 4.01908C19.0536 9.22901 12.504 19.7977 11.462 34.2366C9.0803 32.0038 5.35893 31.855 2.97725 33.9389ZM13.2482 34.0878C14.4391 19.2023 22.1795 7.14504 32.1528 3.12595C26.4963 8.63359 22.3284 20.2443 21.733 34.2366C19.3513 32.0038 15.6299 31.855 13.2482 34.0878ZM23.6681 34.0878C24.1147 25.9008 25.7521 18.1603 28.4314 12.2061C30.6643 7.14504 33.6414 3.72137 36.7673 2.38168C35.5765 4.91221 34.6834 8.78244 34.2368 11.4618C33.046 17.8626 32.3017 25.7519 32.1528 34.2366C29.6223 32.0038 25.9009 32.0038 23.6681 34.0878ZM39.4467 55.8206C44.0612 55.8206 47.9314 59.542 47.9314 64.1565C47.9314 68.771 44.2101 72.4924 39.4467 72.4924C34.8322 72.4924 30.962 68.771 30.962 64.1565C30.962 59.542 34.8322 55.8206 39.4467 55.8206ZM51.6528 64.1565C51.6528 70.855 46.294 76.2137 39.4467 76.2137C32.5994 76.2137 27.2406 70.855 27.2406 64.1565C27.2406 57.7557 32.1528 52.5458 38.5536 52.0992V54.0343C33.3437 54.4809 29.1757 58.7977 29.1757 64.1565C29.1757 69.813 33.7902 74.4275 39.4467 74.4275C45.1032 74.4275 49.8666 69.813 49.8666 64.1565C49.8666 58.7977 45.8475 54.4809 40.4887 54.0343V52.0992C46.7406 52.6947 51.6528 57.9046 51.6528 64.1565ZM33.9391 33.0458C34.2368 25.4542 34.8322 18.1603 35.8742 12.2061C37.3627 4.01908 39.0001 1.93511 39.4467 1.78626C39.7444 1.78626 41.5307 3.57252 43.0192 12.0573C44.0612 18.0114 44.8055 25.3053 44.9543 33.1947C41.9772 29.9198 36.9162 29.9198 33.9391 33.0458ZM47.0383 33.7901C46.8895 25.6031 46.1452 17.8626 44.8055 11.6107C44.3589 8.78244 43.4658 4.91221 42.275 2.38168C45.2521 3.72137 48.0803 7.14504 50.6108 12.0573C53.2902 18.0114 54.9276 25.4542 55.3742 33.4924C52.9925 31.4084 49.2711 31.5573 47.0383 33.7901ZM57.1605 33.7901C56.4162 20.0954 52.3971 8.48473 46.5918 3.12595C56.565 6.99618 64.3055 18.9046 65.6452 33.4924C63.2635 31.4084 59.5421 31.5573 57.1605 33.7901ZM67.5803 33.9389C66.3895 19.6489 59.691 9.22901 52.3971 4.16794C64.9009 8.78244 74.1299 19.9466 75.9162 33.4924C73.5345 31.4084 69.6643 31.5573 67.5803 33.9389Z" fill="#030303"/>
<path d="M70.4084 45.5498C67.2824 45.5498 64.7519 48.0803 64.7519 51.2063C64.7519 54.3322 67.2824 56.8628 70.4084 56.8628C73.5343 56.8628 76.0649 54.3322 76.0649 51.2063C76.2137 48.0803 73.6832 45.5498 70.4084 45.5498ZM70.4084 54.7788C68.3244 54.7788 66.687 53.1414 66.687 51.0574C66.687 48.9735 68.3244 47.3361 70.4084 47.3361C72.4923 47.3361 74.1298 48.9735 74.1298 51.0574C74.2786 53.1414 72.6412 54.7788 70.4084 54.7788Z" fill="#030303"/>
<path d="M7.5916 55.8206C3.42366 55.8206 0 59.0954 0 63.2633C0 67.4312 3.27481 70.7061 7.5916 70.7061C11.7595 70.7061 15.1832 67.4312 15.1832 63.2633C15.0344 59.0954 11.6107 55.8206 7.5916 55.8206ZM7.5916 68.7709C4.46565 68.7709 1.93511 66.2404 1.93511 63.1145C1.93511 59.9885 4.46565 57.458 7.5916 57.458C10.7176 57.458 13.2481 59.9885 13.2481 63.1145C13.2481 66.2404 10.5687 68.7709 7.5916 68.7709Z" fill="#030303"/>
</svg>
