<svg width="89" height="82" viewBox="0 0 89 82" fill="none" xmlns="http://www.w3.org/2000/svg">
<path d="M43.8968 44.5591C43.786 44.5591 43.6751 44.5591 43.5643 44.4482L0.443402 22.9432C0.110851 22.8324 0 22.6107 0 22.2781C0 22.0564 0.110851 21.7239 0.443402 21.613L43.5643 0.10804C43.786 -0.00281029 44.0077 -0.00281029 44.2294 0.10804L87.3503 21.7239C87.572 21.8347 87.7937 22.0564 87.7937 22.389C87.7937 22.6107 87.6828 22.9432 87.3503 23.0541L44.2294 44.5591C44.1185 44.5591 44.0077 44.5591 43.8968 44.5591ZM2.32786 22.2781L43.8968 43.0072L85.4658 22.2781L43.8968 1.5491L2.32786 22.2781Z" fill="black"/>
<path d="M43.8968 63.1814C43.786 63.1814 43.6751 63.1814 43.5643 63.0705L0.443402 41.5655C0.110851 41.4546 0 41.1221 0 40.9004C0 40.6787 0.110851 40.3461 0.443402 40.2353L19.0663 30.9238C19.288 30.813 19.5097 30.813 19.7314 30.9238L44.0077 43.0065L68.284 30.9238C68.5057 30.813 68.7274 30.813 68.9491 30.9238L87.572 40.2353C87.7937 40.3461 88.0154 40.5678 88.0154 40.9004C88.0154 41.2329 87.9045 41.4546 87.572 41.5655L44.2294 63.0705C44.1185 63.1814 44.0077 63.1814 43.8968 63.1814ZM2.32786 40.9004L43.8968 61.6294L85.4658 40.9004L68.5057 32.3649L44.2294 44.5585C44.0077 44.6693 43.786 44.6693 43.5643 44.5585L19.288 32.3649L2.32786 40.9004Z" fill="black"/>
<path d="M43.8968 81.8048C43.786 81.8048 43.6751 81.8048 43.5643 81.694L0.443402 60.189C0.110851 59.9673 0 59.7456 0 59.5239C0 59.3022 0.110851 58.9696 0.443402 58.8588L19.0663 49.5473C19.288 49.4365 19.5097 49.4365 19.7314 49.5473L44.0077 61.63L68.284 49.5473C68.5057 49.4365 68.7274 49.4365 68.9491 49.5473L87.572 58.8588C87.7937 58.9696 88.0154 59.1913 88.0154 59.5239C88.0154 59.7456 87.9045 60.0781 87.572 60.189L44.2294 81.694C44.1185 81.8048 44.0077 81.8048 43.8968 81.8048ZM2.32786 59.5239L43.8968 80.2529L85.4658 59.5239L68.3948 50.9884L44.2294 63.0711C44.0077 63.1819 43.786 63.1819 43.5643 63.0711L19.288 50.9884L2.32786 59.5239Z" fill="black"/>
<path d="M11.8613 28.2644C11.6396 28.2644 11.307 28.1535 11.1962 27.9318C10.9745 27.5993 11.1962 27.1559 11.5287 26.9342L52.9868 4.76405C53.3194 4.54235 53.7628 4.76405 53.9845 5.0966C54.2062 5.42915 53.9845 5.87255 53.6519 6.09425L12.1938 28.2644C12.083 28.2644 11.9721 28.2644 11.8613 28.2644Z" fill="black"/>
<path d="M22.2812 33.6963C22.0595 33.6963 21.7269 33.5855 21.6161 33.2529C21.3944 32.9204 21.6161 32.477 21.9486 32.2553L63.8502 10.5286C64.1827 10.3069 64.6261 10.5286 64.8478 10.8611C65.0695 11.1937 64.8478 11.6371 64.5153 11.8588L22.6138 33.6963C22.5029 33.6963 22.3921 33.6963 22.2812 33.6963Z" fill="black"/>
<path d="M32.812 38.5738C32.5903 38.5738 32.2577 38.4629 32.1469 38.1304C31.9252 37.7978 32.1469 37.3544 32.4794 37.1327L75.1569 15.7385C75.4894 15.5168 75.9328 15.7385 76.1545 16.0711C76.3762 16.4036 76.1545 16.847 75.822 17.0687L33.1445 38.5738C33.0337 38.5738 32.9228 38.5738 32.812 38.5738Z" fill="black"/>
</svg>
