<svg width="20" height="33" viewBox="0 0 20 33" fill="none" xmlns="http://www.w3.org/2000/svg">
<path d="M16.4139 5.89896H19.6216V0.00363068H13.7927C13.3067 -0.0169413 7.37926 -0.131004 5.84277 5.76704C5.82038 5.82903 5.32968 7.23132 5.32968 10.508L0 10.5239V16.7073L5.33662 16.6914V33H13.4881V16.7054H18.8834V10.506H13.4881V8.5554C13.4881 7.34335 13.9955 5.89896 16.4139 5.89896ZM17.5346 11.8639V15.3475H12.1393V31.6421H6.68544V15.3296L1.34881 15.3455V11.8778L6.69926 11.8619L6.68544 11.1714C6.61564 7.70074 7.10694 6.24074 7.12899 6.17115C8.45474 1.09103 13.5174 1.34692 13.7347 1.36016L18.2728 1.36152V4.54108H16.4139C13.2622 4.54108 12.1393 6.6147 12.1393 8.5554V11.8639H17.5346Z" fill="black"/>
</svg>
