<svg width="79" height="79" viewBox="0 0 79 79" fill="none" xmlns="http://www.w3.org/2000/svg">
<path d="M75.8863 51.1921C76.5799 51.1921 77.1349 51.7471 77.1349 52.4407C77.1349 53.1344 76.5799 53.6893 75.8863 53.6893C75.1926 53.6893 74.6377 53.1344 74.6377 52.4407C74.6377 51.7471 75.1926 51.1921 75.8863 51.1921Z" fill="#030303"/>
<path d="M73.2497 17.4808C73.9433 17.4808 74.4983 18.0358 74.4983 18.7294C74.4983 19.4231 73.9433 19.978 73.2497 19.978C72.556 19.978 72.0011 19.4231 72.0011 18.7294C72.0011 18.0358 72.556 17.4808 73.2497 17.4808Z" fill="#030303"/>
<path d="M59.1011 69.5054C59.7948 69.5054 60.3497 70.0603 60.3497 70.754C60.3497 71.4476 59.7948 72.0026 59.1011 72.0026C58.4075 72.0026 57.8525 71.4476 57.8525 70.754C57.8525 70.0603 58.4075 69.5054 59.1011 69.5054Z" fill="#030303"/>
<path d="M25.8043 72.9731C26.4979 72.9731 27.0528 73.5281 27.0528 74.2217C27.0528 74.9154 26.4979 75.4703 25.8043 75.4703C25.1106 75.4703 24.5557 74.9154 24.5557 74.2217C24.5557 73.5281 25.1106 72.9731 25.8043 72.9731Z" fill="#030303"/>
<path d="M8.32379 52.1628C9.01745 52.1628 9.57238 52.7178 9.57238 53.4114C9.57238 54.1051 9.01745 54.66 8.32379 54.66C7.63012 54.66 7.0752 54.1051 7.0752 53.4114C7.0752 52.7178 7.63012 52.1628 8.32379 52.1628Z" fill="#030303"/>
<path d="M6.65903 5.27173C7.35269 5.27173 7.90762 5.82666 7.90762 6.52032C7.90762 7.21398 7.35269 7.76891 6.65903 7.76891C5.96536 7.76891 5.41043 7.21398 5.41043 6.52032C5.2717 5.82666 5.96536 5.27173 6.65903 5.27173Z" fill="#030303"/>
<path d="M1.24859 30.3818C1.94225 30.3818 2.49718 30.9368 2.49718 31.6304C2.49718 32.3241 1.94225 32.879 1.24859 32.879C0.554929 32.879 0 32.3241 0 31.6304C0 30.9368 0.554929 30.3818 1.24859 30.3818Z" fill="#030303"/>
<path d="M38.5669 0C20.6705 0 6.24231 14.4282 6.24231 32.0472C6.24231 38.9838 8.46203 45.643 12.7627 51.331C16.786 56.6028 22.474 60.6261 28.7169 62.707L37.8733 78.3838C38.1507 78.9387 38.9831 78.9387 39.3993 78.3838L48.5557 62.707C54.9374 60.6261 60.6254 56.7416 64.5099 51.331C68.6719 45.7817 71.0303 39.1225 71.0303 32.0472C71.0303 14.4282 56.4634 0 38.5669 0ZM47.7233 61.0423C47.4458 61.0423 47.3071 61.181 47.1683 61.4585L38.5669 76.1641L29.9655 61.4585C29.8268 61.3197 29.6881 61.181 29.4106 61.0423C16.5085 57.1577 7.9071 45.5042 7.9071 32.0472C7.9071 15.2606 21.6416 1.66479 38.5669 1.66479C55.631 1.66479 69.3655 15.2606 69.3655 32.0472C69.3655 45.5042 60.6254 57.1577 47.7233 61.0423Z" fill="#030303"/>
<path d="M61.8756 31.7694C61.8756 25.8039 59.6559 20.1159 55.3552 15.8152C50.9157 11.2371 44.9502 8.73987 38.5686 8.73987H38.4298C25.5277 8.8786 15.2615 19.2835 15.2615 31.7694C15.2615 44.3941 25.6665 54.799 38.5686 54.799C51.6094 54.799 61.8756 44.3941 61.8756 31.7694ZM54.8002 45.7814C53.2742 44.3941 51.7481 43.1455 49.9446 42.1744C50.777 39.261 51.1932 35.9314 51.3319 32.6018H60.3495C59.9333 37.4575 58.1298 42.1744 54.8002 45.7814ZM16.9263 32.6018H25.9439C25.9439 35.9314 26.4989 39.261 27.3312 42.1744C25.5277 43.1455 23.8629 44.3941 22.4756 45.7814C19.146 42.1744 17.2038 37.4575 16.9263 32.6018ZM22.3369 17.6187C23.8629 19.0061 25.389 20.2547 27.1925 21.2258C26.3601 24.1392 25.9439 27.4687 25.8052 30.7983H16.7876C17.2038 25.9427 19.146 21.3645 22.3369 17.6187ZM60.0721 30.937H51.0545C51.0545 27.6075 50.4995 24.2779 49.6671 21.3645C51.4707 20.3934 53.1355 19.1448 54.5228 17.7575C58.1298 21.3645 59.9333 25.9427 60.0721 30.937ZM39.401 10.5434C42.7305 11.0983 45.9214 14.8441 47.7249 20.3934C45.089 21.642 42.4531 22.3356 39.401 22.3356V10.5434ZM37.7362 10.5434V22.4744C34.8228 22.3356 32.0481 21.642 29.4122 20.5321C31.3545 14.7054 34.4066 11.0983 37.7362 10.5434ZM28.8573 22.0582C31.6319 23.3068 34.5453 24.0004 37.7362 24.1392V30.937H27.7474C27.7474 27.7462 28.1636 24.8328 28.8573 22.0582ZM37.7362 32.6018V39.3997C34.6841 39.5385 31.7707 40.2321 28.8573 41.4807C28.1636 38.7061 27.7474 35.7927 27.7474 32.7406H37.7362V32.6018ZM37.7362 41.0645V52.9955C34.4066 52.4406 31.2158 48.6948 29.4122 43.1455C32.0481 41.8969 34.8228 41.2032 37.7362 41.0645ZM39.401 52.9955V41.0645C42.3143 41.2032 45.089 41.8969 47.7249 43.0068C45.9214 48.6948 42.8693 52.4406 39.401 52.9955ZM48.2798 41.342C45.5052 40.0934 42.5918 39.3997 39.401 39.261V32.4631H49.3897C49.3897 35.6539 48.9735 38.7061 48.2798 41.342ZM39.401 30.937V24.1392C42.4531 24.0004 45.3664 23.3068 48.2798 22.0582C48.9735 24.8328 49.3897 27.7462 49.3897 30.7983H39.401V30.937ZM49.3897 19.561C48.1411 15.954 46.4763 13.0406 44.534 11.2371C47.8636 12.2082 51.1932 14.0117 53.6904 16.5089C52.3031 17.6187 50.777 18.7286 49.3897 19.561ZM27.7474 19.561C26.2214 18.7286 24.8341 17.6187 23.5855 16.3701C26.2214 13.873 29.2735 12.0694 32.7418 11.0983C30.7996 13.0406 28.996 15.954 27.7474 19.561ZM27.7474 43.8392C28.996 47.4462 30.6608 50.3596 32.6031 52.1631C29.2735 51.192 25.9439 49.3885 23.4467 46.8913C24.8341 45.7814 26.2214 44.8103 27.7474 43.8392ZM49.3897 43.8392C50.9157 44.6716 52.3031 45.7814 53.5516 47.03C50.9157 49.5272 47.8636 51.3307 44.3953 52.3018C46.4763 50.3596 48.1411 47.5849 49.3897 43.8392Z" fill="#030303"/>
<path d="M72.8343 13.0407C75.7477 13.0407 78.1062 10.6822 78.1062 7.76884C78.1062 4.85546 75.609 2.63574 72.8343 2.63574C70.0597 2.63574 67.5625 4.99419 67.5625 7.90757C67.5625 10.821 69.9209 13.0407 72.8343 13.0407ZM72.8343 4.30053C74.7766 4.30053 76.3026 5.82659 76.3026 7.76884C76.3026 9.71109 74.7766 11.2371 72.8343 11.2371C70.8921 11.2371 69.366 9.71109 69.366 7.76884C69.366 5.82659 70.8921 4.30053 72.8343 4.30053Z" fill="#030303"/>
<path d="M10.5432 61.5974C6.65868 61.5974 3.46783 64.6495 3.46783 68.534C3.46783 72.4185 6.51995 75.4706 10.5432 75.4706C14.4277 75.4706 17.6185 72.4185 17.6185 68.534C17.4798 64.6495 14.289 61.5974 10.5432 61.5974ZM10.5432 73.6671C7.62981 73.6671 5.27135 71.3087 5.27135 68.3953C5.27135 65.4819 7.62981 63.1235 10.5432 63.1235C13.4566 63.1235 15.815 65.4819 15.815 68.3953C15.815 71.3087 13.4566 73.6671 10.5432 73.6671Z" fill="#030303"/>
</svg>
