<svg width="88" height="86" viewBox="0 0 88 86" fill="none" xmlns="http://www.w3.org/2000/svg">
<path d="M80.5764 18.1538C81.3497 18.1538 81.9684 18.7692 81.9684 19.5384C81.9684 20.3077 81.3497 20.923 80.5764 20.923C79.8032 20.923 79.1845 20.3077 79.1845 19.5384C79.1845 18.7692 79.8032 18.1538 80.5764 18.1538Z" fill="#030303"/>
<path d="M75.7821 56.1538C76.5554 56.1538 77.174 56.7692 77.174 57.5384C77.174 58.3077 76.5554 58.923 75.7821 58.923C75.0088 58.923 74.3902 58.3077 74.3902 57.5384C74.3902 56.7692 75.0088 56.1538 75.7821 56.1538Z" fill="#030303"/>
<path d="M66.0387 79.2307C66.8119 79.2307 67.4306 79.8461 67.4306 80.6153C67.4306 81.3846 66.8119 81.9999 66.0387 81.9999C65.2654 81.9999 64.6467 81.3846 64.6467 80.6153C64.6467 79.8461 65.2654 79.2307 66.0387 79.2307Z" fill="#030303"/>
<path d="M64.0281 0C64.8014 0 65.42 0.615385 65.42 1.38462C65.42 2.15385 64.8014 2.76923 64.0281 2.76923C63.2548 2.76923 62.6362 2.15385 62.6362 1.38462C62.6362 0.615385 63.2548 0 64.0281 0Z" fill="#030303"/>
<path d="M19.0228 76.9231C19.7961 76.9231 20.4148 77.5385 20.4148 78.3077C20.4148 79.0769 19.7961 79.6923 19.0228 79.6923C18.2496 79.6923 17.6309 79.0769 17.6309 78.3077C17.6309 77.5385 18.2496 76.9231 19.0228 76.9231Z" fill="#030303"/>
<path d="M7.42355 5.69226C8.19684 5.69226 8.81546 6.30765 8.81546 7.07688C8.81546 7.84611 8.19684 8.46149 7.42355 8.46149C6.65026 8.46149 5.87698 7.84611 5.87698 7.07688C5.87698 6.30765 6.65026 5.69226 7.42355 5.69226Z" fill="#030303"/>
<path d="M1.39192 45.0769C2.1652 45.0769 2.78383 45.6923 2.78383 46.4615C2.78383 47.2308 2.1652 47.8461 1.39192 47.8461C0.618629 47.8461 0 47.2308 0 46.4615C0 45.6923 0.618629 45.0769 1.39192 45.0769Z" fill="#030303"/>
<path d="M7.88752 59.0769C4.17574 59.0769 0.92794 62.1538 0.92794 65.8461C0.92794 69.5384 4.02109 72.6154 7.88752 72.6154C11.5993 72.6154 14.8471 69.5384 14.8471 65.8461C14.6924 62.1538 11.5993 59.0769 7.88752 59.0769ZM7.88752 70.6154C5.25834 70.6154 3.09314 68.4615 3.09314 65.8461C3.09314 63.2307 5.25834 61.0769 7.88752 61.0769C10.5167 61.0769 12.6819 63.2307 12.6819 65.8461C12.6819 68.4615 10.5167 70.6154 7.88752 70.6154Z" fill="#030303"/>
<path d="M75.3181 68.6154C72.6889 68.6154 70.5237 70.7692 70.5237 73.3846C70.5237 76 72.6889 78.1538 75.3181 78.1538C77.9473 78.1538 80.1125 76 80.1125 73.3846C80.1125 70.7692 77.9473 68.6154 75.3181 68.6154ZM75.3181 76.3077C73.7715 76.3077 72.3796 75.0769 72.3796 73.3846C72.3796 71.8461 73.6169 70.4615 75.3181 70.4615C76.8647 70.4615 78.2566 71.6923 78.2566 73.3846C78.2566 75.0769 76.8647 76.3077 75.3181 76.3077Z" fill="#030303"/>
<path d="M85.2162 35.5384L87.8453 31.2307C88 30.923 88 30.6153 87.8453 30.3077C87.6907 30 87.3814 29.8461 87.0721 29.8461H78.2566C77.9473 29.8461 77.638 30 77.4833 30.3077L74.5448 34.4615H71.6063C71.6063 34.3077 71.6063 34.3077 71.6063 34.1538C71.6063 16.6153 57.0685 2.15381 39.1283 2.15381C21.3427 2.15381 6.65026 16.4615 6.65026 34.1538C6.65026 47.2307 15.0018 59.2307 27.529 63.8461V66.7692C25.8278 67.2307 24.5905 68.7692 24.5905 70.4615C24.5905 71.5384 25.0545 72.6153 25.9824 73.3846L25.8278 73.5384C25.0545 74.3077 24.7452 75.2307 24.7452 76.3076C24.7452 78.4615 26.4464 80.1538 28.6116 80.1538H30.6221C31.0861 83.3846 33.8699 86 37.2724 86H41.1388C44.5413 86 47.3251 83.5384 47.9438 80.1538H49.9543C51.0369 80.1538 51.9648 79.6923 52.7381 79.0769C54.2847 77.5384 54.2847 74.923 52.5835 73.5384L52.7381 73.3846C53.5114 72.6153 53.8207 71.6923 53.8207 70.6153C53.8207 68.7692 52.5835 67.3846 50.8823 66.923V64C56.6046 61.8461 61.5536 58.1538 65.2654 53.2307C68.9772 48.3077 71.1424 42.4615 71.4517 36.4615H74.3902L77.0193 40.7692C77.174 41.0769 77.4833 41.2307 77.7926 41.2307H86.9174C87.2267 41.2307 87.536 41.0769 87.6907 40.7692C87.8453 40.4615 87.8453 40.1538 87.6907 39.8461L85.2162 35.5384ZM78.7206 31.6923H85.2162L83.5149 34.4615H77.0193L78.7206 31.6923ZM41.2935 84H37.4271C35.1072 84 33.0967 82.3076 32.6327 80.1538H46.0879C45.4692 82.3076 43.6134 84 41.2935 84ZM51.9648 76.3076C51.9648 77.3846 51.0369 78.3077 49.9543 78.3077C47.3251 78.3077 31.8594 78.3077 28.3023 78.3077C27.2197 78.3077 26.2917 77.3846 26.2917 76.3076C26.2917 75.2307 27.2197 74.3077 28.3023 74.3077H49.9543C51.1916 74.4615 51.9648 75.2307 51.9648 76.3076ZM51.9648 70.6153C51.9648 71.6923 51.0369 72.6153 49.9543 72.6153H28.4569C27.3743 72.6153 26.4464 71.6923 26.4464 70.6153C26.4464 69.5384 27.3743 68.6153 28.4569 68.6153H50.109C51.1916 68.6153 51.9648 69.5384 51.9648 70.6153ZM49.7996 62.4615C49.4903 62.6153 49.181 62.923 49.181 63.3846V66.7692H29.5395V63.3846C29.5395 62.923 29.2302 62.6153 28.9209 62.4615C16.8576 58.1538 8.81546 46.7692 8.81546 34.1538C8.81546 17.5384 22.4253 4.15381 39.2829 4.15381C56.1406 4.15381 69.7504 17.6923 69.7504 34.1538C69.7504 34.3077 69.7504 34.3077 69.7504 34.4615H61.8629C61.3989 22.7692 51.5009 13.2307 39.2829 13.2307C26.9104 13.2307 16.703 23.2307 16.703 35.3846C16.703 47.5384 26.9104 57.5384 39.2829 57.5384C51.3462 57.5384 61.2443 48.1538 61.8629 36.3077H69.9051C68.8225 48.1538 61.0896 58.3077 49.7996 62.4615ZM55.8313 34.4615C55.3673 25.8461 47.9438 19.0769 39.2829 19.0769C30.0035 19.0769 22.7346 26.4615 22.7346 35.3846C22.7346 44.3077 30.3128 51.6923 39.2829 51.6923C48.2531 51.6923 55.3673 44.923 55.8313 36.3077H59.6977C59.2337 47.0769 50.109 55.5384 39.1283 55.5384C27.8383 55.5384 18.5589 46.4615 18.5589 35.3846C18.5589 24.3077 27.8383 15.2307 39.1283 15.2307C50.109 15.2307 59.0791 23.8461 59.6977 34.4615H55.8313ZM50.109 34.4615C49.645 29.0769 45.0053 24.7692 39.2829 24.7692C33.406 24.7692 28.4569 29.5384 28.4569 35.3846C28.4569 41.2307 33.2513 46 39.2829 46C44.8506 46 49.4903 41.6923 50.109 36.3077H53.9754C53.5114 43.8461 47.0158 49.8461 39.2829 49.8461C31.0861 49.8461 24.5905 43.3846 24.5905 35.3846C24.5905 27.3846 31.0861 20.923 39.2829 20.923C47.1705 20.923 53.3568 26.923 53.9754 34.4615H50.109ZM40.2109 36.4615H48.0984C47.6344 40.7692 43.9227 44.1538 39.2829 44.1538C34.4886 44.1538 30.4675 40.3077 30.4675 35.5384C30.4675 30.7692 34.3339 26.923 39.2829 26.923C43.768 26.923 47.6344 30.3077 48.0984 34.6153H40.2109C39.7469 34.6153 39.2829 35.0769 39.2829 35.5384C39.2829 36 39.7469 36.4615 40.2109 36.4615ZM78.7206 39.3846L77.0193 36.4615H83.5149L85.2162 39.3846H78.7206Z" fill="#030303"/>
</svg>
