<svg width="222" height="42" viewBox="0 0 222 42" fill="none" xmlns="http://www.w3.org/2000/svg">
<g opacity="0.9" clip-path="url(#clip0_1_74)">
<path d="M127.553 39.7373L144.559 1.4097C144.819 0.818594 144.505 0.326416 143.846 0.326416H131.94C131.29 0.326416 130.547 0.818594 130.285 1.41702L113.495 39.7348C113.246 40.3235 113.561 40.8157 114.207 40.8157H125.892C126.542 40.8157 127.298 40.3284 127.553 39.7373Z" fill="black"/>
<path d="M188.526 29.4162L214.907 0.341064H184.05L177.07 11.5427H189.172L162.354 40.8242H195.015L207.177 29.4162H188.526Z" fill="black"/>
<path d="M69.6109 11.9152L67.0941 17.439C66.5152 18.7702 65.6664 18.8655 64.8312 18.835H59.1389L62.9472 10.2408H68.4065C69.7323 10.3067 70.077 10.794 69.6109 11.9152ZM75.573 0.341039H55.1478C54.0182 0.341039 52.7082 1.18983 52.2532 2.23037L36.1772 38.9336C35.7173 39.9705 36.2766 40.8242 37.4172 40.8242H47.5446C48.6914 40.8242 49.9915 39.9705 50.4465 38.9385L55.0276 28.5405H59.7853C61.2644 28.4501 61.9047 28.9814 61.0854 30.701L57.553 38.9263C57.1065 39.9705 57.6732 40.8242 58.8114 40.8242H68.9449C70.077 40.8242 71.3808 39.9705 71.8358 38.9263L76.4389 28.3353C77.8862 24.8962 75.7901 22.2338 72.7581 22.086C75.454 21.1297 77.9218 18.4576 79.0306 16.0553L81.4112 10.4667C84.2874 3.98169 82.2416 0.255549 75.573 0.341039Z" fill="black"/>
<path d="M108.625 12.1106L107.602 14.4383L107.451 14.7412C106.974 15.8978 106.075 16.3325 105.077 16.3008H99.192L101.888 10.1443H107.867C108.953 10.2115 109.123 10.9076 108.625 12.1106ZM104.736 25.6754L103.262 28.6138C102.52 30.6607 101.241 31.2139 99.4336 31.2457H92.6571L95.9 23.6261H102.676C104.592 23.7653 105.344 24.233 104.736 25.6754ZM115.345 0.326381H93.691C92.8803 0.326381 91.9469 0.939466 91.6256 1.67712L75.0725 39.46C74.7523 40.2074 75.1473 40.8059 75.9629 40.8059H99.1355C106.485 40.7033 110.695 39.0765 114.054 31.3311L116.433 26.1712C118.313 21.7489 116.471 19.8389 112.969 19.2758C115.89 18.3819 118.078 15.6474 119.024 13.2451L120.966 9.15261C123.345 3.67881 121.355 0.248219 115.345 0.326381Z" fill="black"/>
<path d="M148.307 0.341064L143.266 11.5427H150.451C150.941 11.5427 151.171 11.8956 150.972 12.3438L138.427 40.0182C138.218 40.4627 138.46 40.8242 138.945 40.8242H151.739C152.231 40.8242 152.781 40.4627 152.987 40.0108L165.039 12.3512C165.238 11.9103 165.786 11.5427 166.278 11.5427H173.647L180.574 0.341064H148.307Z" fill="black"/>
<path d="M42.213 14.1207L43.7989 10.6718C47.0014 3.39176 44.882 0.260388 38.6046 0.340993H23.4755C17.2669 0.260388 12.0652 3.75448 9.19638 10.2444L4.51108 23.3805H0.115234L8.55737 34.7299L22.5115 23.3805H18.9619L23.061 13.9058C23.7196 12.3511 24.8676 11.6025 26.0929 11.5426H28.4748C29.0402 11.5707 29.4266 11.7454 29.6461 11.9859L37.0506 5.79403L42.213 14.1207Z" fill="black"/>
<path d="M8.23472 38.0628L2.02609 30.2368L1.70228 30.9208C-1.18494 37.4644 -0.705373 40.7203 5.52289 40.8242H20.4435C26.6178 40.7203 32.0231 37.4644 34.9348 30.9208L39.3515 20.7951H43.3328L36.5538 9.44324L22.715 20.7951H26.5172L23.7134 27.2569C23.0376 28.6284 22.011 29.3746 20.9047 29.4161H18.9287L8.23472 38.0628Z" fill="black"/>
<path d="M219.554 1.94704H219.777C220.046 1.94704 220.18 1.84446 220.18 1.63806C220.18 1.44021 220.053 1.34251 219.797 1.34251H219.554V1.94704ZM220.838 3.12803H220.366L219.809 2.28656H219.554V3.12803H219.138V0.996883H219.809C220.035 0.996883 220.22 1.05428 220.365 1.16786C220.511 1.28144 220.582 1.4341 220.582 1.62462C220.582 1.88964 220.446 2.0765 220.172 2.18519L220.838 3.12803ZM219.83 3.68982C220.279 3.68982 220.664 3.52983 220.982 3.21474C221.301 2.89842 221.461 2.51616 221.461 2.07039C221.461 1.62707 221.301 1.24725 220.982 0.930934C220.664 0.6134 220.279 0.455854 219.83 0.455854C219.385 0.455854 219.001 0.6134 218.685 0.930934C218.367 1.24725 218.209 1.62707 218.209 2.07039C218.209 2.5186 218.367 2.90087 218.682 3.21718C218.999 3.53227 219.383 3.68982 219.83 3.68982ZM219.83 0.107788C220.376 0.107788 220.842 0.29953 221.231 0.684234C221.617 1.07016 221.811 1.53181 221.811 2.07039C221.811 2.61631 221.617 3.08406 221.231 3.47121C220.842 3.85835 220.376 4.05132 219.83 4.05132C219.284 4.05132 218.817 3.85835 218.431 3.47121C218.043 3.08406 217.851 2.61631 217.851 2.07039C217.851 1.52692 218.043 1.06405 218.428 0.681792C218.815 0.298309 219.282 0.107788 219.83 0.107788Z" fill="black"/>
</g>
<defs>
<clipPath id="clip0_1_74">
<rect width="222" height="42" fill="white"/>
</clipPath>
</defs>
</svg>
