<svg width="222" height="42" viewBox="0 0 222 42" fill="none" xmlns="http://www.w3.org/2000/svg">
<g clip-path="url(#clip0_1_534)">
<path d="M127.553 39.7373L144.559 1.4097C144.819 0.818594 144.505 0.326416 143.846 0.326416H131.94C131.29 0.326416 130.547 0.818594 130.285 1.41702L113.495 39.7348C113.246 40.3235 113.561 40.8157 114.207 40.8157H125.892C126.542 40.8157 127.298 40.3284 127.553 39.7373Z" fill="#6D6D6D"/>
<path d="M188.526 29.4162L214.907 0.341064H184.05L177.07 11.5427H189.172L162.354 40.8242H195.015L207.177 29.4162H188.526Z" fill="#6D6D6D"/>
<path d="M69.6109 11.9154L67.0941 17.4393C66.5152 18.7705 65.6664 18.8657 64.8312 18.8352H59.1389L62.9472 10.241H68.4065C69.7323 10.307 70.077 10.7943 69.6109 11.9154ZM75.573 0.341283H55.1478C54.0182 0.341283 52.7082 1.19008 52.2532 2.23061L36.1772 38.9339C35.7173 39.9708 36.2766 40.8244 37.4172 40.8244H47.5446C48.6914 40.8244 49.9915 39.9708 50.4465 38.9388L55.0276 28.5407H59.7853C61.2644 28.4504 61.9047 28.9816 61.0854 30.7012L57.553 38.9266C57.1065 39.9708 57.6732 40.8244 58.8114 40.8244H68.9449C70.077 40.8244 71.3808 39.9708 71.8358 38.9266L76.4389 28.3356C77.8862 24.8964 75.7901 22.234 72.7581 22.0863C75.454 21.13 77.9218 18.4578 79.0306 16.0556L81.4112 10.467C84.2874 3.98193 82.2416 0.255793 75.573 0.341283Z" fill="#6D6D6D"/>
<path d="M108.625 12.1107L107.602 14.4385L107.451 14.7413C106.974 15.8979 106.075 16.3327 105.077 16.3009H99.192L101.888 10.1444H107.867C108.953 10.2116 109.123 10.9077 108.625 12.1107ZM104.736 25.6755L103.262 28.6139C102.52 30.6608 101.241 31.214 99.4336 31.2458H92.6571L95.9 23.6262H102.676C104.592 23.7654 105.344 24.2332 104.736 25.6755ZM115.345 0.326503H93.691C92.8803 0.326503 91.9469 0.939588 91.6256 1.67724L75.0725 39.4601C74.7523 40.2076 75.1473 40.806 75.9629 40.806H99.1355C106.485 40.7034 110.695 39.0767 114.054 31.3313L116.433 26.1713C118.313 21.7491 116.471 19.839 112.969 19.276C115.89 18.382 118.078 15.6475 119.024 13.2453L120.966 9.15273C123.345 3.67893 121.355 0.248341 115.345 0.326503Z" fill="#6D6D6D"/>
<path d="M148.307 0.341064L143.266 11.5427H150.451C150.941 11.5427 151.171 11.8956 150.972 12.3438L138.427 40.0182C138.218 40.4627 138.46 40.8242 138.945 40.8242H151.739C152.231 40.8242 152.781 40.4627 152.987 40.0108L165.039 12.3512C165.238 11.9103 165.786 11.5427 166.278 11.5427H173.647L180.574 0.341064H148.307Z" fill="#6D6D6D"/>
<path d="M42.213 14.1209L43.7989 10.672C47.0014 3.39188 44.882 0.26051 38.6046 0.341115H23.4755C17.2669 0.26051 12.0652 3.75461 9.19638 10.2445L4.51108 23.3807H0.115234L8.55737 34.7301L22.5115 23.3807H18.9619L23.061 13.9059C23.7196 12.3512 24.8676 11.6026 26.0929 11.5427H28.4748C29.0402 11.5708 29.4266 11.7455 29.6461 11.9861L37.0506 5.79415L42.213 14.1209Z" fill="#6D6D6D"/>
<path d="M8.23472 38.0629L2.02609 30.237L1.70228 30.9209C-1.18494 37.4645 -0.705373 40.7205 5.52289 40.8243H20.4435C26.6178 40.7205 32.0231 37.4645 34.9348 30.9209L39.3515 20.7952H43.3328L36.5538 9.44336L22.715 20.7952H26.5172L23.7134 27.257C23.0376 28.6285 22.011 29.3747 20.9047 29.4163H18.9287L8.23472 38.0629Z" fill="#6D6D6D"/>
<path d="M219.554 1.94717H219.777C220.046 1.94717 220.18 1.84458 220.18 1.63818C220.18 1.44033 220.053 1.34263 219.797 1.34263H219.554V1.94717ZM220.838 3.12815H220.366L219.809 2.28668H219.554V3.12815H219.138V0.997006H219.809C220.035 0.997006 220.22 1.05441 220.365 1.16799C220.511 1.28156 220.582 1.43423 220.582 1.62475C220.582 1.88976 220.446 2.07662 220.172 2.18532L220.838 3.12815ZM219.83 3.68994C220.279 3.68994 220.664 3.52995 220.982 3.21486C221.301 2.89855 221.461 2.51628 221.461 2.07051C221.461 1.62719 221.301 1.24737 220.982 0.931056C220.664 0.613522 220.279 0.455976 219.83 0.455976C219.385 0.455976 219.001 0.613522 218.685 0.931056C218.367 1.24737 218.209 1.62719 218.209 2.07051C218.209 2.51873 218.367 2.90099 218.682 3.2173C218.999 3.53239 219.383 3.68994 219.83 3.68994ZM219.83 0.10791C220.376 0.10791 220.842 0.299652 221.231 0.684357C221.617 1.07028 221.811 1.53193 221.811 2.07051C221.811 2.61643 221.617 3.08418 221.231 3.47133C220.842 3.85848 220.376 4.05144 219.83 4.05144C219.284 4.05144 218.817 3.85848 218.431 3.47133C218.043 3.08418 217.851 2.61643 217.851 2.07051C217.851 1.52704 218.043 1.06418 218.428 0.681914C218.815 0.298431 219.282 0.10791 219.83 0.10791Z" fill="#6D6D6D"/>
</g>
<defs>
<clipPath id="clip0_1_534">
<rect width="222" height="42" fill="white"/>
</clipPath>
</defs>
</svg>
