<svg width="87" height="89" viewBox="0 0 87 89" fill="none" xmlns="http://www.w3.org/2000/svg">
<path d="M44.5452 88.1999C44.3225 88.1999 44.0998 88.0885 43.9884 87.8658L3.1182 31.9616C3.00684 31.8502 3.00684 31.7389 3.00684 31.6275C3.00684 31.6275 3.00684 31.6275 3.00684 31.5161C3.00684 31.4048 3.00684 31.1821 3.1182 31.0707L16.5931 15.0344C16.7045 14.9231 16.9272 14.8117 17.1499 14.8117H72.0519C72.2746 14.8117 72.4973 14.9231 72.6087 15.0344L86.0836 31.0707C86.3064 31.4048 86.3064 31.7389 86.0836 32.073L45.2134 87.8658C44.9907 88.0885 44.768 88.1999 44.5452 88.1999ZM5.12273 32.1843L44.5452 86.1953L83.9677 32.1843H5.12273ZM5.2341 30.7366H83.9677L71.7178 16.0367H17.484L5.2341 30.7366Z" fill="black"/>
<path d="M44.545 88.2001C44.211 88.2001 43.9882 87.9774 43.8769 87.6433L27.7292 31.8505C27.6179 31.6277 27.7292 31.405 27.8406 31.1823C27.952 30.9596 28.1747 30.8482 28.3974 30.8482H60.6927C60.9154 30.8482 61.1381 30.9596 61.2495 31.1823C61.3608 31.405 61.4722 31.6277 61.3608 31.8505L45.3246 87.6433C45.2132 87.9774 44.8791 88.2001 44.545 88.2001ZM29.3997 32.2959L44.545 84.8592L59.8018 32.2959H29.3997Z" fill="black"/>
<path d="M28.3978 32.1831C28.2864 32.1831 28.1751 32.1831 28.0637 32.0718C27.7296 31.849 27.6182 31.4036 27.841 31.0695L37.8636 15.0332C38.0864 14.6992 38.5318 14.5878 38.8659 14.8105C39.2 15.0332 39.3114 15.4787 39.0886 15.8128L29.066 31.849C28.8432 32.0718 28.6205 32.1831 28.3978 32.1831Z" fill="black"/>
<path d="M60.8043 32.1831C60.5815 32.1831 60.3588 32.0718 60.1361 31.849L50.1134 15.8128C49.8907 15.4787 50.0021 15.0332 50.3362 14.8105C50.6702 14.5878 51.1157 14.6992 51.3384 15.0332L61.3611 31.0695C61.5838 31.4036 61.4725 31.849 61.1384 32.0718C61.027 32.1831 60.9156 32.1831 60.8043 32.1831Z" fill="black"/>
<path d="M7.23859 16.0353C6.9045 16.0353 6.68178 15.8126 6.57042 15.4785L5.1227 10.9127L0.556815 9.46493C0.222726 9.35357 0 9.13085 0 8.79676C0 8.46267 0.222726 8.23994 0.556815 8.12858L5.1227 6.68086L6.57042 2.00362C6.68178 1.78089 6.9045 1.55817 7.23859 1.55817C7.57268 1.55817 7.79541 1.78089 7.90677 2.11498L9.35449 6.68086L14.0317 8.12858C14.3658 8.23994 14.5885 8.46267 14.5885 8.79676C14.5885 9.13085 14.3658 9.35357 14.0317 9.46493L9.35449 10.9127L8.01813 15.5899C7.90677 15.924 7.57268 16.0353 7.23859 16.0353ZM3.22953 8.79676L6.0136 9.68766C6.23633 9.79902 6.45905 9.91039 6.45905 10.1331L7.34996 12.9172L8.24086 10.1331C8.35222 9.91039 8.46359 9.68766 8.68631 9.68766L11.4704 8.79676L8.57495 7.90585C8.35222 7.90585 8.24086 7.68313 8.1295 7.4604L7.23859 4.67633L6.45905 7.4604C6.34769 7.68313 6.23633 7.90585 5.90224 7.90585L3.22953 8.79676Z" fill="black"/>
<path d="M19.1545 10.3568C18.8204 10.3568 18.5977 10.134 18.4863 9.79994L17.5954 6.79314L14.4772 5.90224C14.1431 5.79087 13.9204 5.56815 13.9204 5.23406C13.9204 4.89997 14.1431 4.67724 14.4772 4.56588L17.484 3.67498L18.3749 0.668178C18.5977 0.222726 18.8204 0 19.1545 0C19.4886 0 19.7113 0.222726 19.8226 0.556815L20.7135 3.56361L23.8317 4.45452C24.1658 4.56588 24.3885 4.78861 24.3885 5.12269C24.3885 5.45678 24.1658 5.67951 23.8317 5.79087L20.8249 6.68178L19.934 9.68857C19.8226 10.2454 19.4886 10.3568 19.1545 10.3568ZM17.1499 5.23406L18.3749 5.56815C18.5977 5.67951 18.8204 5.79087 18.8204 6.0136L19.1545 7.12723L19.4886 5.90224C19.5999 5.79087 19.8226 5.67951 20.0454 5.56815L21.159 5.23406L20.0454 4.78861C19.8226 4.67724 19.5999 4.56588 19.5999 4.34315L19.2658 3.22952L18.9317 4.34315C18.8204 4.56588 18.709 4.78861 18.4863 4.78861L17.1499 5.23406Z" fill="black"/>
</svg>
