<svg width="78" height="74" viewBox="0 0 78 74" fill="none" xmlns="http://www.w3.org/2000/svg">
<path d="M74.2805 24.937C74.9438 24.937 75.4743 25.4676 75.4743 26.1308C75.4743 26.794 74.9438 27.3246 74.2805 27.3246C73.6173 27.3246 73.0868 26.794 73.0868 26.1308C73.0868 25.4676 73.6173 24.937 74.2805 24.937Z" fill="#030303"/>
<path d="M70.0357 46.4253C70.6989 46.4253 71.2295 46.9559 71.2295 47.6191C71.2295 48.2823 70.6989 48.8129 70.0357 48.8129C69.3725 48.8129 68.8419 48.2823 68.8419 47.6191C68.8419 46.9559 69.3725 46.4253 70.0357 46.4253Z" fill="#030303"/>
<path d="M70.0357 70.9644C70.6989 70.9644 71.2295 71.4949 71.2295 72.1581C71.2295 72.8214 70.6989 73.3519 70.0357 73.3519C69.3725 73.3519 68.8419 72.8214 68.8419 72.1581C68.8419 71.4949 69.3725 70.9644 70.0357 70.9644Z" fill="#030303"/>
<path d="M6.36699 36.4771C7.03021 36.4771 7.56078 37.0076 7.56078 37.6708C7.56078 38.3341 7.03021 38.8646 6.36699 38.8646C5.70377 38.8646 5.1732 38.3341 5.1732 37.6708C5.04056 37.0076 5.70377 36.4771 6.36699 36.4771Z" fill="#030303"/>
<path d="M3.84666 4.24451C4.50988 4.24451 5.04045 4.77508 5.04045 5.4383C5.04045 6.10152 4.50988 6.63209 3.84666 6.63209C3.18344 6.63209 2.65287 6.10152 2.65287 5.4383C2.65287 4.77508 3.18344 4.24451 3.84666 4.24451Z" fill="#030303"/>
<path d="M1.32657 51.4658C1.98978 51.4658 2.52036 51.9964 2.52036 52.6596C2.52036 53.3228 1.98978 53.8534 1.32657 53.8534C0.663349 53.8534 0.132774 53.3228 0.132774 52.6596C0.132774 51.9964 0.663349 51.4658 1.32657 51.4658Z" fill="#030303"/>
<path d="M65.5259 0H16.7131C16.3152 0 15.9172 0.397931 15.9172 0.795862V6.63218H10.0809C9.68298 6.63218 9.28505 7.03011 9.28505 7.42804V72.954C9.28505 73.3519 9.68298 73.7498 10.0809 73.7498H58.7611C59.159 73.7498 59.557 73.3519 59.557 72.954V67.1177H65.5259C65.9239 67.1177 66.3218 66.7197 66.3218 66.3218V0.795862C66.3218 0.397931 65.9239 0 65.5259 0ZM57.9652 72.1581H11.0094V8.2239H16.0499V66.3218C16.0499 66.7197 16.4478 67.1177 16.8457 67.1177H57.9652V72.1581ZM64.7301 65.5259H17.7742V29.8448H54.6492C55.0471 29.8448 55.445 29.4469 55.445 29.0489C55.445 28.651 55.0471 28.2531 54.6492 28.2531H49.6087V11.54C49.6087 11.1421 49.2108 10.7441 48.8128 10.7441H44.7009C44.303 10.7441 43.905 11.1421 43.905 11.54V13.2644H40.5889C40.191 13.2644 39.7931 13.6623 39.7931 14.0602V17.3763H37.2728V13.2644C37.2728 12.8664 36.8749 12.4685 36.477 12.4685H33.1609V9.94827C33.1609 9.55034 32.763 9.15241 32.365 9.15241H27.8552C27.4572 9.15241 27.0593 9.55034 27.0593 9.94827V14.9887H23.7432C23.3453 14.9887 22.9473 15.3867 22.9473 15.7846V28.2531H17.9069V1.72437H64.8627V65.5259H64.7301ZM47.8843 28.1204H45.3641V12.4685H47.8843V28.1204ZM43.6397 28.1204H41.1195V14.8561H43.6397V28.1204ZM39.3951 28.1204H36.8749V18.968H39.3951V28.1204ZM35.2832 28.1204H32.763V14.0602H35.2832C35.2832 15.6519 35.2832 26.3961 35.2832 28.1204ZM31.1712 28.1204H28.651V10.7441H31.1712C31.1712 14.5908 31.1712 24.5391 31.1712 28.1204ZM26.794 28.1204H24.2738V16.4478H26.794V28.1204Z" fill="#030303"/>
<path d="M49.6086 40.4563L49.2106 43.1092C46.6904 42.9765 44.0375 43.905 42.1805 45.7621C38.5992 49.3434 38.5992 54.9145 42.1805 58.4958C45.7619 62.0772 51.4656 62.0772 55.047 58.4958C56.904 56.6388 57.8325 54.1186 57.6998 51.4657L60.3527 51.0678C60.7506 50.9352 61.1486 50.5372 61.0159 50.1393C60.7506 47.4864 59.5568 45.0988 57.6998 43.1092C55.8428 41.2522 53.4552 40.0584 50.5371 39.7931C50.0065 39.7931 49.6086 40.0584 49.6086 40.4563ZM48.9454 44.7009L48.0169 50.2719L44.0375 46.2926C45.364 45.2315 47.0884 44.7009 48.9454 44.7009ZM53.8532 57.302C50.935 60.2202 46.1598 60.2202 43.3743 57.302C40.7215 54.6492 40.5888 50.4046 42.8438 47.4864C42.8438 47.4864 48.2821 52.9248 48.0169 52.6595C48.1495 52.7922 48.1495 52.7922 48.2821 52.7922C48.2821 52.7922 48.2821 52.7922 48.4148 52.7922C48.5474 52.7922 48.5474 52.7922 48.6801 52.7922L55.9755 51.5984C56.1081 53.7207 55.3123 55.843 53.8532 57.302ZM59.1589 49.4761C57.5672 49.7414 51.2003 50.8025 49.4759 50.9352L50.935 41.3848C55.1796 42.3133 58.3631 45.4968 59.1589 49.4761Z" fill="#030303"/>
<path d="M72.9542 7.42822C70.1687 7.42822 67.9138 9.68316 67.9138 12.4687C67.9138 15.2542 70.1687 17.5091 72.9542 17.5091C75.7398 17.5091 77.9947 15.2542 77.9947 12.4687C78.1273 9.68316 75.8724 7.42822 72.9542 7.42822ZM72.9542 15.7848C71.0972 15.7848 69.6381 14.3257 69.6381 12.4687C69.6381 10.6117 71.0972 9.15259 72.9542 9.15259C74.8112 9.15259 76.2703 10.6117 76.2703 12.4687C76.403 14.193 74.8112 15.7848 72.9542 15.7848Z" fill="#030303"/>
<path d="M3.31609 63.0057C1.45908 63.0057 0 64.4648 0 66.3218C0 68.1788 1.45908 69.6379 3.31609 69.6379C5.1731 69.6379 6.63218 68.1788 6.63218 66.3218C6.76482 64.4648 5.1731 63.0057 3.31609 63.0057ZM3.31609 67.9136C2.38758 67.9136 1.59172 67.1177 1.59172 66.1892C1.59172 65.2607 2.38758 64.4648 3.31609 64.4648C4.2446 64.4648 5.04046 65.2607 5.04046 66.1892C5.04046 67.2503 4.2446 67.9136 3.31609 67.9136Z" fill="#030303"/>
<path d="M33.5586 49.7413H21.7533C21.3554 49.7413 20.9574 50.1393 20.9574 50.5372C20.9574 50.9351 21.3554 51.3331 21.7533 51.3331H33.5586C33.9565 51.3331 34.3544 50.9351 34.3544 50.5372C34.3544 50.1393 34.0891 49.7413 33.5586 49.7413Z" fill="#030303"/>
<path d="M33.5586 46.4253H21.7533C21.3554 46.4253 20.9574 46.8232 20.9574 47.2212C20.9574 47.6191 21.3554 48.017 21.7533 48.017H33.5586C33.9565 48.017 34.3544 47.6191 34.3544 47.2212C34.3544 46.8232 34.0891 46.4253 33.5586 46.4253Z" fill="#030303"/>
<path d="M33.5586 43.1091H21.7533C21.3554 43.1091 20.9574 43.5071 20.9574 43.905C20.9574 44.3029 21.3554 44.7009 21.7533 44.7009H33.5586C33.9565 44.7009 34.3544 44.3029 34.3544 43.905C34.3544 43.5071 34.0891 43.1091 33.5586 43.1091Z" fill="#030303"/>
<path d="M33.5586 39.7931H21.7533C21.3554 39.7931 20.9574 40.191 20.9574 40.589C20.9574 40.9869 21.3554 41.3848 21.7533 41.3848H33.5586C33.9565 41.3848 34.3544 40.9869 34.3544 40.589C34.3544 40.191 34.0891 39.7931 33.5586 39.7931Z" fill="#030303"/>
</svg>
