<?xml version="1.0" encoding="UTF-8"?>
<svg xmlns="http://www.w3.org/2000/svg" width="71" height="72" viewBox="0 0 71 72" fill="none">
  <path d="M68.957 46.4183C69.5955 46.4183 70.1062 46.9291 70.1062 47.5676C70.1062 48.2061 69.5955 48.7169 68.957 48.7169C68.3185 48.7169 67.8077 48.2061 67.8077 47.5676C67.8077 46.9291 68.3185 46.4183 68.957 46.4183Z" fill="#030303"></path>
  <path d="M68.1907 17.6863C68.8292 17.6863 69.3399 18.1971 69.3399 18.8356C69.3399 19.474 68.8292 19.9848 68.1907 19.9848C67.5522 19.9848 67.0414 19.474 67.0414 18.8356C67.0414 18.1971 67.5522 17.6863 68.1907 17.6863Z" fill="#030303"></path>
  <path d="M57.7192 66.2114C58.3577 66.2114 58.8684 66.7222 58.8684 67.3607C58.8684 67.9992 58.3577 68.51 57.7192 68.51C57.0807 68.51 56.5699 67.9992 56.5699 67.3607C56.5699 66.8499 57.0807 66.2114 57.7192 66.2114Z" fill="#030303"></path>
  <path d="M40.8635 27.2637C41.5019 27.2637 42.0127 27.7745 42.0127 28.413C42.0127 29.0514 41.5019 29.5622 40.8635 29.5622C40.225 29.5622 39.7142 29.0514 39.7142 28.413C39.7142 27.7745 40.225 27.2637 40.8635 27.2637Z" fill="#030303"></path>
  <path d="M33.8401 50.8876C33.457 50.7599 32.9462 50.5045 32.5631 50.2491C32.4354 50.2491 32.3077 50.1214 32.3077 50.1214L31.4138 51.9092C32.3077 52.5477 33.457 52.8031 34.6063 52.9308V54.3355H35.5001V52.9308C36.2663 52.9308 37.0325 52.6754 37.5433 52.2923C37.7987 52.0369 38.0541 51.7815 38.1818 51.5261C38.3095 51.143 38.4372 50.7599 38.4372 50.3768C38.4372 49.3552 37.9264 48.5891 36.9048 48.0783C36.5217 47.9506 36.1386 47.8229 35.7555 47.6952L35.2448 47.5675V45.9074C35.5001 45.9074 35.7555 46.0351 35.8832 46.0351C36.2663 46.1628 36.6494 46.2905 36.9048 46.5459C37.0325 46.6736 37.0325 46.6736 37.1602 46.6736L38.0541 45.0135C37.671 44.7581 37.2879 44.6304 36.9048 44.5027C36.394 44.375 35.8832 44.2473 35.3725 44.1196V42.8427H34.4786V44.1196C33.3293 44.2473 32.4354 44.7581 31.9246 45.7797C31.7969 46.1628 31.6692 46.5459 31.6692 46.929C31.6692 47.8229 32.0523 48.4614 32.9462 48.9722C33.5847 49.3552 34.3509 49.4829 34.6063 49.4829V51.143C34.3509 51.143 34.0955 51.143 33.8401 50.8876ZM35.2448 49.6106C35.5001 49.7383 35.7555 49.866 35.8832 49.9937C36.1386 50.1214 36.1386 50.2491 36.1386 50.5045C36.1386 50.8876 35.8832 51.143 35.2448 51.143V49.6106ZM33.9678 47.0567C33.8401 46.929 33.7124 46.8013 33.7124 46.5459C33.7124 46.1628 33.9678 45.9074 34.6063 45.7797V47.3121C34.3509 47.4398 34.2232 47.3121 33.9678 47.0567Z" fill="#030303"></path>
  <path d="M26.1782 6.44885C26.8167 6.44885 27.3275 6.95964 27.3275 7.59813C27.3275 8.23662 26.8167 8.74741 26.1782 8.74741C25.5397 8.74741 25.0289 8.23662 25.0289 7.59813C25.0289 6.95964 25.5397 6.44885 26.1782 6.44885Z" fill="#030303"></path>
  <path d="M9.32183 64.8066C9.96032 64.8066 10.4711 65.3174 10.4711 65.9559C10.4711 66.5944 9.96032 67.1052 9.32183 67.1052C8.68334 67.1052 8.17255 66.5944 8.17255 65.9559C8.17255 65.3174 8.68334 64.8066 9.32183 64.8066Z" fill="#030303"></path>
  <path d="M1.14928 36.0746C1.78777 36.0746 2.29856 36.5854 2.29856 37.2239C2.29856 37.8624 1.78777 38.3731 1.14928 38.3731C0.510791 38.3731 0 37.8624 0 37.2239C0 36.5854 0.510791 36.0746 1.14928 36.0746Z" fill="#030303"></path>
  <path d="M68.574 14.366C68.9571 14.366 69.2125 14.1106 69.3402 13.8552C69.4679 13.5998 69.3402 13.2167 69.0848 12.9613L54.7826 0.191547C54.5273 -0.0638489 54.0165 -0.0638489 53.7611 0.191547L39.842 12.9613C39.5866 13.2167 39.4589 13.4721 39.5866 13.8552C39.7143 14.2383 39.9697 14.366 40.3528 14.366H48.5255V45.1412C48.5255 48.589 47.1208 51.9092 44.6945 54.4631C45.7161 52.8031 46.2269 50.7599 46.2269 48.7167C46.2269 42.5872 41.2467 37.607 34.9895 37.607C28.7323 37.607 23.7521 42.5872 23.7521 48.7167C23.7521 50.2491 24.1352 51.7815 24.646 53.0584C22.9859 50.8876 21.9643 48.2059 21.9643 45.0135V31.0944C21.9643 30.7113 21.5812 30.3282 21.1981 30.3282H10.5992C10.2161 30.3282 9.83301 30.7113 9.83301 31.0944V45.9074C9.83301 59.8264 21.1981 71.0639 35.2449 71.0639C49.2916 71.0639 60.6567 59.8264 60.6567 45.9074V14.366H68.574ZM54.3996 1.97932L66.5308 12.8336H42.396L54.3996 1.97932ZM34.8618 39.1394C40.0974 39.1394 44.5668 43.4811 44.5668 48.7167C44.5668 53.8246 40.3528 58.2941 34.8618 58.2941C34.2233 58.2941 33.5848 58.1664 32.9463 58.0387C28.6046 57.1448 25.1567 53.3139 25.1567 48.7167C25.1567 43.4811 29.6262 39.1394 34.8618 39.1394ZM58.869 45.7797C58.869 58.8049 48.1424 69.2761 35.1172 69.2761C21.9643 69.2761 11.3654 58.8049 11.3654 45.7797V31.9883H20.3042V45.1412C20.3042 58.2941 36.3942 64.8066 45.7161 55.6124C48.5255 52.8031 50.0578 49.0998 50.0578 45.1412V14.366H58.9967V45.9074H58.869V45.7797Z" fill="#030303"></path>
  <path d="M13.6639 16.0261C16.7287 16.0261 19.4103 13.4721 19.4103 10.4074C19.4103 7.34265 16.8564 4.7887 13.6639 4.7887C10.5992 4.7887 7.91754 7.34265 7.91754 10.4074C8.04524 13.4721 10.5992 16.0261 13.6639 16.0261ZM13.6639 6.44877C15.8348 6.44877 17.6226 8.23654 17.6226 10.4074C17.6226 12.5783 15.8348 14.366 13.6639 14.366C11.4931 14.366 9.70531 12.5783 9.70531 10.4074C9.70531 8.23654 11.4931 6.44877 13.6639 6.44877Z" fill="#030303"></path>
  <path d="M67.0413 57.528C64.8704 57.528 63.0826 59.3157 63.0826 61.4866C63.0826 63.6575 64.8704 65.4452 67.0413 65.4452C69.2121 65.4452 70.9999 63.6575 70.9999 61.4866C70.9999 59.3157 69.2121 57.528 67.0413 57.528ZM67.0413 63.9128C65.7643 63.9128 64.615 62.8913 64.615 61.4866C64.615 60.2096 65.6366 59.0603 67.0413 59.0603C68.4459 59.0603 69.4675 60.0819 69.4675 61.4866C69.4675 62.7636 68.3183 63.9128 67.0413 63.9128Z" fill="#030303"></path>
</svg>
