<?xml version="1.0" encoding="UTF-8"?>
<svg xmlns="http://www.w3.org/2000/svg" width="90" height="83" viewBox="0 0 90 83" fill="none">
  <path d="M86.195 25.9741C87.0222 25.9741 87.684 26.6358 87.684 27.463C87.684 28.2902 87.0222 28.952 86.195 28.952C85.3678 28.952 84.7061 28.2902 84.7061 27.463C84.7061 26.6358 85.3678 25.9741 86.195 25.9741Z" fill="#030303"></path>
  <path d="M74.6145 47.647C75.4417 47.647 76.1034 48.3088 76.1034 49.136C76.1034 49.9632 75.4417 50.625 74.6145 50.625C73.7872 50.625 73.1255 49.9632 73.1255 49.136C73.1255 48.3088 73.7872 47.647 74.6145 47.647Z" fill="#030303"></path>
  <path d="M63.0334 2.1507C63.8606 2.1507 64.5224 2.81246 64.5224 3.63967C64.5224 4.46687 63.8606 5.12864 63.0334 5.12864C62.2062 5.12864 61.5444 4.46687 61.5444 3.63967C61.5444 2.81246 62.2062 2.1507 63.0334 2.1507Z" fill="#030303"></path>
  <path d="M23.4924 2.1507C24.3196 2.1507 24.9814 2.81246 24.9814 3.63967C24.9814 4.46687 24.3196 5.12864 23.4924 5.12864C22.6652 5.12864 22.0034 4.46687 22.0034 3.63967C22.0034 2.81246 22.6652 2.1507 23.4924 2.1507Z" fill="#030303"></path>
  <path d="M15.0554 44.5034C15.8826 44.5034 16.5443 45.1652 16.5443 45.9924C16.5443 46.8196 15.8826 47.4814 15.0554 47.4814C14.2282 47.4814 13.5664 46.8196 13.5664 45.9924C13.5664 45.1652 14.2282 44.5034 15.0554 44.5034Z" fill="#030303"></path>
  <path d="M1.48897 67.3344C2.31618 67.3344 2.97794 67.9961 2.97794 68.8233C2.97794 69.6505 2.31618 70.3123 1.48897 70.3123C0.661765 70.3123 0 69.6505 0 68.8233C0 67.9961 0.661765 67.3344 1.48897 67.3344Z" fill="#030303"></path>
  <path d="M74.1176 62.2058C68.4926 59.8896 63.0331 57.5735 62.5368 57.2426C58.2353 55.4227 54.5956 52.2794 52.2794 48.3088C52.6103 48.1433 52.7757 48.1433 53.1066 47.9779C53.4375 47.8124 53.6029 47.4816 53.7684 47.1507L53.9338 45.6617L55.2574 46.3235C55.5882 46.4889 56.0846 46.4889 56.25 46.3235C58.0699 44.9999 59.5588 43.511 60.8823 41.6911C61.0478 41.3602 61.2132 41.0293 60.8823 40.6985L60.2206 39.3749L61.7096 39.2095C62.0404 39.2095 62.3713 38.8786 62.5368 38.5477C63.5294 36.5624 64.0257 34.4117 64.1912 32.261C64.1912 31.9301 64.0257 31.4338 63.6948 31.2683L62.3713 30.4411L63.6948 29.6139C64.0257 29.4485 64.1912 29.1176 64.1912 28.6213C64.0257 26.4705 63.364 24.3198 62.5368 22.3345C62.3713 22.0036 62.0404 21.6727 61.7096 21.6727L60.386 21.5073L61.0478 20.1838C61.2132 19.8529 61.2132 19.3566 61.0478 19.1911C59.7243 17.3713 58.2353 15.8823 56.4154 14.5588C56.0846 14.3933 55.7537 14.2279 55.4228 14.5588L54.0993 15.2205L53.9338 13.7316C53.9338 13.4007 53.6029 13.0698 53.2721 12.9044C51.2868 12.0771 49.136 11.4154 46.9853 11.2499C46.6544 11.2499 46.1581 11.4154 45.9926 11.7463L45.1654 13.0698L44.3382 11.7463C44.1728 11.4154 43.8419 11.2499 43.3456 11.2499C41.1949 11.4154 39.0441 12.0771 37.0588 12.9044C36.7279 13.0698 36.5625 13.4007 36.3971 13.7316L36.2316 15.2205L34.9081 14.5588C34.5772 14.3933 34.0809 14.3933 33.9154 14.5588C32.0956 15.8823 30.6066 17.3713 29.2831 19.1911C29.1176 19.522 28.9522 19.8529 29.2831 20.1838L29.9449 21.5073L28.125 21.6727C27.7941 21.6727 27.4632 22.0036 27.2978 22.3345C26.3051 24.3198 25.8088 26.4705 25.6434 28.6213C25.6434 28.9521 25.8088 29.4485 26.1397 29.6139L27.4632 30.4411L26.1397 31.2683C25.8088 31.4338 25.6434 31.9301 25.6434 32.261C25.8088 34.4117 26.4706 36.5624 27.2978 38.5477C27.4632 38.8786 27.7941 39.0441 28.125 39.2095L29.614 39.3749L29.1176 40.533C28.9522 40.8639 28.9522 41.3602 29.1176 41.5257C30.4412 43.3455 31.9301 44.8345 33.75 46.158C34.0809 46.3235 34.4118 46.4889 34.7426 46.158L36.0662 45.4963L36.2316 46.9852C36.2316 47.3161 36.5625 47.647 36.8934 47.8124C37.0588 47.8124 37.0588 47.9779 37.2243 47.9779C34.9081 50.9558 30.7721 55.7536 27.1324 57.2426L15.8824 62.0404C9.43015 64.8529 5.625 75.2757 5.625 81.5624C5.625 82.0588 6.12132 82.5551 6.61765 82.5551C10.9191 82.5551 80.5698 82.5551 83.0515 82.5551C83.5478 82.5551 84.0441 82.0588 84.0441 81.5624C84.375 74.9448 80.4044 64.8529 74.1176 62.2058ZM56.0846 73.7867L61.875 76.9301L59.7243 80.7352H51.6176L46.9853 61.7095L52.2794 66.011C52.7757 66.5073 53.6029 66.1764 53.9338 65.5146L57.4081 56.7463C58.5662 57.5735 59.8897 58.2352 61.2132 58.897L62.7022 68.658L56.0846 71.9669C55.4228 72.2977 55.4228 73.4558 56.0846 73.7867ZM30.6066 80.7352L28.9522 76.9301L33.9154 73.7867C34.5772 73.2904 34.5772 72.2977 33.75 71.9669L27.1324 68.658L28.6213 58.897C29.7794 58.2352 30.9375 57.408 32.261 56.2499L36.8934 65.5146C37.2243 66.1764 38.0515 66.3418 38.5478 65.8455L43.0147 61.8749L39.0441 80.7352H30.6066ZM36.7279 52.1139L43.511 58.897L38.5478 63.3639L34.2463 54.761C34.9081 54.0992 35.7353 53.1066 36.7279 52.1139ZM43.3456 49.6323C43.6765 49.6323 44.1728 49.4669 44.3382 49.136L45.1654 47.8124L45.9926 49.136C46.1581 49.4669 46.489 49.6323 46.9853 49.6323C48.1434 49.4669 49.3015 49.3014 50.4596 48.9705C50.7904 49.6323 51.2868 50.2941 51.7831 50.9558L45.3309 57.408L38.3824 50.4595C38.8787 49.9632 39.2096 49.3014 39.7059 48.8051C40.6985 49.3014 42.0221 49.4669 43.3456 49.6323ZM45.1654 63.5294L49.3015 80.5698H41.3603L45.1654 63.5294ZM55.7537 55.4227L52.4449 63.5294L46.8199 58.897L52.9412 52.7757C53.7684 53.6029 54.761 54.5955 55.7537 55.4227ZM36.7279 43.0146L34.5772 44.1727C33.4191 43.1801 32.261 42.1874 31.4338 41.0293L32.5919 38.8786C32.9228 38.2169 32.4265 37.3896 31.7647 37.3896L29.1176 37.0588C28.4559 35.5698 28.125 34.2463 27.9596 32.5919L29.9449 31.2683C30.2757 31.1029 30.4412 30.772 30.4412 30.4411C30.4412 30.1102 30.2757 29.7793 29.9449 29.6139L27.9596 28.2904C28.125 26.8014 28.6213 25.3124 29.1176 23.8235L31.5993 23.658C32.261 23.658 32.7574 22.8308 32.4265 22.1691L31.2684 20.0183C32.261 18.8602 33.2537 17.7021 34.4118 16.8749L36.5625 18.033C36.8934 18.1985 37.2243 18.1985 37.5551 18.033C37.886 17.8676 38.0515 17.5367 38.0515 17.2058L38.2169 14.7242C39.7059 14.0624 41.0294 13.7316 42.6838 13.5661L44.0074 15.5514C44.1728 15.8823 44.5037 16.0477 44.8346 16.0477C45.1654 16.0477 45.4963 15.8823 45.6618 15.5514L46.9853 13.5661C48.4743 13.7316 49.9632 14.2279 51.4522 14.7242L51.6176 17.2058C51.6176 17.5367 51.7831 17.8676 52.114 18.033C52.4449 18.1985 52.7757 18.1985 53.1066 18.033L55.2574 16.8749C56.4154 17.8676 57.5735 18.8602 58.5662 20.0183L57.4081 22.1691C57.0772 22.8308 57.5735 23.658 58.2353 23.658L60.7169 23.8235C61.3787 25.3124 61.7096 26.8014 61.875 28.2904L59.8897 29.6139C59.7243 29.7793 59.5588 30.1102 59.5588 30.4411C59.5588 30.772 59.7243 31.1029 60.0551 31.2683L62.0404 32.5919C61.875 34.0808 61.3787 35.5698 60.8823 37.0588L58.5662 37.2242C57.9044 37.2242 57.4081 38.0514 57.739 38.7132L58.897 40.8639C57.9044 42.022 56.9118 43.1801 55.7537 44.0073L53.6029 42.8492C52.9412 42.5183 52.114 43.0146 52.114 43.6764L51.9485 46.158C51.6176 46.3235 51.2868 46.4889 50.9559 46.4889C50.7904 46.4889 50.7904 46.4889 50.625 46.6544C49.6324 46.9852 48.6397 47.1507 47.6471 47.3161L45.9926 45.4963C45.8272 45.1654 45.4963 44.9999 45.1654 44.9999C44.8346 44.9999 44.5037 45.1654 44.3382 45.4963L43.0147 47.4816C41.5257 47.3161 40.0368 46.8198 38.5478 46.3235L38.3824 43.8419C38.3824 43.511 38.2169 43.1801 37.886 43.0146C37.5551 42.8492 37.0588 42.8492 36.7279 43.0146ZM16.875 64.0257L26.8015 59.8896L25.3125 69.1543C25.3125 69.6507 25.4779 69.9816 25.8088 70.3124L31.4338 73.1249L27.2978 75.772C26.8015 76.1029 26.636 76.5992 26.9669 77.0955L28.4559 80.9007H18.364V75.772C18.364 75.2757 17.8676 74.7794 17.3713 74.7794C16.875 74.7794 16.3787 75.2757 16.3787 75.772V80.9007H8.10662C8.27206 74.4485 12.0772 66.1764 16.875 64.0257ZM72.6287 80.7352V75.6066C72.6287 75.1102 72.1323 74.6139 71.636 74.6139C71.1397 74.6139 70.6434 75.1102 70.6434 75.6066V80.7352H62.0404L64.1912 77.0955C64.5221 76.5992 64.3566 75.9374 63.8603 75.6066L58.897 72.9595L64.3566 70.147C64.6875 69.9816 65.0184 69.4852 64.8529 68.9889L63.364 59.7242L73.2904 63.8602C75.6066 64.8529 77.9228 67.4999 79.7426 71.1396C81.0662 74.1176 82.0588 77.4264 82.2243 80.4043L72.6287 80.7352Z" fill="#030303"></path>
  <path d="M45 39.7059C50.1286 39.7059 54.4301 35.5698 54.4301 30.4412C54.4301 25.3125 50.2941 21.1765 45 21.1765C39.8713 21.1765 35.5698 25.3125 35.5698 30.4412C35.5698 35.5698 39.8713 39.7059 45 39.7059ZM45 23.1617C48.9706 23.1617 52.4448 26.4706 52.4448 30.4412C52.4448 34.4117 49.136 37.7206 45 37.7206C41.0294 37.7206 37.5551 34.4117 37.5551 30.4412C37.886 26.4706 41.0294 23.1617 45 23.1617Z" fill="#030303"></path>
  <path d="M45.0003 34.5769C47.3165 34.5769 49.1363 32.7571 49.1363 30.4409C49.1363 28.1247 47.3165 26.3049 45.0003 26.3049C42.6841 26.3049 40.8643 28.1247 40.8643 30.4409C40.8643 32.7571 42.6841 34.5769 45.0003 34.5769ZM45.0003 28.4556C46.1584 28.4556 47.151 29.4483 47.151 30.6063C47.151 31.7644 46.1584 32.7571 45.0003 32.7571C43.8422 32.7571 42.8495 31.7644 42.8495 30.6063C43.015 29.2828 43.8422 28.4556 45.0003 28.4556Z" fill="#030303"></path>
  <path d="M81.563 16.544C86.1953 16.544 90.0005 12.9043 90.0005 8.27194C90.0005 3.63958 86.3608 -0.00012207 81.563 -0.00012207C76.9306 -0.00012207 73.1255 3.63958 73.1255 8.27194C73.1255 12.9043 76.7652 16.544 81.563 16.544ZM81.563 2.15061C85.0372 2.15061 87.8497 4.96311 87.8497 8.43738C87.8497 11.9116 85.0372 14.7241 81.563 14.7241C78.0887 14.7241 75.2762 11.9116 75.2762 8.43738C75.1108 4.96311 77.9233 2.15061 81.563 2.15061Z" fill="#030303"></path>
  <path d="M10.4226 33.0881C13.8969 33.0881 16.7094 30.2756 16.7094 26.8014C16.7094 23.3271 13.7314 20.6801 10.4226 20.6801C7.11379 20.6801 4.13585 23.4926 4.13585 26.9668C3.97041 30.4411 6.78291 33.0881 10.4226 33.0881ZM10.4226 22.8308C12.7388 22.8308 14.5586 24.6506 14.5586 26.9668C14.5586 29.283 12.7388 31.1028 10.4226 31.1028C8.10643 31.1028 6.28658 29.283 6.28658 26.9668C6.12114 24.6506 8.10643 22.8308 10.4226 22.8308Z" fill="#030303"></path>
</svg>
