<?xml version="1.0" encoding="UTF-8"?>
<svg xmlns="http://www.w3.org/2000/svg" width="30" height="31" viewBox="0 0 30 31" fill="none">
  <path d="M15.0001 7.69434C10.963 7.69434 7.65674 11.0006 7.65674 15.0377C7.65674 19.0748 10.963 22.3811 15.0001 22.3811C19.0372 22.3811 22.3087 19.0748 22.3087 15.0377C22.3087 11.0006 19.0024 7.69434 15.0001 7.69434ZM15.0001 20.641C11.9027 20.641 9.39688 18.1352 9.39688 15.0377C9.39688 11.9403 11.9027 9.43448 15.0001 9.43448C18.0628 9.43448 20.5686 11.9403 20.5686 15.0377C20.5686 18.1352 18.0628 20.641 15.0001 20.641Z" fill="black"></path>
  <path d="M23.1788 3.55225C22.4131 3.55225 21.717 3.83067 21.195 4.35271C20.673 4.87475 20.3945 5.57081 20.3945 6.33647C20.3945 7.10213 20.673 7.79819 21.195 8.32023C21.717 8.84227 22.4131 9.12069 23.1788 9.12069C23.9444 9.12069 24.6405 8.84227 25.1625 8.32023C25.6498 7.83299 25.963 7.13693 25.9978 6.37127V6.33647C25.9978 5.60561 25.6846 4.90955 25.1973 4.42232C24.6753 3.86547 23.9444 3.55225 23.1788 3.55225ZM23.9096 7.06733C23.5268 7.45016 22.7959 7.45016 22.4131 7.06733C22.2043 6.85851 22.0999 6.61489 22.0999 6.33647C22.0999 6.05805 22.2043 5.77962 22.4131 5.60561C22.6219 5.39679 22.8655 5.29239 23.1439 5.29239C23.4224 5.29239 23.7008 5.39679 23.9096 5.60561C24.0836 5.77962 24.2228 6.05805 24.2228 6.30167C24.2228 6.61489 24.1184 6.89331 23.9096 7.06733Z" fill="black"></path>
  <path d="M21.0905 0.0375977H8.87471C3.96752 0.0375977 0 4.00512 0 8.91231V21.1629C0 26.0701 3.96752 30.0376 8.87471 30.0376H21.1253C26.0325 30.0376 30 26.0701 30 21.1629V8.91231C29.9652 4.00512 25.9977 0.0375977 21.0905 0.0375977ZM28.2251 21.1629C28.2251 25.0956 25.0232 28.2975 21.0905 28.2975H8.87471C4.942 28.2975 1.74014 25.0956 1.74014 21.1629V8.91231C1.74014 4.97959 4.942 1.77774 8.87471 1.77774H21.1253C25.058 1.77774 28.2599 4.97959 28.2599 8.91231V21.1629H28.2251Z" fill="black"></path>
</svg>
