<?xml version="1.0" encoding="UTF-8"?>
<svg xmlns="http://www.w3.org/2000/svg" width="76" height="74" viewBox="0 0 76 74" fill="none">
  <path d="M57.7341 2.45886C58.3727 2.45886 58.8836 2.96979 58.8836 3.60844C58.8836 4.2471 58.3727 4.75802 57.7341 4.75802C57.0954 4.75802 56.5845 4.2471 56.5845 3.60844C56.5845 2.96979 57.0954 2.45886 57.7341 2.45886Z" fill="#030303"></path>
  <path d="M19.7985 1.69238C20.4372 1.69238 20.9481 2.20331 20.9481 2.84196C20.9481 3.48062 20.4372 3.99154 19.7985 3.99154C19.1598 3.99154 18.6489 3.48062 18.6489 2.84196C18.6489 2.20331 19.1598 1.69238 19.7985 1.69238Z" fill="#030303"></path>
  <path d="M2.04411 12.9328C2.68277 12.9328 3.19369 13.4437 3.19369 14.0824C3.19369 14.721 2.68277 15.232 2.04411 15.232C1.40546 15.232 0.894531 14.721 0.894531 14.0824C0.894531 13.4437 1.40546 12.9328 2.04411 12.9328Z" fill="#030303"></path>
  <path d="M70.3798 62.7479C71.7849 61.5983 72.679 59.6824 72.679 57.7664V21.4908C72.679 17.9143 69.7412 14.8487 65.9092 14.8487H55.6908L55.1798 9.22857C55.1798 8.84538 54.7966 8.46218 54.4134 8.46218C44.7059 8.20672 37.9361 0.415126 37.9361 0.287395C37.6807 -0.0957983 37.042 -0.0957983 36.6588 0.287395C36.5311 0.415126 29.8891 8.33445 20.1815 8.46218C19.7983 8.46218 19.4151 8.84538 19.4151 9.22857L18.9042 14.8487H9.96303C6.38656 14.8487 3.19328 17.7866 3.19328 21.4908V57.7664C3.19328 59.8101 4.0874 61.5983 5.49244 62.7479C2.42689 62.7479 0 65.3025 0 68.3681C0 71.4336 2.55462 73.9882 5.7479 73.9882H70.2521C73.3176 73.9882 76 71.4336 76 68.3681C76 65.3025 73.5731 62.7479 70.3798 62.7479ZM65.5261 22.0017V57.5109H10.6017V22.0017H18.521C18.7765 27.6218 21.7143 32.8588 26.3126 36.1798L37.042 43.8437C37.042 43.9714 37.2975 43.9714 37.4252 43.9714C37.5529 43.9714 37.8084 43.9714 37.9361 43.8437L48.6655 36.1798C53.2639 32.8588 56.2017 27.6218 56.4571 22.0017H65.5261ZM37.2975 1.9479C39.2134 3.9916 45.2168 9.48403 53.6471 9.99496L54.5412 19.3193C55.0521 25.4504 52.3697 31.326 47.3882 34.7748L37.1698 42.1832L26.9513 34.9025C22.2252 31.4538 19.2874 25.5781 19.7983 19.4471L20.6924 10.1227C29.5059 9.61176 35.3815 3.9916 37.2975 1.9479ZM4.85378 57.7664V21.4908C4.85378 18.6807 7.15294 16.5092 9.83529 16.5092H18.6487C18.3933 19.0639 18.3933 19.4471 18.2655 20.4689H9.70756C9.32437 20.4689 8.94118 20.8521 8.94118 21.2353V58.405C8.94118 58.7882 9.32437 59.1714 9.70756 59.1714H66.2924C66.6756 59.1714 67.0588 58.7882 67.0588 58.405V21.2353C67.0588 20.8521 66.6756 20.4689 66.2924 20.4689H56.3294C56.3294 19.4471 56.2017 19.0639 55.9462 16.5092H66.037C68.8471 16.5092 71.0185 18.8084 71.0185 21.4908V57.7664C71.0185 60.5765 68.7193 62.7479 66.037 62.7479C63.3546 62.7479 48.921 62.7479 45.9832 62.7479C45.6 62.7479 45.2168 63.1311 45.2168 63.5143V65.9412H30.7832V63.5143C30.7832 63.1311 30.4 62.7479 30.0168 62.7479C26.9513 62.7479 18.3933 62.7479 9.96303 62.7479C7.15294 62.7479 4.85378 60.4487 4.85378 57.7664ZM57.3513 64.2807H64.6319V65.9412H57.3513V64.2807ZM11.3681 64.2807H18.6487V65.9412H11.3681V64.2807ZM70.2521 72.3277H5.7479C3.57647 72.3277 1.78824 70.5395 1.78824 68.3681C1.78824 66.1966 3.57647 64.4084 5.7479 64.4084H9.70756V66.8353C9.70756 67.2185 10.0908 67.6017 10.4739 67.6017H19.4151C19.7983 67.6017 20.1815 67.2185 20.1815 66.8353V64.4084H29.1227V66.8353C29.1227 67.2185 29.5059 67.6017 29.8891 67.6017H45.9832C46.3664 67.6017 46.7496 67.2185 46.7496 66.8353V64.4084H55.6908V66.8353C55.6908 67.2185 56.074 67.6017 56.4571 67.6017H65.3983C65.7815 67.6017 66.1647 67.2185 66.1647 66.8353V64.4084H70.1244C72.2958 64.4084 74.084 66.1966 74.084 68.3681C74.3395 70.5395 72.5513 72.3277 70.2521 72.3277Z" fill="#030303"></path>
  <path d="M28.9944 32.6034L36.9137 38.2236C36.9137 38.3513 37.0415 38.3513 37.2969 38.3513C37.4247 38.3513 37.6801 38.3513 37.8079 38.2236L45.7272 32.6034C49.6868 29.6656 51.986 24.8118 51.6028 19.958C51.6028 19.5748 51.2196 19.1916 50.7087 19.1916C50.3255 19.1916 49.9423 19.5748 49.9423 20.0858C50.3255 24.4286 48.4095 28.7715 44.8331 31.3261L37.4247 36.5631L30.0163 31.1984C26.4398 28.6437 24.5238 24.3009 24.907 19.958C24.907 19.5748 24.6516 19.1916 24.1406 19.0639C23.7574 19.0639 23.3742 19.3194 23.2465 19.8303C22.7356 24.8118 24.907 29.6656 28.9944 32.6034Z" fill="#030303"></path>
  <path d="M43.6841 44.7379C43.6841 45.1211 44.0673 45.5043 44.4505 45.5043H53.3916C53.7748 45.5043 54.158 45.1211 54.158 44.7379C54.158 44.3547 53.7748 43.9715 53.3916 43.9715H44.4505C44.0673 43.9715 43.6841 44.3547 43.6841 44.7379Z" fill="#030303"></path>
  <path d="M43.6841 47.9312C43.6841 48.3144 44.0673 48.6976 44.4505 48.6976H61.4387C61.8219 48.6976 62.2051 48.3144 62.2051 47.9312C62.2051 47.548 61.8219 47.1648 61.4387 47.1648H44.4505C44.0673 47.1648 43.6841 47.548 43.6841 47.9312Z" fill="#030303"></path>
  <path d="M61.4387 50.358H44.4505C44.0673 50.358 43.6841 50.7412 43.6841 51.1244C43.6841 51.5076 44.0673 51.8908 44.4505 51.8908H61.4387C61.8219 51.8908 62.2051 51.5076 62.2051 51.1244C62.2051 50.7412 61.9496 50.358 61.4387 50.358Z" fill="#030303"></path>
  <path d="M61.4387 53.5513H44.4505C44.0673 53.5513 43.6841 53.9345 43.6841 54.3177C43.6841 54.7009 44.0673 55.0841 44.4505 55.0841H61.4387C61.8219 55.0841 62.2051 54.7009 62.2051 54.3177C62.2051 53.9345 61.9496 53.5513 61.4387 53.5513Z" fill="#030303"></path>
  <path d="M67.825 10.5059C70.5073 10.5059 72.6788 8.33447 72.6788 5.65212C72.6788 2.96977 70.5073 0.79834 67.825 0.79834C65.1426 0.79834 62.9712 2.96977 62.9712 5.65212C62.9712 8.33447 65.2704 10.5059 67.825 10.5059ZM67.825 2.45884C69.6132 2.45884 71.0182 3.86389 71.0182 5.65212C71.0182 7.44036 69.6132 8.8454 67.825 8.8454C66.0367 8.8454 64.6317 7.44036 64.6317 5.65212C64.6317 3.86389 66.0367 2.45884 67.825 2.45884Z" fill="#030303"></path>
  <path d="M9.70771 12.0388C11.8791 12.0388 13.6674 10.2505 13.6674 8.07911C13.6674 5.90768 11.8791 4.11945 9.70771 4.11945C7.53628 4.11945 5.74805 5.90768 5.74805 8.07911C5.74805 10.2505 7.53628 12.0388 9.70771 12.0388ZM9.70771 5.65222C10.985 5.65222 12.1346 6.67407 12.1346 8.07911C12.1346 9.48415 11.1128 10.506 9.70771 10.506C8.4304 10.506 7.28082 9.48415 7.28082 8.07911C7.28082 6.67407 8.4304 5.65222 9.70771 5.65222Z" fill="#030303"></path>
</svg>
