<?xml version="1.0" encoding="UTF-8"?>
<svg xmlns="http://www.w3.org/2000/svg" width="63" height="94" viewBox="0 0 63 94" fill="none">
  <path d="M38.9944 80.9216H11.2416C10.8903 80.9216 10.539 80.5703 10.539 80.1019V61.9514C3.98141 57.2673 0 49.6558 0 41.4588C0 26.7041 12.7639 14.877 27.8699 16.5164C28.3383 16.5164 28.5725 16.9848 28.5725 17.3361C28.5725 17.8045 28.1041 18.0387 27.7528 18.0387C13.5836 16.5164 1.5223 27.5238 1.5223 41.4588C1.5223 49.1874 5.38662 56.4476 11.71 60.8974C11.9442 61.0145 12.0613 61.2487 12.0613 61.4829V79.3993H38.2918V61.4829C38.2918 61.2487 38.4089 61.0145 38.6431 60.8974C44.9665 56.4476 48.8309 49.1874 48.8309 41.4588C48.8309 40.2878 48.7137 39.1168 48.5966 37.8287C48.4795 37.3603 48.8308 37.009 49.1822 37.009C49.6506 36.8919 50.0019 37.2432 50.0019 37.5945C50.2361 38.8826 50.2361 40.1707 50.2361 41.4588C50.2361 49.5387 46.2546 57.1502 39.697 61.9514V80.1019C39.8141 80.5703 39.4628 80.9216 38.9944 80.9216Z" fill="black"></path>
  <path d="M42.6243 70.4995H7.72839C7.25999 70.4995 6.90869 70.1482 6.90869 69.6798C6.90869 69.2114 7.25999 68.8601 7.72839 68.8601H42.6243C43.0927 68.8601 43.444 69.2114 43.444 69.6798C43.3269 70.1482 42.9756 70.4995 42.6243 70.4995Z" fill="black"></path>
  <path d="M42.6243 75.1835H7.72839C7.25999 75.1835 6.90869 74.8322 6.90869 74.3638C6.90869 73.8954 7.25999 73.5441 7.72839 73.5441H42.6243C43.0927 73.5441 43.444 73.8954 43.444 74.3638C43.444 74.8322 42.9756 75.1835 42.6243 75.1835Z" fill="black"></path>
  <path d="M34.1935 89.1187H16.16C15.6916 89.1187 15.3403 88.7674 15.3403 88.299V80.1019C15.3403 79.6335 15.6916 79.2822 16.16 79.2822H34.1935C34.6619 79.2822 35.0132 79.6335 35.0132 80.1019V88.299C34.8961 88.7674 34.6619 89.1187 34.1935 89.1187ZM16.8626 87.5964H33.3738V80.9216H16.8626V87.5964Z" fill="black"></path>
  <path d="M28.1039 93.1001H22.2489C21.7805 93.1001 21.4292 92.7488 21.4292 92.2804V88.2989C21.4292 87.8305 21.7805 87.4792 22.2489 87.4792H28.1039C28.5723 87.4792 28.9236 87.8305 28.9236 88.2989V92.2804C28.8065 92.7488 28.4552 93.1001 28.1039 93.1001ZM23.0686 91.5778H27.4013V89.1186H23.0686V91.5778Z" fill="black"></path>
  <path d="M25.8792 70.4997H24.474C24.1227 70.4997 23.7714 70.2655 23.7714 69.9142L18.3848 47.5481C18.2677 47.3139 18.3848 47.0797 18.619 46.8455C18.8532 46.6113 19.0874 46.6113 19.3216 46.6113L21.6636 47.1968L24.3569 39.9365C24.474 39.5852 24.7082 39.4681 25.0595 39.4681C25.4108 39.4681 25.645 39.7023 25.7621 39.9365L28.5725 47.1968L31.0316 46.7284C31.2658 46.7284 31.5 46.7284 31.7342 46.9626C31.9684 47.1968 31.9684 47.431 31.9684 47.6652L26.5818 70.0313C26.4647 70.2655 26.2305 70.4997 25.8792 70.4997ZM25.0595 68.9774H25.1766L30.0948 48.3678L28.1041 48.7191C27.7528 48.8362 27.4015 48.602 27.2844 48.2507L24.9424 42.2786L22.7175 48.2507C22.6004 48.602 22.2491 48.8362 21.7807 48.7191L19.9071 48.2507L25.0595 68.9774Z" fill="black"></path>
  <path d="M43.4442 42.6298H40.5167C40.1654 42.6298 39.8141 42.3956 39.8141 41.9272L39.1115 36.8918C38.4089 36.7747 37.7063 36.5405 37.0037 36.3063L33.7249 40.2878C33.4907 40.6391 33.0223 40.6391 32.7881 40.522L30.2119 39.1168C29.8606 38.8826 29.7435 38.5313 29.8606 38.18L31.7342 33.3788C31.1487 32.9104 30.6803 32.3249 30.2119 31.8565L25.4108 33.7301C25.0595 33.8472 24.7081 33.7301 24.4739 33.3788L23.0687 30.8026C22.8345 30.4513 22.9516 30.1 23.3029 29.8658L27.2844 26.7041C27.0502 26.0015 26.816 25.2989 26.6989 24.5963L21.6635 23.7766C21.3122 23.7766 20.9609 23.4253 20.9609 23.074V20.1465C20.9609 19.7952 21.1951 19.4439 21.6635 19.4439L26.6989 18.6242C26.816 17.9216 27.0502 17.219 27.2844 16.5164L23.3029 13.3547C22.9516 13.1205 22.9516 12.6521 23.0687 12.4179L24.4739 9.84166C24.7081 9.49036 25.0595 9.37326 25.4108 9.49036L30.2119 11.364C30.6803 10.7785 31.2658 10.3101 31.7342 9.84166L29.8606 5.04055C29.7435 4.68925 29.8606 4.33794 30.2119 4.10374L32.7881 2.58144C33.1394 2.34724 33.4907 2.46434 33.7249 2.81564L36.8866 6.79705C37.5892 6.56285 38.2918 6.32865 38.9944 6.21155L39.8141 1.17624C39.8141 0.707834 40.1654 0.473633 40.5167 0.473633H43.4442C43.7955 0.473633 44.1468 0.707834 44.1468 1.17624L44.8494 6.21155C45.6691 6.32865 46.3717 6.56285 47.0743 6.79705L50.3531 2.69854C50.5873 2.34724 51.0557 2.34724 51.2899 2.46434L53.749 3.98664C54.1003 4.22084 54.2174 4.57215 54.1003 4.92345L52.2267 9.72456C52.8122 10.193 53.2806 10.7785 53.749 11.2469L58.5502 9.37326C58.9015 9.25616 59.2528 9.37326 59.487 9.72456L60.8922 12.3008C61.1264 12.6521 61.0093 13.0034 60.658 13.2376L56.6765 16.3993C56.9107 17.1019 57.145 17.8045 57.2621 18.5071L62.2974 19.3268C62.6487 19.3268 63 19.6781 63 20.0294V22.9569C63 23.3082 62.7658 23.6595 62.2974 23.6595L57.3791 24.4792C57.262 25.1818 57.0278 25.8844 56.7936 26.587L60.7751 29.7487C61.1264 29.9829 61.1264 30.4513 61.0093 30.6855L59.487 33.2617C59.2528 33.613 58.9015 33.7301 58.5502 33.613L53.749 31.7394C53.2806 32.3249 52.8122 32.7933 52.2267 33.2617L54.1003 38.0628C54.2174 38.4142 54.1003 38.7655 53.749 38.9997L51.1728 40.4049C50.8215 40.6391 50.4702 40.522 50.236 40.1707L47.0743 36.1892C46.3717 36.4234 45.6691 36.6576 44.9665 36.7747L44.2639 41.8101C44.1468 42.2785 43.7955 42.6298 43.4442 42.6298ZM41.2193 41.1075H42.8587L43.5613 36.1892C43.5613 35.8379 43.9126 35.6037 44.1468 35.6037C45.0836 35.4866 46.1375 35.1353 47.0743 34.784C47.4256 34.6669 47.7769 34.784 47.894 35.0182L51.0557 38.8826L52.4609 38.0628L50.5873 33.3788C50.4702 33.0275 50.5873 32.6762 50.8215 32.5591C51.6412 31.8565 52.3438 31.1539 52.9293 30.4513C53.1635 30.2171 53.5148 30.1 53.749 30.2171L58.4331 32.0907L59.2528 30.6855L55.3884 27.5238C55.1542 27.2896 55.0371 26.9383 55.1542 26.7041C55.5055 25.7673 55.7397 24.7134 55.9739 23.7766C55.9739 23.4253 56.3252 23.1911 56.5594 23.1911L61.4777 22.4885V20.8491L56.5594 20.1465C56.2081 20.1465 55.9739 19.7952 55.9739 19.561C55.8568 18.6242 55.6226 17.5703 55.1542 16.6335C55.0371 16.2822 55.1542 15.9309 55.3884 15.8138L59.2528 12.6521L58.5502 11.0127L53.8661 12.8863C53.5148 13.0034 53.1635 12.8863 53.0464 12.6521C52.4609 11.8324 51.7583 11.1298 50.9386 10.5443C50.7044 10.3101 50.5873 9.95876 50.7044 9.72456L52.578 5.04055L51.1728 4.22084L48.0111 8.08516C47.7769 8.31936 47.4256 8.43646 47.1914 8.31936C46.2546 7.96806 45.2007 7.73386 44.2639 7.49966C43.9126 7.49966 43.6784 7.14835 43.6784 6.91415L42.9758 1.99594H41.3364L40.6338 6.91415C40.6338 7.26545 40.2825 7.49966 40.0483 7.49966C39.1115 7.61676 38.1747 7.85096 37.1208 8.31936C36.7695 8.43646 36.4182 8.31936 36.3011 8.08516L33.1394 4.22084L31.7342 5.04055L33.6078 9.72456C33.7249 10.0759 33.6078 10.4272 33.3736 10.5443C32.5539 11.1298 31.8513 11.8324 31.2658 12.6521C31.0316 12.8863 30.6803 13.0034 30.4461 12.8863L25.7621 11.0127L24.9423 12.4179L28.9238 15.5796C29.158 15.8138 29.2751 16.1651 29.158 16.3993C28.8067 17.3361 28.5725 18.2729 28.3383 19.3268C28.3383 19.6781 27.987 19.9123 27.7528 19.9123L22.8345 20.6149V22.2543L27.7528 22.9569C28.1041 22.9569 28.3383 23.3082 28.3383 23.5424C28.4554 24.4792 28.8067 25.5331 29.158 26.4699C29.2751 26.8212 29.158 27.1725 28.9238 27.2896L24.9423 30.4513L25.7621 31.8565L30.4461 29.9829C30.7974 29.8658 31.1487 29.9829 31.2658 30.2171C31.8513 30.9197 32.5539 31.6223 33.3736 32.3249C33.6078 32.5591 33.7249 32.9104 33.6078 33.1446L31.7342 37.8287L33.1394 38.6484L36.3011 34.784C36.5353 34.5498 36.8866 34.4327 37.1208 34.5498C38.0576 34.9011 38.9944 35.1353 40.0483 35.3695C40.3996 35.3695 40.6338 35.7208 40.6338 35.955L41.2193 41.1075ZM42.039 29.7487C37.4721 29.7487 33.842 26.1186 33.842 21.5517C33.842 16.9848 37.4721 13.3547 42.039 13.3547C46.6059 13.3547 50.236 16.9848 50.236 21.5517C50.236 26.0015 46.4888 29.7487 42.039 29.7487ZM42.039 14.877C38.4089 14.877 35.3643 17.9216 35.3643 21.5517C35.3643 25.1818 38.4089 28.2264 42.039 28.2264C45.6691 28.2264 48.7137 25.1818 48.7137 21.5517C48.7137 17.8045 45.6691 14.877 42.039 14.877Z" fill="black"></path>
</svg>
