<?xml version="1.0" encoding="UTF-8"?>
<svg xmlns="http://www.w3.org/2000/svg" width="30" height="30" viewBox="0 0 30 30" fill="none">
  <path d="M14.9998 0C6.72897 0 0 6.72897 0 15C0 23.271 6.72897 30 14.9998 30C23.2708 30 30 23.271 30 15C30 6.72897 23.2708 0 14.9998 0ZM14.9998 28.5206C7.54463 28.5206 1.47944 22.4551 1.47944 15C1.47944 7.54488 7.54463 1.47944 14.9998 1.47944C22.4554 1.47944 28.5206 7.54488 28.5206 15C28.5206 22.4551 22.4554 28.5206 14.9998 28.5206Z" fill="black"></path>
  <path d="M13.3402 14.6651C13.8016 14.4562 14.1673 14.1431 14.4368 13.7252C14.7063 13.3075 14.8411 12.8481 14.8411 12.3478C14.8411 11.8865 14.7319 11.4698 14.5134 11.0984C14.2947 10.7268 14.0213 10.4292 13.6936 10.2058C13.3656 9.98243 12.9941 9.83572 12.5788 9.7652C12.1636 9.69468 11.5336 9.65942 10.6881 9.65942H6.41797V20.3412H10.0537C11.4283 20.3311 12.2955 20.3069 12.655 20.268C13.2281 20.2048 13.7104 20.0359 14.1012 19.7618C14.4925 19.4873 14.8009 19.1202 15.0268 18.6613C15.2527 18.2024 15.3654 17.73 15.3654 17.244C15.3654 16.6271 15.1905 16.0905 14.8409 15.6336C14.4915 15.1777 13.9907 14.8545 13.3402 14.6651ZM8.57449 11.4372H9.81327C10.8284 11.4372 11.4429 11.4493 11.6569 11.4735C12.0162 11.5173 12.2871 11.6426 12.4691 11.8485C12.6513 12.0554 12.7423 12.3236 12.7423 12.6538C12.7423 12.9988 12.6368 13.2769 12.4255 13.4882C12.2142 13.6995 11.9239 13.827 11.5548 13.8709C11.3509 13.8953 10.8287 13.9071 9.98809 13.9071H8.57449V11.4372ZM12.8338 18.0493C12.6321 18.2752 12.371 18.4172 12.0504 18.4756C11.8413 18.5195 11.3482 18.5412 10.5712 18.5412H8.57449V15.6852H10.316C11.2971 15.6852 11.9345 15.7357 12.2287 15.8378C12.5224 15.9399 12.7472 16.1026 12.9026 16.326C13.0579 16.5494 13.1356 16.8216 13.1356 17.1424C13.1358 17.5211 13.0352 17.8234 12.8338 18.0493Z" fill="black"></path>
  <path d="M22.4532 13.3208C21.7534 12.5609 20.799 12.1807 19.5888 12.1807C18.5115 12.1807 17.6206 12.5439 16.9159 13.27C16.2112 13.9962 15.8594 15.0002 15.8594 16.2826C15.8594 17.3562 16.1272 18.2451 16.6637 18.9496C17.3423 19.8289 18.3892 20.2682 19.8031 20.2682C20.6969 20.2682 21.441 20.0727 22.0358 19.6816C22.6305 19.2911 23.3919 18.4831 23.4065 17.7678L21.1974 17.7808C21.0798 18.1694 20.906 18.3008 20.6769 18.4757C20.4466 18.6505 20.1635 18.738 19.8265 18.738C19.3314 18.738 18.9176 18.5694 18.586 18.2318C18.2541 17.8938 18.0807 17.4213 18.0655 16.8145H23.4568C23.4866 15.2458 23.1525 14.0812 22.4532 13.3208ZM18.1029 15.5612C18.0978 15.0029 18.2484 14.5608 18.5547 14.2354C18.8609 13.9101 19.249 13.7474 19.7192 13.7474C20.1579 13.7474 20.5307 13.9015 20.8369 14.21C21.1432 14.5184 21.3042 14.9689 21.3195 15.5612H18.1029Z" fill="black"></path>
  <path d="M21.8386 10.1162H17.5293V11.1585H21.8386V10.1162Z" fill="black"></path>
</svg>
