<?xml version="1.0" encoding="UTF-8"?>
<svg xmlns="http://www.w3.org/2000/svg" width="81" height="80" viewBox="0 0 81 80" fill="none">
  <path d="M78.4644 58.7733C79.2102 58.7733 79.8069 59.37 79.8069 60.1159C79.8069 60.8617 79.2102 61.4584 78.4644 61.4584C77.7185 61.4584 77.1218 60.8617 77.1218 60.1159C77.1218 59.37 77.7185 58.7733 78.4644 58.7733Z" fill="#030303"></path>
  <path d="M72.0502 33.5635C72.7961 33.5635 73.3928 34.1602 73.3928 34.906C73.3928 35.6519 72.7961 36.2486 72.0502 36.2486C71.3044 36.2486 70.7077 35.6519 70.7077 34.906C70.5585 34.1602 71.3044 33.5635 72.0502 33.5635Z" fill="#030303"></path>
  <path d="M63.5476 0C64.2935 0 64.8902 0.596685 64.8902 1.34254C64.8902 2.0884 64.2935 2.68508 63.5476 2.68508C62.8018 2.68508 62.2051 2.0884 62.2051 1.34254C62.2051 0.596685 62.8018 0 63.5476 0Z" fill="#030303"></path>
  <path d="M63.3982 69.0664C64.1441 69.0664 64.7408 69.6631 64.7408 70.4089C64.7408 71.1548 64.1441 71.7515 63.3982 71.7515C62.6524 71.7515 62.0557 71.1548 62.0557 70.4089C62.0557 69.6631 62.6524 69.0664 63.3982 69.0664Z" fill="#030303"></path>
  <path d="M29.5358 10.1437C30.2816 10.1437 30.8783 10.7404 30.8783 11.4862C30.8783 12.2321 30.2816 12.8288 29.5358 12.8288C28.7899 12.8288 28.1932 12.2321 28.1932 11.4862C28.1932 10.7404 28.7899 10.1437 29.5358 10.1437Z" fill="#030303"></path>
  <path d="M4.02736 0C4.77321 0 5.3699 0.596685 5.3699 1.34254C5.3699 2.0884 4.77321 2.68508 4.02736 2.68508C3.2815 2.68508 2.68481 2.0884 2.68481 1.34254C2.68481 0.596685 3.2815 0 4.02736 0Z" fill="#030303"></path>
  <path d="M1.34254 51.1658C2.0884 51.1658 2.68508 51.7625 2.68508 52.5083C2.68508 53.2542 2.0884 53.8509 1.34254 53.8509C0.596685 53.8509 0 53.2542 0 52.5083C0 51.7625 0.596685 51.1658 1.34254 51.1658Z" fill="#030303"></path>
  <path d="M9.39752 37.1438C12.9776 37.1438 16.1102 34.1604 16.1102 30.5803C16.1102 27.0001 13.1268 24.0167 9.39752 24.0167C5.81741 24.0167 2.68481 27.0001 2.68481 30.5803C2.68481 34.3095 5.66824 37.1438 9.39752 37.1438ZM9.39752 25.9559C11.9334 25.9559 14.0218 28.0443 14.0218 30.5803C14.0218 33.1162 11.9334 35.2046 9.39752 35.2046C6.86161 35.2046 4.77321 33.1162 4.77321 30.5803C4.62404 28.0443 6.86161 25.9559 9.39752 25.9559Z" fill="#030303"></path>
  <path d="M81.0003 10.1436C81.0003 7.01101 78.4644 4.4751 75.3318 4.4751C72.1992 4.4751 69.6633 7.01101 69.6633 10.1436C69.6633 13.2762 72.1992 15.6629 75.3318 15.6629C78.4644 15.6629 81.0003 13.2762 81.0003 10.1436ZM75.3318 13.8729C73.2434 13.8729 71.6025 12.232 71.6025 10.1436C71.6025 8.05521 73.2434 6.41432 75.3318 6.41432C77.4202 6.41432 79.0611 8.05521 79.0611 10.1436C79.0611 12.232 77.4202 13.8729 75.3318 13.8729Z" fill="#030303"></path>
  <path d="M67.7234 45.6465C67.8726 41.9172 64.8892 38.9338 61.0107 38.9338C59.0715 38.9338 57.2815 39.6796 56.0881 41.1714C54.1489 39.978 51.9113 39.6796 49.8229 40.1272V35.5028C53.7013 36.0995 57.729 34.9062 60.4141 32.0719C63.3975 29.0885 64.5908 24.6133 63.5466 20.4365C63.3975 20.1382 63.2483 19.8399 62.95 19.8399C58.1765 18.4973 52.8063 20.2874 49.8229 24.4642V17.0056C52.2096 17.304 54.4472 16.4089 56.0881 14.768C58.0273 12.8288 58.7732 9.99456 58.1765 7.30948C58.0273 7.01113 57.8781 6.71279 57.5798 6.71279C54.8947 5.96694 52.0605 6.71279 49.8229 8.80119V5.07191C49.8229 4.62439 49.3754 4.17688 48.9279 4.17688C48.4804 4.17688 48.0328 4.62439 48.0328 5.07191V8.80119C46.2428 6.71279 43.1102 5.96694 40.4251 6.71279C40.1268 6.86196 39.8284 7.01113 39.8284 7.30948C39.0826 9.99456 39.8284 12.8288 41.9168 14.768C43.5577 16.4089 45.7953 17.304 48.182 17.0056V24.4642C45.1986 20.2874 39.8284 18.4973 35.0549 19.8399C34.7566 19.989 34.4583 20.1382 34.4583 20.4365C33.4141 24.6133 34.6074 29.0885 37.5908 32.0719C40.2759 34.757 44.4527 36.0995 48.182 35.5028V40.873C46.9886 41.4697 45.9444 42.3647 45.0494 43.5581C43.2594 41.6189 40.7234 40.5747 38.0384 40.5747C33.8616 40.5747 29.9831 43.4089 28.7897 47.4365C20.287 47.7349 12.8284 52.6575 9.39748 60.4144L4.32565 71.7515C4.17648 72.199 4.32565 72.7957 4.77317 72.9448L19.6903 79.5084C20.1378 79.6575 20.7345 79.5084 20.8837 79.0609L25.2096 69.2156C26.403 66.5305 29.5356 65.3371 32.3699 66.5305C35.3533 67.873 38.4859 68.4697 41.9168 68.4697C45.1986 68.4697 48.3312 67.7238 51.6129 66.3813L70.4085 57.8785C72.7953 56.8343 74.1378 54.4476 74.1378 52.0609C74.1378 48.6299 71.1544 45.7957 67.7234 45.6465ZM62.0549 21.4807C62.8008 24.9117 61.7566 28.3426 59.2207 30.8785C56.8339 33.2653 53.403 34.3095 49.8229 33.7128V28.641C51.3146 23.5691 56.5356 20.2874 62.0549 21.4807ZM56.5356 8.2045C57.1323 12.083 53.8505 15.5139 49.8229 15.0664V12.083C50.8671 9.39787 53.7013 7.75699 56.5356 8.2045ZM41.3201 8.2045C44.1544 7.75699 46.9886 9.2487 48.0328 12.083V15.0664C44.0052 15.6631 40.7234 12.2321 41.3201 8.2045ZM38.635 30.8785C36.2483 28.4918 35.2041 24.9117 35.8008 21.4807C41.0218 20.4365 46.3919 23.5691 47.8837 28.641V33.7128C44.6019 34.3095 41.171 33.2653 38.635 30.8785ZM37.8892 42.3647C40.4251 42.3647 42.6627 43.5581 44.1544 45.6465C44.6019 46.2432 45.4969 46.094 45.7953 45.4973C47.5853 41.768 52.6571 40.7238 55.7897 43.2598C56.2373 43.5581 56.8339 43.5581 57.1323 43.1106C58.0273 41.768 59.519 41.0222 61.0107 41.0222C63.6958 41.0222 65.9334 43.4089 65.635 46.094C64.8892 46.3923 65.1875 46.2432 56.9831 49.9725C51.4638 52.5084 45.0494 52.5084 39.5301 49.9725C38.635 49.6741 35.5024 47.7349 30.4306 47.4365C31.624 44.4531 34.7566 42.3647 37.8892 42.3647ZM69.5135 56.0885L50.7179 64.5912C45.1986 67.1272 38.7842 67.1272 33.2649 64.5912C29.6848 62.9504 25.2096 64.5912 23.5687 68.3205L19.5411 77.2708L6.26488 71.4531L10.8892 61.0111C15.3643 51.0167 27.1489 46.3923 37.4417 50.8675L38.9334 51.4642C44.9002 54.1493 51.9113 54.1493 57.8781 51.4642L65.7842 48.0332C68.9168 46.6907 72.0494 49.0774 72.0494 52.0609C72.1986 53.7017 71.1544 55.3426 69.5135 56.0885Z" fill="#030303"></path>
</svg>
