<?xml version="1.0" encoding="UTF-8"?>
<svg xmlns="http://www.w3.org/2000/svg" width="74" height="94" viewBox="0 0 74 94" fill="none">
  <path d="M73.2862 85.6285V89.5751H66.1479V87.542V85.6285H73.2862Z" stroke="black" stroke-width="1.3" stroke-miterlimit="10" stroke-linecap="round" stroke-linejoin="round"></path>
  <path d="M29.981 89.2163V85.2698H44.0195V89.2163V93.1629H29.981V89.2163Z" stroke="black" stroke-width="1.3" stroke-miterlimit="10" stroke-linecap="round" stroke-linejoin="round"></path>
  <path d="M7.85213 85.6285V87.542V89.5751H0.713867V85.6285H7.85213Z" stroke="black" stroke-width="1.3" stroke-miterlimit="10" stroke-linecap="round" stroke-linejoin="round"></path>
  <path d="M63.5306 53.6973C63.5306 55.1324 62.3409 56.3283 60.9133 56.3283C59.4856 56.3283 58.2959 55.1324 58.2959 53.6973C58.2959 52.2622 59.4856 51.0662 60.9133 51.0662C62.3409 51.0662 63.5306 52.2622 63.5306 53.6973Z" stroke="black" stroke-width="1.3" stroke-miterlimit="10" stroke-linecap="round" stroke-linejoin="round"></path>
  <path d="M37.8327 50.827V53.6973V56.4479H34.5015V53.6973V50.827H37.8327Z" stroke="black" stroke-width="1.3" stroke-miterlimit="10" stroke-linecap="round" stroke-linejoin="round"></path>
  <path d="M14.5145 53.6973C14.5145 55.1324 13.3248 56.3283 11.8971 56.3283C10.4695 56.3283 9.27979 55.1324 9.27979 53.6973C9.27979 52.2622 10.4695 51.0662 11.8971 51.0662C13.3248 51.0662 14.5145 52.2622 14.5145 53.6973Z" stroke="black" stroke-width="1.3" stroke-miterlimit="10" stroke-linecap="round" stroke-linejoin="round"></path>
  <path d="M36.1673 18.5369C37.238 18.5369 38.1898 19.0153 38.9036 19.6133C39.6174 20.3308 39.9743 21.2876 39.9743 22.3639C39.9743 23.4402 39.4984 24.397 38.7846 25.1145C38.0708 25.8321 37.119 26.1909 36.0483 26.1909C34.9775 26.1909 34.0258 25.7125 33.312 25.1145C32.5981 24.397 32.2412 23.4402 32.2412 22.3639C32.2412 21.2876 32.7171 20.3308 33.312 19.6133C34.1447 18.8957 35.0965 18.5369 36.1673 18.5369Z" stroke="black" stroke-width="1.3" stroke-miterlimit="10" stroke-linecap="round" stroke-linejoin="round"></path>
  <path d="M30.2186 29.5395C29.9806 29.4199 29.8617 29.1807 29.6237 29.0611L29.5047 28.9415C29.5047 28.9415 29.5047 28.9415 29.3858 28.8219C29.2668 28.7023 29.2668 28.7023 29.2668 28.5827C29.0289 28.3435 28.9099 28.1044 28.6719 27.8652L28.553 27.7456C28.553 27.626 28.434 27.5064 28.434 27.5064C28.315 27.3868 28.1961 27.2672 28.1961 27.028L28.0771 26.9084V26.7888C27.3633 25.4733 27.0063 24.0382 27.0063 22.4835C27.0063 19.972 28.0771 17.5802 29.7427 15.9059C30.6944 14.9491 31.7652 14.2316 33.0739 13.7532C33.3118 13.6336 33.5498 13.6336 33.7877 13.514C33.7877 13.514 33.7877 13.514 33.9067 13.514H34.0256C34.1446 13.514 34.1446 13.514 34.2636 13.514C34.3826 13.514 34.5015 13.514 34.6205 13.3944C34.8584 13.3944 35.0964 13.2748 35.3343 13.2748C35.4533 13.2748 35.4533 13.2748 35.5723 13.2748C35.8102 13.2748 36.0481 13.2748 36.2861 13.2748C36.524 13.2748 36.762 13.2748 36.9999 13.2748C37.2379 13.2748 37.4758 13.2748 37.7137 13.3944H37.8327H37.9517C38.4276 13.514 38.9034 13.6336 39.3793 13.7532C40.688 14.2316 41.8777 14.9491 42.8295 15.9059C44.4951 17.5802 45.5658 19.8524 45.5658 22.4835C45.5658 24.397 44.971 26.1909 44.0192 27.7456C43.6623 28.224 43.3054 28.7023 42.9485 29.1807C42.7105 29.4199 42.4726 29.5395 42.2346 29.7787C42.1157 29.8983 41.9967 30.0178 41.7588 30.1374C41.6398 30.257 41.5208 30.257 41.4018 30.3766C41.1639 30.4962 40.926 30.6158 40.688 30.855C40.4501 30.9746 40.2121 31.0942 39.9742 31.2138C39.6173 30.9746 39.3793 31.0942 39.2604 31.0942H39.1414C39.0224 31.0942 39.0224 31.0942 38.9035 31.2138C38.7845 31.2138 38.6655 31.3334 38.4276 31.3334C38.3086 31.3334 38.0707 31.453 37.9517 31.453C37.7137 31.453 37.5948 31.5726 37.3568 31.5726C37.1189 31.5726 36.9999 31.5726 36.762 31.6921C36.524 31.6921 36.2861 31.6921 36.0481 31.6921C35.8102 31.6921 35.5723 31.6921 35.3343 31.6921C35.0964 31.6921 34.9774 31.6921 34.7395 31.5726C34.1446 31.453 33.5498 31.3334 32.9549 31.0942C32.8359 31.0942 32.598 30.9746 32.479 30.855C32.2411 30.7354 31.8842 30.6158 31.6462 30.4962C31.4083 30.3766 31.1703 30.257 30.9324 30.0178C30.9324 30.0178 30.9324 30.0178 30.8134 30.0178C30.6944 29.8983 30.5755 29.7787 30.2186 29.5395ZM30.2186 29.5395C30.3375 29.5395 30.3375 29.5395 30.2186 29.5395ZM32.2411 26.3105C33.1928 27.2672 34.6205 27.9848 36.0481 27.9848C37.5948 27.9848 38.9035 27.3868 39.8552 26.4301C40.807 25.4733 41.4018 24.0382 41.4018 22.6031C41.4018 21.0484 40.807 19.7329 39.8552 18.6565C38.9035 17.6998 37.4758 17.1018 36.0481 17.1018C34.5015 17.1018 33.1928 17.6998 32.2411 18.7761C31.2893 19.7329 30.6944 21.168 30.6944 22.6031C30.6944 23.9186 31.2893 25.2341 32.2411 26.3105Z" stroke="black" stroke-width="1.3" stroke-miterlimit="10" stroke-linecap="round" stroke-linejoin="round"></path>
  <path d="M37.9516 2.39187C38.4274 2.87025 38.6654 3.46821 38.6654 4.30536V11.8397L37.9516 11.7201C37.7136 11.7201 37.4757 11.6005 37.2377 11.6005C37.1188 11.6005 36.9998 11.6005 36.7619 11.6005C36.5239 11.6005 36.286 11.6005 36.048 11.6005C35.8101 11.6005 35.5721 11.6005 35.3342 11.6005C35.2152 11.6005 35.0963 11.6005 34.9773 11.6005C34.7393 11.6005 34.5014 11.6005 34.1445 11.7201C33.9065 11.7201 33.6686 11.8397 33.4307 11.8397V4.30536C33.4307 3.5878 33.7876 2.87025 34.2635 2.39187C34.7393 1.9135 35.3342 1.67432 36.167 1.67432C36.8808 1.67432 37.4757 1.9135 37.9516 2.39187Z" stroke="black" stroke-width="1.3" stroke-miterlimit="10" stroke-linecap="round" stroke-linejoin="round"></path>
  <path d="M47.3507 71.7557L37.1191 33.2468C37.3571 33.2468 37.595 33.2468 37.714 33.1272C38.3089 33.0077 38.9037 32.8881 39.3796 32.6489C39.6175 32.6489 39.7365 32.5293 39.9744 32.4097C40.5693 32.1705 41.1642 31.8117 41.759 31.4529C41.997 31.3333 42.2349 31.2138 42.3539 30.9746C42.5918 30.7354 42.8297 30.4962 43.1867 30.3766C43.1867 30.3766 43.3056 30.3766 43.3056 30.257C43.4246 30.1374 43.5436 30.0178 43.6625 29.8982C43.7815 29.7786 43.9005 29.6591 43.9005 29.5395C43.9005 29.5395 43.9005 29.5395 44.0195 29.4199C44.1384 29.3003 44.2574 29.1807 44.3764 28.9415L44.4953 28.8219L55.3217 69.3639C55.6786 70.4402 55.4407 71.6361 54.8458 72.5929C54.3699 73.5496 53.4182 74.2672 52.3474 74.5064C51.2767 74.7456 50.087 74.626 49.1352 74.028C48.4214 73.7888 47.7076 72.9517 47.3507 71.7557Z" stroke="black" stroke-width="1.3" stroke-miterlimit="10" stroke-linecap="round" stroke-linejoin="round"></path>
  <path d="M22.8424 74.3868C21.8906 74.8652 20.8199 75.1044 19.6302 74.8652C18.5594 74.5064 17.6077 73.7889 17.1318 72.9517C16.5369 71.995 16.418 70.9186 16.6559 69.7227L27.4823 29.1807C27.4823 29.1807 27.4823 29.1807 27.6013 29.3003C27.7202 29.4199 27.8392 29.6591 28.0771 29.7787C28.0771 29.8983 28.1961 29.8983 28.1961 30.0179C28.1961 30.0179 28.1961 30.1375 28.3151 30.1375L28.434 30.2571C28.553 30.3767 28.672 30.4962 28.791 30.6158C29.0289 30.855 29.2668 31.0942 29.5048 31.2138C30.0996 31.5726 30.6945 31.9314 31.2894 32.2901C31.5273 32.4097 31.7652 32.5293 32.0032 32.6489C32.1221 32.7685 32.3601 32.7685 32.598 32.8881C32.836 33.0077 32.9549 33.0077 33.1929 33.1273C33.4308 33.1273 33.5498 33.2469 33.7877 33.2469C34.0257 33.2469 34.2636 33.3665 34.5016 33.3665C34.6205 33.3665 34.8585 33.3665 34.9775 33.3665L24.8649 71.7558C24.508 72.9517 23.7942 73.7889 22.8424 74.3868Z" stroke="black" stroke-width="1.3" stroke-miterlimit="10" stroke-linecap="round" stroke-linejoin="round"></path>
  <path d="M19.3922 75.3436L19.0353 76.3003L15.7041 86.2265" stroke="black" stroke-width="1.3" stroke-miterlimit="2.6131" stroke-linecap="round" stroke-linejoin="round"></path>
  <path d="M53.061 75.1044L53.418 76.1807L56.6302 86.2265" stroke="black" stroke-width="1.3" stroke-miterlimit="2.6131" stroke-linecap="round" stroke-linejoin="round"></path>
  <path d="M52.2285 53.6973H52.9423H58.296" stroke="black" stroke-width="1.3" stroke-miterlimit="2.6131" stroke-linecap="round" stroke-linejoin="round"></path>
  <path d="M37.833 53.6973H40.9263H41.5211" stroke="black" stroke-width="1.3" stroke-miterlimit="2.6131" stroke-linecap="round" stroke-linejoin="round"></path>
  <path d="M30.5757 53.6973H31.2895H34.5017" stroke="black" stroke-width="1.3" stroke-miterlimit="2.6131" stroke-linecap="round" stroke-linejoin="round"></path>
  <path d="M14.0386 53.6973H14.5145H19.2733H20.344" stroke="black" stroke-width="1.3" stroke-miterlimit="2.6131" stroke-linecap="round" stroke-linejoin="round"></path>
  <path d="M11.8971 51.0662C13.3248 51.0662 14.5145 52.2622 14.5145 53.6973C14.5145 55.1324 13.3248 56.3283 11.8971 56.3283C10.4695 56.3283 9.27979 55.1324 9.27979 53.6973C9.27979 52.2622 10.4695 51.0662 11.8971 51.0662Z" stroke="black" stroke-width="1.3" stroke-miterlimit="2.6131" stroke-linecap="round" stroke-linejoin="round"></path>
  <path d="M60.9133 51.0662C62.3409 51.0662 63.5306 52.2622 63.5306 53.6973C63.5306 55.1324 62.3409 56.3283 60.9133 56.3283C59.4856 56.3283 58.2959 55.1324 58.2959 53.6973C58.2959 52.2622 59.3666 51.0662 60.9133 51.0662Z" stroke="black" stroke-width="1.3" stroke-miterlimit="2.6131" stroke-linecap="round" stroke-linejoin="round"></path>
  <path d="M34.5015 53.6973V50.827H37.8327V53.6973V56.4479H34.5015V53.6973Z" stroke="black" stroke-width="1.3" stroke-miterlimit="2.6131" stroke-linecap="round" stroke-linejoin="round"></path>
  <path d="M29.981 89.2163V85.2698H44.0195V89.2163V93.1629H29.981V89.2163Z" stroke="black" stroke-width="1.3" stroke-miterlimit="2.6131" stroke-linecap="round" stroke-linejoin="round"></path>
  <path d="M66.1479 85.6285H73.2862V89.5751H66.1479V87.542V85.6285Z" stroke="black" stroke-width="1.3" stroke-miterlimit="2.6131" stroke-linecap="round" stroke-linejoin="round"></path>
  <path d="M44.0195 89.2164L56.8684 88.2596L66.1481 87.5421" stroke="black" stroke-width="1.3" stroke-miterlimit="2.6131" stroke-linecap="round" stroke-linejoin="round"></path>
  <path d="M7.85213 85.6285H0.713867V89.5751H7.85213V87.542V85.6285Z" stroke="black" stroke-width="1.3" stroke-miterlimit="2.6131" stroke-linecap="round" stroke-linejoin="round"></path>
  <path d="M29.9807 89.2164L15.5852 88.14L7.85205 87.5421" stroke="black" stroke-width="1.3" stroke-miterlimit="2.6131" stroke-linecap="round" stroke-linejoin="round"></path>
</svg>
