<?xml version="1.0" encoding="UTF-8"?>
<svg xmlns="http://www.w3.org/2000/svg" width="83" height="87" viewBox="0 0 83 87" fill="none">
  <path d="M49.418 74.3445H33.5259C33.0905 74.3445 32.7639 74.018 32.7639 73.6914V17.0894C32.7639 16.9806 32.7639 16.8717 32.8728 16.7629L40.8188 0.4354C40.9277 0.10885 41.2542 0 41.4719 0C41.6896 0 42.0162 0.10885 42.125 0.4354L50.0711 16.7629C50.0711 16.8717 50.1799 16.9806 50.1799 17.0894V73.5826C50.1799 74.018 49.8534 74.3445 49.418 74.3445ZM34.179 72.9295H48.656V17.1983L41.4719 2.28585L34.179 17.1983V72.9295Z" fill="black"></path>
  <path d="M46.2613 20.0289C46.0436 20.0289 45.9347 19.9201 45.717 19.8112L43.9754 18.0696L42.2338 19.8112C42.0161 20.0289 41.5807 20.1378 41.363 19.9201L38.6418 17.9608L37.009 19.3758C36.7913 19.5935 36.4648 19.5935 36.1382 19.4847L32.9816 17.6342C32.655 17.4165 32.5462 16.9811 32.7639 16.6546C32.9816 16.328 33.417 16.2192 33.7435 16.4369L36.3559 18.0696L38.0975 16.5457C38.3152 16.328 38.7506 16.328 38.9683 16.5457L41.6896 18.505L43.54 16.6546C43.6489 16.5457 43.8666 16.4369 44.0843 16.4369C44.302 16.4369 44.4108 16.5457 44.6285 16.6546L46.479 18.505L49.2002 16.5457C49.5268 16.328 49.9622 16.4369 50.1799 16.6546C50.3976 16.9811 50.2887 17.4165 50.071 17.6342L46.9144 19.9201C46.5878 20.0289 46.3701 20.0289 46.2613 20.0289Z" fill="black"></path>
  <path d="M45.9348 74.3442C45.4994 74.3442 45.1729 74.0177 45.1729 73.6911V19.1573C45.1729 18.7219 45.4994 18.5042 45.9348 18.5042C46.3702 18.5042 46.6968 18.8308 46.6968 19.1573V73.6911C46.6968 74.0177 46.3702 74.3442 45.9348 74.3442Z" fill="black"></path>
  <path d="M42.016 74.3448C41.5806 74.3448 41.3629 74.0182 41.2541 73.6916L41.0364 18.9401C41.0364 18.5047 41.3629 18.1782 41.6895 18.1782C42.1249 18.1782 42.3426 18.5047 42.4514 18.8313L42.6691 73.5828C42.778 74.0182 42.4514 74.3448 42.016 74.3448Z" fill="black"></path>
  <path d="M36.7912 74.345C36.3558 74.345 36.0293 74.0185 36.0293 73.6919V18.1784C36.0293 17.743 36.3558 17.5253 36.7912 17.5253C37.2266 17.5253 37.5532 17.8519 37.5532 18.1784V73.5831C37.4443 74.0185 37.2266 74.345 36.7912 74.345Z" fill="black"></path>
  <path d="M43.5401 86.0999H39.4038C35.8117 86.0999 32.7639 83.161 32.7639 79.4601V73.5822C32.7639 73.1468 33.0905 72.9291 33.5259 72.9291H49.418C49.8534 72.9291 50.1799 73.2556 50.1799 73.5822V79.4601C50.1799 83.161 47.1321 86.0999 43.5401 86.0999ZM34.179 74.3441V79.4601C34.179 82.2902 36.4648 84.6849 39.4038 84.6849H43.5401C46.3702 84.6849 48.7649 82.399 48.7649 79.4601V74.2353H34.179V74.3441Z" fill="black"></path>
  <path d="M19.7018 14.3688H9.03455C8.59915 14.3688 8.38145 14.0423 8.38145 13.7157V2.93956C8.2726 2.50416 8.59915 2.17761 9.03455 2.17761H19.7018C20.1372 2.17761 20.3549 2.50416 20.3549 2.83071V13.6069C20.4638 14.0423 20.1372 14.3688 19.7018 14.3688ZM9.68765 12.9538H18.9399V3.59266H9.68765V12.9538Z" fill="black"></path>
  <path d="M73.8003 85.9913H63.133C62.6976 85.9913 62.3711 85.6647 62.3711 85.3382V74.562C62.3711 74.1266 62.6976 73.9089 63.133 73.9089H73.8003C74.2357 73.9089 74.5623 74.2355 74.5623 74.562V85.3382C74.4534 85.6647 74.1269 85.9913 73.8003 85.9913ZM63.7861 84.5762H73.0384V75.2151H63.7861V84.5762Z" fill="black"></path>
  <path d="M73.8003 14.3687H63.133C62.6976 14.3687 62.3711 14.0421 62.3711 13.7156V2.93942C62.3711 2.50402 62.6976 2.28632 63.133 2.28632H73.8003C74.2357 2.28632 74.5623 2.61287 74.5623 2.93942V13.7156C74.4534 14.0421 74.1269 14.3687 73.8003 14.3687ZM63.7861 12.9536H73.0384V3.59252H63.7861V12.9536Z" fill="black"></path>
  <path d="M19.7017 85.9913H9.03445C8.59905 85.9913 8.38135 85.6647 8.38135 85.3382V74.562C8.38135 74.1266 8.7079 73.9089 9.03445 73.9089H19.7017C20.1371 73.9089 20.3548 74.2355 20.3548 74.562V85.3382C20.4637 85.6647 20.1371 85.9913 19.7017 85.9913ZM9.68755 84.5762H18.9398V75.2151H9.68755V84.5762Z" fill="black"></path>
  <path d="M63.0241 80.6573H49.8533C49.4179 80.6573 49.0913 80.3308 49.0913 80.0042C49.0913 79.5688 49.4179 79.2423 49.8533 79.2423H63.0241C63.4595 79.2423 63.7861 79.5688 63.7861 80.0042C63.7861 80.3308 63.4595 80.6573 63.0241 80.6573ZM33.3081 80.6573H19.7018C19.2664 80.6573 19.0487 80.3308 19.0487 80.0042C19.0487 79.5688 19.3753 79.2423 19.7018 79.2423H33.3081C33.7435 79.2423 34.07 79.5688 34.07 80.0042C33.9612 80.3308 33.6346 80.6573 33.3081 80.6573ZM68.4666 75.3237C68.0312 75.3237 67.7047 74.9971 67.7047 74.6706V51.159C67.7047 50.7236 68.0312 50.5059 68.4666 50.5059C68.902 50.5059 69.2286 50.8325 69.2286 51.159V74.5617C69.1197 74.9971 68.7932 75.3237 68.4666 75.3237ZM14.3682 75.3237C13.9328 75.3237 13.7151 74.9971 13.7151 74.6706V51.159C13.7151 50.7236 14.0416 50.5059 14.3682 50.5059C14.6947 50.5059 15.0213 50.8325 15.0213 51.159V74.5617C15.0213 74.9971 14.6947 75.3237 14.3682 75.3237ZM68.4666 34.6138C68.0312 34.6138 67.7047 34.2873 67.7047 33.9607V13.6058C67.7047 13.1704 68.0312 12.9527 68.4666 12.9527C68.902 12.9527 69.2286 13.2792 69.2286 13.6058V33.9607C69.1197 34.2873 68.7932 34.6138 68.4666 34.6138ZM14.3682 34.6138C13.9328 34.6138 13.7151 34.2873 13.7151 33.9607V13.6058C13.7151 13.1704 14.0416 12.9527 14.3682 12.9527C14.6947 12.9527 15.0213 13.2792 15.0213 13.6058V33.9607C15.0213 34.2873 14.6947 34.6138 14.3682 34.6138ZM63.0241 8.92522H45.1727C44.7373 8.92522 44.4108 8.59867 44.4108 8.27212C44.4108 7.94557 44.7373 7.61902 45.1727 7.61902H63.133C63.5684 7.61902 63.8949 7.94557 63.8949 8.27212C63.8949 8.59867 63.4595 8.92522 63.0241 8.92522ZM37.7709 8.92522H19.7018C19.2664 8.92522 19.0487 8.59867 19.0487 8.27212C19.0487 7.94557 19.3753 7.61902 19.7018 7.61902H37.7709C38.2063 7.61902 38.5329 7.94557 38.5329 8.27212C38.5329 8.59867 38.2063 8.92522 37.7709 8.92522Z" fill="black"></path>
  <path d="M82.2906 51.9221H49.4179C48.9825 51.9221 48.656 51.5955 48.656 51.269V33.9618C48.656 33.5264 48.9825 33.3087 49.4179 33.3087H82.1818C82.6172 33.3087 82.9437 33.6353 82.9437 33.9618V51.1601C82.9437 51.5955 82.6172 51.9221 82.2906 51.9221ZM50.1798 50.507H81.5287V34.6149H50.1798V50.507ZM33.5258 51.9221H0.6531C0.32655 51.9221 0 51.5955 0 51.1601V33.9618C0 33.5264 0.32655 33.3087 0.6531 33.3087H33.417C33.8524 33.3087 34.1789 33.6353 34.1789 33.9618V51.1601C34.1789 51.5955 33.9612 51.9221 33.5258 51.9221ZM1.41505 50.507H32.7639V34.6149H1.41505V50.507Z" fill="black"></path>
  <path d="M74.6711 51.9217C74.2357 51.9217 73.9092 51.5951 73.9092 51.2686V42.0163C73.9092 41.5809 74.2357 41.3632 74.6711 41.3632C75.1065 41.3632 75.4331 41.6898 75.4331 42.0163V51.1597C75.3242 51.5951 74.9977 51.9217 74.6711 51.9217Z" fill="black"></path>
  <path d="M67.9224 51.9219C67.487 51.9219 67.1604 51.5954 67.1604 51.2688V45.6086C67.1604 45.1732 67.487 44.9555 67.9224 44.9555C68.3578 44.9555 68.6843 45.2821 68.6843 45.6086V51.16C68.6843 51.5954 68.3578 51.9219 67.9224 51.9219Z" fill="black"></path>
  <path d="M61.1738 51.9217C60.7384 51.9217 60.4119 51.5951 60.4119 51.2686V42.0163C60.4119 41.5809 60.7384 41.3632 61.1738 41.3632C61.6092 41.3632 61.9358 41.6898 61.9358 42.0163V51.1597C61.9358 51.5951 61.6092 51.9217 61.1738 51.9217Z" fill="black"></path>
  <path d="M54.5339 51.9219C54.0985 51.9219 53.772 51.5954 53.772 51.2688V45.6086C53.772 45.1732 54.0985 44.9555 54.5339 44.9555C54.9693 44.9555 55.2959 45.2821 55.2959 45.6086V51.16C55.187 51.5954 54.8605 51.9219 54.5339 51.9219Z" fill="black"></path>
  <path d="M27.648 51.9219C27.2126 51.9219 26.9949 51.5954 26.9949 51.2688V45.6086C26.9949 45.1732 27.3214 44.9555 27.648 44.9555C28.0834 44.9555 28.4099 45.2821 28.4099 45.6086V51.16C28.3011 51.5954 27.9745 51.9219 27.648 51.9219Z" fill="black"></path>
  <path d="M20.8992 51.9217C20.4638 51.9217 20.2461 51.5951 20.2461 51.2686V42.0163C20.2461 41.5809 20.5726 41.3632 20.8992 41.3632C21.2257 41.3632 21.5523 41.6898 21.5523 42.0163V51.1597C21.5523 51.5951 21.2257 51.9217 20.8992 51.9217Z" fill="black"></path>
  <path d="M14.1504 51.9219C13.715 51.9219 13.4973 51.5954 13.4973 51.2688V45.6086C13.4973 45.1732 13.8239 44.9555 14.1504 44.9555C14.477 44.9555 14.8035 45.2821 14.8035 45.6086V51.16C14.9124 51.5954 14.5858 51.9219 14.1504 51.9219Z" fill="black"></path>
  <path d="M7.40188 51.9217C6.96648 51.9217 6.74878 51.5951 6.74878 51.2686V42.0163C6.74878 41.5809 7.07533 41.3632 7.40188 41.3632C7.72843 41.3632 8.05498 41.6898 8.05498 42.0163V51.1597C8.16383 51.5951 7.83728 51.9217 7.40188 51.9217Z" fill="black"></path>
</svg>
