<?xml version="1.0" encoding="UTF-8"?>
<svg xmlns="http://www.w3.org/2000/svg" width="65" height="89" viewBox="0 0 65 89" fill="none">
  <path d="M47.1072 76.1715H19.8233C19.3779 76.1715 19.0438 75.8374 19.0438 75.392V57.4626C12.5847 52.7853 8.68701 45.324 8.68701 37.3059C8.68701 23.6082 19.8233 12.5833 33.4096 12.5833C47.1072 12.5833 58.1322 23.7196 58.1322 37.3059C58.1322 45.324 54.2345 52.7853 47.7754 57.4626V75.392C47.8868 75.8374 47.5527 76.1715 47.1072 76.1715ZM20.4915 74.7238H46.4391V57.0171C46.4391 56.7944 46.5504 56.5717 46.7731 56.4603C53.0095 52.1171 56.7958 44.8786 56.7958 37.3059C56.7958 24.4991 46.3277 14.031 33.521 14.031C20.7142 14.031 10.2461 24.4991 10.2461 37.3059C10.2461 44.9899 14.0324 52.1171 20.2688 56.4603C20.4915 56.5717 20.6029 56.7944 20.6029 57.0171V74.7238H20.4915Z" fill="black"></path>
  <path d="M50.6707 65.9263H16.2595C15.8141 65.9263 15.48 65.5922 15.48 65.1468C15.48 64.7013 15.8141 64.3672 16.2595 64.3672H50.6707C51.1161 64.3672 51.4502 64.7013 51.4502 65.1468C51.3389 65.5922 51.0048 65.9263 50.6707 65.9263Z" fill="black"></path>
  <path d="M50.6707 70.492H16.2595C15.8141 70.492 15.48 70.1579 15.48 69.7125C15.48 69.267 15.8141 68.9329 16.2595 68.9329H50.6707C51.1161 68.9329 51.4502 69.267 51.4502 69.7125C51.3389 70.1579 51.0048 70.492 50.6707 70.492Z" fill="black"></path>
  <path d="M42.3186 84.1905H24.5005C24.055 84.1905 23.7209 83.8564 23.7209 83.411V75.2815C23.7209 74.836 24.055 74.502 24.5005 74.502H42.3186C42.764 74.502 43.0981 74.836 43.0981 75.2815V83.5223C43.0981 83.8564 42.764 84.1905 42.3186 84.1905ZM25.28 82.7428H41.6504V76.061H25.28V82.7428Z" fill="black"></path>
  <path d="M36.305 88.2001H30.6255C30.18 88.2001 29.8459 87.866 29.8459 87.4205V83.5228C29.8459 83.0774 30.18 82.7433 30.6255 82.7433H36.305C36.7505 82.7433 37.0845 83.0774 37.0845 83.5228V87.5319C37.0845 87.866 36.7505 88.2001 36.305 88.2001ZM31.2937 86.7523H35.5255V84.191H31.2937V86.7523Z" fill="black"></path>
  <path d="M32.1846 9.24312C31.7391 9.24312 31.405 8.90903 31.405 8.46358V0.668178C31.405 0.334089 31.7391 0 32.1846 0C32.63 0 32.9641 0.334089 32.9641 0.77954V8.57494C32.8527 8.90903 32.63 9.24312 32.1846 9.24312Z" fill="black"></path>
  <path d="M41.5389 10.1348C41.4276 10.1348 41.4276 10.1348 41.3162 10.1348C40.9821 10.0234 40.648 9.68935 40.7594 9.2439L42.7639 1.78258C42.8753 1.33713 43.3207 1.1144 43.6548 1.22577C43.9889 1.33713 44.323 1.67122 44.2116 2.11667L42.2071 9.57799C42.0957 9.91207 41.7617 10.1348 41.5389 10.1348Z" fill="black"></path>
  <path d="M50.2254 13.364C50.1141 13.364 50.0027 13.364 49.8913 13.2526C49.5572 13.0299 49.4459 12.5844 49.6686 12.2504L53.5663 5.56858C53.789 5.23449 54.2345 5.12313 54.5686 5.34586C54.9027 5.56858 55.014 6.01403 54.7913 6.34812L50.8936 13.0299C50.7822 13.2526 50.5595 13.364 50.2254 13.364Z" fill="black"></path>
  <path d="M57.9094 18.8203C57.6867 18.8203 57.5753 18.7089 57.3526 18.5976C57.0185 18.2635 57.0185 17.818 57.3526 17.5953L62.8094 12.1385C63.1435 11.8044 63.5889 11.8044 63.8117 12.1385C64.1458 12.4726 64.1458 12.918 63.8117 13.1408L58.3549 18.5976C58.2435 18.7089 58.0208 18.8203 57.9094 18.8203Z" fill="black"></path>
  <path d="M7.23926 20.6024C7.01654 20.6024 6.90517 20.4911 6.68245 20.3797L1.22566 14.9229C0.891575 14.5888 0.891575 14.1434 1.22566 13.9207C1.55975 13.5866 2.0052 13.5866 2.22793 13.9207L7.68472 19.3775C8.0188 19.7115 8.0188 20.157 7.68472 20.3797C7.57335 20.6024 7.46199 20.6024 7.23926 20.6024Z" fill="black"></path>
  <path d="M14.4779 14.7004C14.2552 14.7004 14.0324 14.589 13.8097 14.3663L9.91202 7.57316C9.68929 7.23907 9.80065 6.79362 10.1347 6.57089C10.5802 6.34817 11.0256 6.45953 11.137 6.79362L15.0347 13.5868C15.2574 13.9208 15.1461 14.3663 14.812 14.589C14.7006 14.589 14.5893 14.7004 14.4779 14.7004Z" fill="black"></path>
  <path d="M22.9416 10.8031C22.6075 10.8031 22.3848 10.5803 22.2734 10.2463L20.2689 2.78494C20.1575 2.45086 20.3802 2.0054 20.8257 1.89404C21.1598 1.78268 21.6052 2.0054 21.7166 2.45086L23.7211 9.91217C23.8325 10.2463 23.6097 10.6917 23.1643 10.8031C23.0529 10.8031 23.0529 10.8031 22.9416 10.8031Z" fill="black"></path>
  <path d="M34.5231 65.9274H32.4072C32.0731 65.9274 31.8504 65.7046 31.739 65.4819L23.164 43.4321C23.0527 43.2093 23.164 42.8753 23.2754 42.7639C23.3868 42.5412 23.7209 42.4298 23.9436 42.5412L28.2867 43.098L32.7413 35.748C32.8526 35.5253 33.0754 35.4139 33.4094 35.4139C33.6322 35.4139 33.8549 35.5253 34.0776 35.748L38.6435 43.098L43.098 42.5412C43.3207 42.5412 43.6548 42.6525 43.7662 42.7639C43.8776 42.9866 43.9889 43.2093 43.8776 43.4321L35.3026 65.4819C35.0799 65.7046 34.8572 65.9274 34.5231 65.9274ZM32.8526 64.4797H34.0776L41.9844 44.1002L38.198 44.5457C37.864 44.5457 37.6412 44.4343 37.5299 44.2116L33.4094 37.5298L29.289 44.323C29.0663 44.4343 28.8436 44.5457 28.5095 44.5457L24.9459 43.9889L32.8526 64.4797Z" fill="black"></path>
</svg>
