<?xml version="1.0" encoding="UTF-8"?>
<svg xmlns="http://www.w3.org/2000/svg" width="69" height="93" viewBox="0 0 69 93" fill="none">
  <path d="M25.9616 51.8043C16.6485 51.8043 8.15023 46.7985 3.49367 38.8823C0.00123979 32.9452 -0.930074 25.9604 0.932553 19.2083C2.67877 12.5727 6.98609 6.98485 12.9232 3.49243C16.8813 1.16414 21.305 0 25.8452 0C35.0419 0 43.6566 5.00581 48.3131 12.922C51.8056 18.8591 52.7369 25.844 50.8742 32.596C49.128 39.2316 44.8207 44.8195 38.7672 48.3119C34.9255 50.6402 30.5018 51.8043 25.9616 51.8043ZM25.8452 1.51338C21.5379 1.51338 17.347 2.67753 13.6217 4.77298C8.03382 8.03258 4.07574 13.2712 2.32952 19.5576C0.699725 25.844 1.51462 32.3631 4.77422 38.0674C9.08155 45.6344 17.2305 50.2909 25.9616 50.2909C30.2689 50.2909 34.4598 49.1268 38.1851 47.0313C43.773 43.7717 47.8475 38.5331 49.5937 32.2467C51.2235 25.9604 50.4086 19.4412 47.149 13.7369C42.7252 6.16995 34.5763 1.51338 25.8452 1.51338Z" fill="black"></path>
  <path d="M42.2585 60.7682C42.142 60.7682 42.142 60.7682 42.0256 60.7682C41.7928 60.7682 41.6764 60.5353 41.56 60.4189L35.1572 49.3596C35.0408 49.1267 35.0408 48.8939 35.0408 48.7775C35.1572 48.5447 35.2736 48.4283 35.5064 48.3118C36.4377 47.9626 37.2526 47.4969 38.0675 47.0313C38.766 46.5656 39.5809 46.1 40.5122 45.5179C40.6287 45.4015 40.8615 45.4015 41.0943 45.4015C41.3271 45.4015 41.4436 45.6343 41.56 45.7507L47.9628 56.8101C48.1956 57.1593 48.0792 57.625 47.7299 57.8578L42.6077 60.7682C42.4913 60.7682 42.3749 60.7682 42.2585 60.7682ZM36.9034 49.3596L42.4913 59.0219L46.2165 56.8101L40.7451 47.1477C40.0466 47.6134 39.4645 47.9626 38.8824 48.3118C38.184 48.6611 37.6019 49.0103 36.9034 49.3596Z" fill="black"></path>
  <path d="M55.064 92.2C54.9476 92.2 54.9476 92.2 54.8312 92.2C54.5984 92.2 54.4819 91.9672 54.3655 91.8507L37.7183 62.7472C37.4855 62.398 37.6019 61.9323 37.9511 61.6995L50.7567 54.3654C50.8731 54.249 51.1059 54.249 51.3388 54.249C51.5716 54.249 51.688 54.4818 51.8044 54.5982L68.4517 83.7018C68.6845 84.051 68.5681 84.5167 68.2188 84.7495L55.4133 92.0836C55.2968 92.0836 55.1804 92.2 55.064 92.2ZM39.3481 62.5144L55.2968 90.3374L66.8219 83.7018L50.8731 55.8788L39.3481 62.5144Z" fill="black"></path>
  <path d="M57.2758 83.7018C55.5295 83.7018 54.1326 82.3048 54.1326 80.5586C54.1326 78.8124 55.5295 77.4154 57.2758 77.4154C59.022 77.4154 60.4189 78.8124 60.4189 80.5586C60.4189 82.3048 58.9056 83.7018 57.2758 83.7018ZM57.2758 78.9288C56.3444 78.9288 55.646 79.6273 55.646 80.5586C55.646 81.4899 56.3444 82.1884 57.2758 82.1884C58.2071 82.1884 58.9055 81.4899 58.9055 80.5586C58.9055 79.6273 58.0907 78.9288 57.2758 78.9288Z" fill="black"></path>
  <path d="M25.8439 37.0197C25.6111 37.0197 25.3782 36.9033 25.2618 36.6704L18.0441 25.7275C17.9277 25.4947 17.9277 25.2619 17.9277 25.029L22.8171 10.7101C22.9335 10.3609 23.1664 10.2444 23.5156 10.2444H28.2886C28.6378 10.2444 28.8707 10.4773 28.9871 10.7101L33.8765 25.029C33.9929 25.2619 33.8765 25.4947 33.7601 25.7275L26.426 36.6704C26.3096 36.9033 26.0767 37.0197 25.8439 37.0197ZM19.4411 25.2619L25.8439 35.0406L32.3631 25.2619L27.8229 11.7578H24.0977L19.4411 25.2619Z" fill="black"></path>
  <path d="M23.1664 11.7578H21.5366C21.071 11.7578 20.8381 11.4086 20.8381 10.9429V7.79976C20.8381 7.33411 21.1874 6.98486 21.5366 6.98486H30.2677C30.7333 6.98486 30.9662 7.33411 30.9662 7.79976V10.9429C30.9662 11.4086 30.6169 11.7578 30.2677 11.7578H23.1664ZM22.3515 10.2445H23.1664H29.4528V8.61466H22.3515V10.2445Z" fill="black"></path>
  <path d="M25.9604 25.0291C24.2141 25.0291 22.9336 23.6321 22.9336 22.0023C22.9336 20.2561 24.3306 18.9755 25.9604 18.9755C27.7066 18.9755 28.9871 20.3725 28.9871 22.0023C28.9871 23.7485 27.5902 25.0291 25.9604 25.0291ZM25.9604 20.4889C25.1455 20.4889 24.447 21.1874 24.447 22.0023C24.447 22.8172 25.1455 23.5157 25.9604 23.5157C26.7753 23.5157 27.4737 22.8172 27.4737 22.0023C27.4737 21.1874 26.7753 20.4889 25.9604 20.4889Z" fill="black"></path>
  <path d="M25.8439 37.0197C25.3782 37.0197 25.029 36.6705 25.1454 36.2048L25.2618 24.2142C25.2618 23.7485 25.611 23.5157 25.9603 23.5157C26.4259 23.5157 26.6587 23.8649 26.6587 24.3306L26.5423 36.3212C26.5423 36.7869 26.1931 37.0197 25.8439 37.0197Z" fill="black"></path>
  <path d="M34.2259 39.1151H17.5786C17.113 39.1151 16.8801 38.7659 16.8801 38.3003C16.8801 37.8346 17.2294 37.4854 17.5786 37.4854H34.2259C34.6915 37.4854 34.9243 37.8346 34.9243 38.3003C35.0408 38.7659 34.6915 39.1151 34.2259 39.1151Z" fill="black"></path>
</svg>
