<?xml version="1.0" encoding="UTF-8"?>
<svg xmlns="http://www.w3.org/2000/svg" width="30" height="30" viewBox="0 0 30 30" fill="none">
  <path d="M21.0574 5.36269H24V0.00330062H18.6528C18.207 -0.0154012 12.7694 -0.119095 11.3599 5.24277C11.3394 5.29912 10.8892 6.57393 10.8892 9.55276L6 9.5672V15.1885L10.8956 15.174V30H18.3734V15.1867H23.3228V9.55091H18.3734V7.77763C18.3734 6.67577 18.8389 5.36269 21.0574 5.36269ZM22.0854 10.7854V13.9523H17.1361V28.7656H12.1329V13.936L7.23734 13.9505V10.798L12.1456 10.7836L12.1329 10.1558C12.0689 7.00067 12.5196 5.6734 12.5398 5.61014C13.756 0.991842 18.4003 1.22447 18.5996 1.23651L22.7627 1.23774V4.12825H21.0574C18.1661 4.12825 17.1361 6.01337 17.1361 7.77763V10.7854H22.0854Z" fill="black"></path>
</svg>
