<?xml version="1.0" encoding="UTF-8"?>
<svg xmlns="http://www.w3.org/2000/svg" width="79" height="80" viewBox="0 0 79 80" fill="none">
  <path d="M78.2 79.1H0.7C0.3 79.1 0 78.8 0 78.5V0.900027C0 0.600027 0.2 0.400027 0.4 0.300027C0.6 0.200027 0.9 0.300027 1.1 0.400027L19.8 19.1C20.1 19.4 20.1 19.8 19.8 20C19.5 20.3 19.1 20.3 18.9 20L1.3 2.50003V77.8H76.6L39 40.1C38.7 39.8 38.7 39.4 39 39.2C39.3 38.9 39.7 38.9 39.9 39.2L78.7 78C78.9 78.2 78.9 78.5 78.8 78.7C78.7 79 78.5 79.1 78.2 79.1Z" fill="black"></path>
  <path d="M47.1 66.2H13.5C13.1 66.2 12.8 65.9 12.8 65.6V32C12.8 31.7 13 31.5 13.2 31.4C13.4 31.3 13.7 31.4 13.9 31.5L19.4 37C19.7 37.3 19.7 37.7 19.4 37.9C19.1 38.2 18.7 38.2 18.5 37.9L14.1 33.5V64.9H45.5L36.7001 56.1C36.4001 55.8 36.4001 55.4 36.7001 55.2C37.0001 54.9 37.4 54.9 37.6 55.2L47.5 65.1C47.7 65.3 47.7 65.6 47.6 65.8C47.6 66.1 47.4 66.2 47.1 66.2ZM32.7001 51.8C32.5001 51.8 32.4001 51.7 32.2001 51.6L24.1 43.5C23.8 43.2 23.8 42.8 24.1 42.6C24.4 42.3 24.8 42.3 25 42.6L33.1 50.7C33.4 51 33.4 51.4 33.1 51.6C33 51.7 32.9001 51.8 32.7001 51.8Z" fill="black"></path>
  <path d="M22.1001 20.1C21.2001 20.1 20.4001 19.7 19.7001 19C18.0001 17.3 17.1001 14.1 17.1001 10C17.1001 7.8 17.6001 5.7 18.5001 3.7C19.1001 2.5 19.8001 1.3 20.7001 0.2C20.8001 0 21.1001 0 21.4001 0C21.6001 0.1 21.8001 0.3 21.9001 0.5C22.3001 2.9 23.6001 4.3 24.9001 5.6C26.1001 6.8 27.2001 8 27.2001 9.9C27.2001 14 26.3001 17.2 24.6001 18.8C23.8001 19.7 23.0001 20.1 22.1001 20.1ZM20.6001 18C21.1001 18.5 21.6001 18.8 22.1001 18.8C22.6001 18.8 23.1001 18.6 23.6001 18.1C25.1001 16.6 25.9001 13.7 25.9001 10C25.9001 8.6 25.0001 7.7 23.9001 6.6C22.8001 5.4 21.5001 4.1 20.8001 2.2C20.3001 2.9 19.9001 3.6 19.6001 4.3C18.8001 6 18.4001 8 18.4001 10C18.4001 13.6 19.2001 16.6 20.6001 18Z" fill="black"></path>
  <path d="M25.2999 24H18.9C18.5 24 18.3 23.7 18.2 23.4C18.2 22.6 18.2 21.7 18.2 20.9C18.2 20.2 18.4 19.6 18.7 19C18.9 18.6 19.2 18.3 19.5 18C19.7 17.8 20.0999 17.8 20.2999 18C20.7999 18.4 21.5 18.6 22.1 18.6C22.7 18.6 23.3 18.4 23.9 18C24.1 17.8 24.5 17.8 24.7 18C25 18.3 25.3 18.6 25.5 19C25.8 19.5 26 20.2 26 20.8C26 21.6 26 22.5 26 23.3C26 23.7 25.6999 24 25.2999 24ZM19.6 22.7H24.7C24.7 22.1 24.7 21.5 24.7 20.8C24.7 20.4 24.6 19.9 24.4 19.6C24.3 19.5 24.3 19.4 24.2 19.3C23.6 19.7 22.9 19.9 22.2 19.9C21.5 19.9 20.8 19.7 20.2 19.3C20.1 19.4 20.1 19.5 20 19.6C19.8 20 19.7 20.4 19.7 20.8C19.6 21.5 19.6 22.1 19.6 22.7Z" fill="black"></path>
  <path d="M25.2001 29.6H19C18.6 29.6 18.4 29.3 18.4 29C18.4 28.2 18.3 24.2 18.3 23.4C18.3 23.2 18.4 23.1 18.5 22.9C18.6 22.8 18.8 22.7 19 22.7H25.4C25.6 22.7 25.7 22.8 25.9 22.9C26 23 26.1 23.2 26.1 23.4L25.9 29C25.9 29.4 25.6001 29.6 25.2001 29.6ZM19.6 28.3H24.6L24.7001 24H19.6C19.6 25.1 19.6 27.2 19.6 28.3Z" fill="black"></path>
  <path d="M22.1 58.1C21.5 58.1 21.3 57.7 20.6 55.3C19.4 50.7 18.6 41.3 18.3 29C18.3 28.8 18.4 28.7 18.5 28.5C18.6 28.4 18.8 28.3 19 28.3H25.2001C25.4001 28.3 25.5001 28.4 25.7001 28.5C25.8001 28.6 25.9 28.8 25.9 29C25.7 41.3 24.8001 50.6 23.6 55.3C23 57.6 22.7 58.1 22.1 58.1ZM19.7001 29.6C20.0001 41.5 20.7 50.4 21.9 54.9C22 55.2 22.1 55.5 22.1 55.7C22.2 55.5 22.2 55.2 22.3 54.9C23.5 50.4 24.3 41.4 24.5 29.6H19.7001Z" fill="black"></path>
  <path d="M35.5 60.3C35.2 60.3 35 60.1 34.9 59.9L31 48.1C31 48 31 48 31 47.9V7.40002C31 7.00002 31.3 6.80002 31.7 6.80002H39.4C39.7 6.70002 40 7.00002 40 7.40002V47.9C40 48 40 48 40 48.1L36.2 59.8C36 60.1 35.8 60.3 35.5 60.3ZM32.3 47.8L35.5 57.5L38.7 47.8V8.00002H32.3V47.8Z" fill="black"></path>
  <path d="M39.4 48.6C39.2 48.6 39.1 48.5 39 48.4L38 47.5L37.4 48.3C37.3 48.5 37.1 48.5 36.9 48.6C36.7 48.6 36.5 48.5 36.4 48.4L35.4 47.4L34.8 48.4C34.7 48.6 34.5 48.7 34.3 48.7C34.1 48.7 33.9 48.6 33.8 48.4L33.2 47.4L32.2 48.4C32 48.7 31.5 48.7 31.3 48.4C31 48.2 31 47.7 31.3 47.5L32.8 45.9C32.9 45.8 33.1 45.7 33.3 45.7C33.5 45.7 33.7 45.8 33.8 46L34.4 46.8L35 46C35.1 45.8 35.3 45.7 35.5 45.7C35.7 45.7 35.9 45.8 36 45.9L37 47L37.5 46.3C37.6 46.2 37.8 46.1 38 46.1C38.2 46.1 38.4 46.1 38.5 46.3L40 47.6C40.3 47.8 40.3 48.2 40.1 48.5C39.8 48.5 39.6 48.6 39.4 48.6Z" fill="black"></path>
  <path d="M39.3 7.99999H31.6C31.3 7.99999 31 7.69999 31 7.39999V4.39999C31 2.39999 32.6 0.799988 34.6 0.799988H36.3C38.3 0.799988 39.9 2.39999 39.9 4.39999V7.39999C40 7.69999 39.7 7.99999 39.3 7.99999ZM32.3 6.69999H38.7V4.39999C38.7 3.09999 37.7 2.09999 36.4 2.09999H34.7C33.4 2.09999 32.4 3.09999 32.4 4.39999V6.69999H32.3Z" fill="black"></path>
  <path d="M7.2 17.8H0.7C0.3 17.8 0 17.5 0 17.2C0 16.8 0.3 16.6 0.7 16.6H7.2C7.6 16.6 7.9 16.9 7.9 17.2C7.8 17.5 7.5 17.8 7.2 17.8Z" fill="black"></path>
  <path d="M4.9 22.7H0.7C0.3 22.7 0 22.4 0 22C0 21.6 0.3 21.4 0.7 21.4H4.9C5.3 21.4 5.6 21.7 5.6 22C5.5 22.4 5.2 22.7 4.9 22.7Z" fill="black"></path>
  <path d="M7.2 27.6H0.7C0.3 27.6 0 27.3 0 27C0 26.7 0.3 26.4 0.7 26.4H7.2C7.6 26.4 7.9 26.7 7.9 27C7.9 27.3 7.5 27.6 7.2 27.6Z" fill="black"></path>
  <path d="M4.9 32.4H0.7C0.3 32.4 0 32.1 0 31.8C0 31.4 0.3 31.2 0.7 31.2H4.9C5.3 31.2 5.6 31.5 5.6 31.8C5.5 32.1 5.2 32.4 4.9 32.4Z" fill="black"></path>
  <path d="M7.2 37.3H0.7C0.3 37.3 0 37 0 36.6C0 36.3 0.3 36 0.7 36H7.2C7.6 36 7.9 36.3 7.9 36.6C7.8 37 7.5 37.3 7.2 37.3Z" fill="black"></path>
  <path d="M4.9 42.2H0.7C0.3 42.2 0 41.9 0 41.6C0 41.2 0.3 41 0.7 41H4.9C5.3 41 5.6 41.3 5.6 41.6C5.5 41.9 5.2 42.2 4.9 42.2Z" fill="black"></path>
  <path d="M7.2 47H0.7C0.3 47 0 46.7 0 46.4C0 46 0.3 45.8 0.7 45.8H7.2C7.6 45.8 7.9 46.1 7.9 46.4C7.8 46.7 7.5 47 7.2 47Z" fill="black"></path>
  <path d="M4.9 51.9H0.7C0.3 51.9 0 51.6 0 51.3C0 50.9 0.3 50.7 0.7 50.7H4.9C5.3 50.7 5.6 51 5.6 51.3C5.5 51.6 5.2 51.9 4.9 51.9Z" fill="black"></path>
  <path d="M7.2 56.8H0.7C0.3 56.8 0 56.5 0 56.2C0 55.8 0.3 55.6 0.7 55.6H7.2C7.6 55.6 7.9 55.9 7.9 56.2C7.8 56.5 7.5 56.8 7.2 56.8Z" fill="black"></path>
  <path d="M4.9 61.6H0.7C0.3 61.6 0 61.4 0 61C0 60.6 0.3 60.4 0.7 60.4H4.9C5.3 60.4 5.6 60.7 5.6 61C5.5 61.4 5.2 61.6 4.9 61.6Z" fill="black"></path>
  <path d="M7.2 66.5H0.7C0.3 66.5 0 66.2 0 65.8C0 65.4 0.3 65.2 0.7 65.2H7.2C7.6 65.2 7.9 65.5 7.9 65.8C7.8 66.2 7.5 66.5 7.2 66.5Z" fill="black"></path>
  <path d="M4.9 71.4H0.7C0.3 71.4 0 71.1 0 70.8C0 70.4 0.3 70.2 0.7 70.2H4.9C5.3 70.2 5.6 70.5 5.6 70.8C5.5 71.1 5.2 71.4 4.9 71.4Z" fill="black"></path>
  <path d="M12.3001 78.6C11.9001 78.6 11.6001 78.3 11.6001 78V71.5C11.6001 71.1 11.9001 70.9 12.3001 70.9C12.7001 70.9 13.0001 71.2 13.0001 71.5V78C12.9001 78.3 12.6001 78.6 12.3001 78.6Z" fill="black"></path>
  <path d="M17.0999 78.6C16.6999 78.6 16.3999 78.3 16.3999 78V73.8C16.3999 73.4 16.6999 73.2 17.0999 73.2C17.4999 73.2 17.7999 73.5 17.7999 73.8V78C17.7999 78.3 17.4999 78.6 17.0999 78.6Z" fill="black"></path>
  <path d="M22 78.6C21.6 78.6 21.3 78.3 21.3 78V71.5C21.3 71.1 21.6 70.9 22 70.9C22.4 70.9 22.7001 71.2 22.7001 71.5V78C22.6001 78.3 22.4 78.6 22 78.6Z" fill="black"></path>
  <path d="M26.9 78.6C26.5 78.6 26.2 78.3 26.2 78V73.8C26.2 73.4 26.5 73.2 26.9 73.2C27.3 73.2 27.6 73.5 27.6 73.8V78C27.5 78.3 27.2 78.6 26.9 78.6Z" fill="black"></path>
  <path d="M31.7 78.6C31.3 78.6 31 78.3 31 78V71.5C31 71.1 31.3 70.9 31.7 70.9C32.1 70.9 32.4 71.2 32.4 71.5V78C32.4 78.3 32.1 78.6 31.7 78.6Z" fill="black"></path>
  <path d="M36.5999 78.6C36.1999 78.6 35.8999 78.3 35.8999 78V73.8C35.8999 73.4 36.1999 73.2 36.5999 73.2C36.9999 73.2 37.2999 73.5 37.2999 73.8V78C37.2999 78.3 36.9999 78.6 36.5999 78.6Z" fill="black"></path>
  <path d="M41.5 78.6C41.1 78.6 40.8 78.3 40.8 78V71.5C40.8 71.1 41.1 70.9 41.5 70.9C41.9 70.9 42.2001 71.2 42.2001 71.5V78C42.1001 78.3 41.8 78.6 41.5 78.6Z" fill="black"></path>
  <path d="M46.3001 78.6C45.9001 78.6 45.6001 78.3 45.6001 78V73.8C45.6001 73.4 45.9001 73.2 46.3001 73.2C46.7001 73.2 47.0001 73.5 47.0001 73.8V78C47.0001 78.3 46.7001 78.6 46.3001 78.6Z" fill="black"></path>
  <path d="M51.2 78.6C50.8 78.6 50.5 78.3 50.5 78V71.5C50.5 71.1 50.8 70.9 51.2 70.9C51.6 70.9 51.9 71.2 51.9 71.5V78C51.9 78.3 51.6 78.6 51.2 78.6Z" fill="black"></path>
  <path d="M56.0999 78.6C55.6999 78.6 55.3999 78.3 55.3999 78V73.8C55.3999 73.4 55.6999 73.2 56.0999 73.2C56.4999 73.2 56.7999 73.5 56.7999 73.8V78C56.6999 78.3 56.3999 78.6 56.0999 78.6Z" fill="black"></path>
  <path d="M61 78.6C60.6 78.6 60.3 78.3 60.3 78V71.5C60.3 71.1 60.6 70.9 61 70.9C61.4 70.9 61.7001 71.2 61.7001 71.5V78C61.6001 78.3 61.3 78.6 61 78.6Z" fill="black"></path>
  <path d="M65.8001 78.6C65.4001 78.6 65.1001 78.3 65.1001 78V73.8C65.1001 73.4 65.4001 73.2 65.8001 73.2C66.2001 73.2 66.5001 73.5 66.5001 73.8V78C66.5001 78.3 66.2001 78.6 65.8001 78.6Z" fill="black"></path>
</svg>
