<?xml version="1.0" encoding="UTF-8"?>
<svg xmlns="http://www.w3.org/2000/svg" width="32" height="32" viewBox="0 0 32 32" fill="none">
  <path d="M16.9208 15.7503L31.2584 1.41282C31.5815 1.08964 31.5815 0.565667 31.2584 0.242488C30.9351 -0.0806914 30.4112 -0.0806914 30.0879 0.242488L15.7504 14.5799L1.4129 0.242384C1.08972 -0.0807948 0.565744 -0.0807948 0.242565 0.242384C-0.0807173 0.565563 -0.0807173 1.08954 0.242565 1.41272L14.58 15.7503L0.242462 30.0878C-0.0808206 30.4111 -0.0808206 30.935 0.242462 31.2583C0.404052 31.4199 0.615814 31.5007 0.827681 31.5007C1.03955 31.5007 1.25131 31.4199 1.4129 31.2583L15.7504 16.9208L30.0879 31.2583C30.2496 31.4199 30.4613 31.5007 30.6731 31.5007C30.885 31.5007 31.0968 31.4199 31.2584 31.2583C31.5815 30.935 31.5815 30.4111 31.2584 30.0878L16.9208 15.7503Z" fill="white"></path>
</svg>
